SplineFontDB: 3.2
FontName: mono5by7ascii
FullName: mono5by7ascii
FamilyName: mono5by7ascii
Weight: Book
Copyright: Copyright (c) 2013 by Peter Wiegel. All rights reserved.
Version: 1.0
ItalicAngle: 0
UnderlinePosition: -100
UnderlineWidth: 50
Ascent: 800
Descent: 200
InvalidEm: 0
sfntRevision: 0x00010000
LayerCount: 2
Layer: 0 1 "Back" 1
Layer: 1 1 "Fore" 0
XUID: [1021 362 -792500644 16850]
StyleMap: 0x0040
FSType: 0
OS2Version: 3
OS2_WeightWidthSlopeOnly: 0
OS2_UseTypoMetrics: 0
CreationTime: 1364308095
ModificationTime: 1580002835
PfmFamily: 81
TTFWeight: 400
TTFWidth: 5
LineGap: 0
VLineGap: 0
Panose: 0 0 0 0 0 0 0 0 0 0
OS2TypoAscent: 700
OS2TypoAOffset: 0
OS2TypoDescent: 0
OS2TypoDOffset: 0
OS2TypoLinegap: 50
OS2WinAscent: 750
OS2WinAOffset: 0
OS2WinDescent: 250
OS2WinDOffset: 0
HheadAscent: 700
HheadAOffset: 0
HheadDescent: 0
HheadDOffset: 0
OS2SubXSize: 700
OS2SubYSize: 650
OS2SubXOff: 0
OS2SubYOff: 140
OS2SupXSize: 700
OS2SupYSize: 650
OS2SupXOff: 0
OS2SupYOff: 477
OS2StrikeYSize: 50
OS2StrikeYPos: 250
OS2CapHeight: 700
OS2XHeight: 500
OS2Vendor: 'pyrs'
OS2CodePages: 0000000d.00000000
OS2UnicodeRanges: a00002af.4000104a.00000000.00000000
MarkAttachClasses: 1
DEI: 91125
TtTable: prep
PUSHW_1
 10
CALL
PUSHW_1
 0
CALL
EndTTInstrs
TtTable: fpgm
PUSHW_1
 0
FDEF
MPPEM
PUSHW_1
 9
LT
IF
PUSHB_2
 1
 1
INSTCTRL
EIF
PUSHW_1
 511
SCANCTRL
PUSHW_1
 68
SCVTCI
PUSHW_2
 9
 3
SDS
SDB
ENDF
PUSHW_1
 1
FDEF
DUP
DUP
RCVT
ROUND[Black]
WCVTP
PUSHB_1
 1
ADD
ENDF
PUSHW_1
 2
FDEF
PUSHW_1
 1
LOOPCALL
POP
ENDF
PUSHW_1
 3
FDEF
DUP
GC[cur]
PUSHB_1
 3
CINDEX
GC[cur]
GT
IF
SWAP
EIF
DUP
ROLL
DUP
ROLL
MD[grid]
ABS
ROLL
DUP
GC[cur]
DUP
ROUND[Grey]
SUB
ABS
PUSHB_1
 4
CINDEX
GC[cur]
DUP
ROUND[Grey]
SUB
ABS
GT
IF
SWAP
NEG
ROLL
EIF
MDAP[rnd]
DUP
PUSHB_1
 0
GTEQ
IF
ROUND[Black]
DUP
PUSHB_1
 0
EQ
IF
POP
PUSHB_1
 64
EIF
ELSE
ROUND[Black]
DUP
PUSHB_1
 0
EQ
IF
POP
PUSHB_1
 64
NEG
EIF
EIF
MSIRP[no-rp0]
ENDF
PUSHW_1
 4
FDEF
DUP
GC[cur]
PUSHB_1
 4
CINDEX
GC[cur]
GT
IF
SWAP
ROLL
EIF
DUP
GC[cur]
DUP

StartChar: four
Encoding: 52 52 1
Width: 614
VWidth: 1024
Flags: W
LayerCount: 2
Fore
SplineSet
358 154 m 256,0,1
 358 174 358 174 372 188 c 0,2,3
 384 201 384 201 404 205 c 1,4,5
 385 207 385 207 372.5 219 c 128,-1,6
 360 231 360 231 358 251 c 1,7,8
 355 231 355 231 342 218 c 0,9,10
 328 205 328 205 307 205 c 0,11,12
 287 205 287 205 272 218 c 0,13,14
 258 230 258 230 256 251 c 1,15,16
 253 231 253 231 240 218 c 0,17,18
 226 205 226 205 205 205 c 0,19,20
 185 205 185 205 170 218 c 0,21,22
 156 230 156 230 154 251 c 1,23,24
 151 231 151 231 137 218 c 128,-1,25
 123 205 123 205 102 205 c 0,26,27
 80 205 80 205 65.5 219.5 c 128,-1,28
 51 234 51 234 51 256 c 0,29,30
 51 276 51 276 65 291 c 0,31,32
 77 304 77 304 97 307 c 1,33,34
 77 309 77 309 65 324 c 0,35,36
 52 338 52 338 51 358 c 0,37,38
 51 380 51 380 66 395 c 128,-1,39
 81 410 81 410 102 410 c 0,40,41
 124 410 124 410 139 395 c 128,-1,42
 154 380 154 380 154 358 c 0,43,44
 154 338 154 338 140.5 323.5 c 128,-1,45
 127 309 127 309 108 307 c 1,46,47
 125 304 125 304 138 292 c 0,48,49
 151 279 151 279 154 260 c 1,50,51
 156 280 156 280 170 293.5 c 128,-1,52
 184 307 184 307 205 307 c 0,53,54
 227 307 227 307 241.5 292.5 c 128,-1,55
 256 278 256 278 256 256 c 1,56,57
 256 278 256 278 271 292.5 c 128,-1,58
 286 307 286 307 307 307 c 0,59,60
 329 307 329 307 343 292 c 0,61,62
 356 279 356 279 358 260 c 1,63,64
 359 277 359 277 372 291 c 0,65,66
 384 304 384 304 404 307 c 1,67,68
 384 309 384 309 372 324 c 0,69,70
 359 338 359 338 358 358 c 0,71,72
 358 378 358 378 372 393 c 0,73,74
 384 406 384 406 404 410 c 1,75,76
 384 412 384 412 372 426 c 0,77,78
 359 440 359 440 358 461 c 0,79,80
 358 481 358 481 372 496 c 0,81,82
 384 509 384 509 404 512 c 1,83,84
 385 514 385 514 372.5 526.5 c 128,-1,85
 360 539 360 539 358 558 c 1,86,87
 355 538 355 538 342 525 c 0,88,89
 328 512 328 512 307 512 c 0,90,91
 285 512 285 512 270.5 527 c 128,-1,92
 256 542 256 542 256 563 c 0,93,94
 256 585 256 585 271 599.5 c 128,-1,95
 286 614 286 614 307 614 c 0,96,97
 327 614 327 614 341.5 601 c 128,-1,98
 356 588 356 588 358 567 c 1,99,100
 360 585 360 585 373 599 c 0,101,102
 385 611 385 611 404 614 c 1,103,104
 384 616 384 616 372 631 c 0,105,106
 359 645 359 645 358 666 c 0,107,108
 358 688 358 688 373 702.5 c 128,-1,109
 388 717 388 717 410 717 c 256,110,111
 432 717 432 717 446.5 702 c 128,-1,112
 461 687 461 687 461 666 c 0,113,114
 461 646 461 646 447.5 631 c 128,-1,115
 434 616 434 616 415 614 c 1,116,117
 434 611 434 611 447 598 c 0,118,119
 460 584 460 584 461 563 c 0,120,121
 461 543 461 543 447.5 528.5 c 128,-1,122
 434 514 434 514 415 512 c 1,123,124
 434 509 434 509 447 496 c 0,125,126
 460 482 460 482 461 461 c 0,127,128
 461 441 461 441 447.5 426.5 c 128,-1,129
 434 412 434 412 415 410 c 1,130,131
 434 407 434 407 447 393 c 128,-1,132
 460 379 460 379 461 358 c 0,133,134
 461 338 461 338 447.5 323.5 c 128,-1,135
 434 309 434 309 415 307 c 1,136,137
 432 304 432 304 445 291.5 c 128,-1,138
 458 279 458 279 461 261 c 1,139,140
 463 280 463 280 477.5 293.5 c 128,-1,141
 492 307 492 307 512 307 c 0,142,143
 534 307 534 307 548.5 292.5 c 128,-1,144
 563 278 563 278 563 256 c 256,145,146
 563 234 563 234 548.5 219.5 c 128,-1,147
 534 205 534 205 512 205 c 0,148,149
 492 205 492 205 477 218 c 0,150,151
 463 230 463 230 461 251 c 1,152,153
 458 232 458 232 445 219.5 c 128,-1,154
 432 207 432 207 415 205 c 1,155,156
 434 202 434 202 447 188 c 128,-1,157
 460 174 460 174 461 154 c 0,158,159
 461 134 461 134 447.5 119 c 128,-1,160
 434 104 434 104 415 102 c 1,161,162
 434 99 434 99 447 86 c 0,163,164
 460 72 460 72 461 51 c 0,165,166
 461 29 461 29 446 14.5 c 128,-1,167
 431 0 431 0 410 0 c 0,168,169
 388 0 388 0 373 15 c 128,-1,170
 358 30 358 30 358 51 c 0,171,172
 358 71 358 71 372 86 c 0,173,174
 384 99 384 99 404 102 c 1,175,176
 384 104 384 104 372 119 c 0,177,178
 358 134 358 134 358 154 c 256,0,1
154 461 m 256,179,180
 154 483 154 483 168.5 497.5 c 128,-1,181
 183 512 183 512 205 512 c 256,182,183
 227 512 227 512 241.5 497 c 128,-1,184
 256 482 256 482 256 461 c 0,185,186
 256 439 256 439 241 424.5 c 128,-1,187
 226 410 226 410 205 410 c 0,188,189
 183 410 183 410 168.5 424.5 c 128,-1,190
 154 439 154 439 154 461 c 256,179,180
EndSplineSet
EndChar

StartChar: five
Encoding: 53 53 2
Width: 614
VWidth: 1024
Flags: W
LayerCount: 2
Fore
SplineSet
51 666 m 0,0,1
 51 688 51 688 66 702.5 c 128,-1,2
 81 717 81 717 102 717 c 0,3,4
 122 717 122 717 137 703.5 c 128,-1,5
 152 690 152 690 154 670 c 1,6,7
 156 690 156 690 170 703.5 c 128,-1,8
 184 717 184 717 205 717 c 0,9,10
 227 717 227 717 241.5 702 c 128,-1,11
 256 687 256 687 256 666 c 1,12,13
 256 688 256 688 271 702.5 c 128,-1,14
 286 717 286 717 307 717 c 0,15,16
 327 717 327 717 342 703 c 0,17,18
 355 690 355 690 358 671 c 1,19,20
 360 690 360 690 374.5 703.5 c 128,-1,21
 389 717 389 717 410 717 c 0,22,23
 432 717 432 717 446.5 702 c 128,-1,24
 461 687 461 687 461 666 c 1,25,26
 461 688 461 688 475.5 702.5 c 128,-1,27
 490 717 490 717 512 717 c 256,28,29
 534 717 534 717 548.5 702 c 128,-1,30
 563 687 563 687 563 666 c 0,31,32
 563 644 563 644 548.5 629 c 128,-1,33
 534 614 534 614 512 614 c 0,34,35
 492 614 492 614 477 628 c 0,36,37
 463 640 463 640 461 660 c 1,38,39
 458 640 458 640 444 628 c 0,40,41
 430 615 430 615 410 614 c 0,42,43
 390 614 390 614 375 628 c 0,44,45
 361 640 361 640 358 660 c 1,46,47
 355 640 355 640 342 628 c 0,48,49
 328 615 328 615 307 614 c 0,50,51
 287 614 287 614 272 628 c 0,52,53
 258 640 258 640 256 660 c 1,54,55
 253 640 253 640 240 628 c 0,56,57
 226 615 226 615 205 614 c 0,58,59
 185 614 185 614 170 628 c 0,60,61
 156 640 156 640 154 660 c 1,62,63
 151 641 151 641 138 628.5 c 128,-1,64
 125 616 125 616 108 614 c 1,65,66
 127 611 127 611 140 598 c 0,67,68
 153 584 153 584 154 563 c 0,69,70
 154 543 154 543 140.5 528.5 c 128,-1,71
 127 514 127 514 108 512 c 1,72,73
 125 509 125 509 138 496 c 128,-1,74
 151 483 151 483 154 466 c 1,75,76
 156 485 156 485 170 498.5 c 128,-1,77
 184 512 184 512 205 512 c 0,78,79
 227 512 227 512 241 497 c 0,80,81
 254 484 254 484 256 465 c 1,82,83
 257 483 257 483 270 497 c 0,84,85
 285 512 285 512 307 512 c 256,86,87
 329 512 329 512 343.5 497 c 128,-1,88
 358 482 358 482 358 461 c 1,89,90
 358 483 358 483 373 497.5 c 128,-1,91
 388 512 388 512 410 512 c 256,92,93
 432 512 432 512 446.5 497 c 128,-1,94
 461 482 461 482 461 461 c 0,95,96
 461 439 461 439 446 424.5 c 128,-1,97
 431 410 431 410 410 410 c 0,98,99
 390 410 390 410 375 423 c 0,100,101
 361 435 361 435 358 456 c 1,102,103
 355 436 355 436 342 423 c 0,104,105
 328 410 328 410 307 410 c 0,106,107
 287 410 287 410 272 423 c 0,108,109
 258 435 258 435 256 456 c 1,110,111
 253 436 253 436 240 423 c 0,112,113
 226 410 226 410 205 410 c 0,114,115
 185 410 185 410 170 423 c 0,116,117
 156 435 156 435 154 456 c 1,118,119
 151 436 151 436 137 423 c 128,-1,120
 123 410 123 410 102 410 c 0,121,122
 80 410 80 410 65.5 424.5 c 128,-1,123
 51 439 51 439 51 461 c 0,124,125
 51 481 51 481 65 496 c 0,126,127
 77 509 77 509 97 512 c 1,128,129
 77 514 77 514 65 528 c 0,130,131
 52 542 52 542 51 563 c 0,132,133
 51 583 51 583 65 598 c 0,134,135
 77 611 77 611 97 614 c 1,136,137
 77 616 77 616 65 631 c 0,138,139
 51 646 51 646 51 666 c 0,0,1
154 51 m 256,140,141
 154 73 154 73 168.5 87.5 c 128,-1,142
 183 102 183 102 205 102 c 0,143,144
 225 102 225 102 240 89 c 0,145,146
 253 76 253 76 256 56 c 1,147,148
 258 75 258 75 272.5 88.5 c 128,-1,149
 287 102 287 102 307 102 c 256,150,151
 327 102 327 102 341.5 89 c 128,-1,152
 356 76 356 76 358 55 c 1,153,154
 360 75 360 75 374.5 88.5 c 128,-1,155
 389 102 389 102 410 102 c 0,156,157
 432 102 432 102 446.5 87.5 c 128,-1,158
 461 73 461 73 461 51 c 256,159,160
 461 29 461 29 446 14.5 c 128,-1,161
 431 0 431 0 410 0 c 0,162,163
 390 0 390 0 375 13 c 0,164,165
 361 25 361 25 358 46 c 1,166,167
 355 26 355 26 342 13 c 0,168,169
 328 0 328 0 307 0 c 0,170,171
 287 0 287 0 272 13 c 0,172,173
 258 25 258 25 256 46 c 1,174,175
 253 26 253 26 240 13 c 0,176,177
 226 0 226 0 205 0 c 0,178,179
 183 0 183 0 168.5 14.5 c 128,-1,180
 154 29 154 29 154 51 c 256,140,141
461 256 m 256,181,182
 461 276 461 276 474 291 c 0,183,184
 486 304 486 304 507 307 c 1,185,186
 487 309 487 309 474 324 c 0,187,188
 461 338 461 338 461 358 c 0,189,190
 461 380 461 380 475.5 395 c 128,-1,191
 490 410 490 410 512 410 c 256,192,193
 534 410 534 410 548.5 395 c 128,-1,194
 563 380 563 380 563 358 c 0,195,196
 563 338 563 338 550 323.5 c 128,-1,197
 537 309 537 309 517 307 c 1,198,199
 536 304 536 304 550 291 c 0,200,201
 563 277 563 277 563 256 c 0,202,203
 563 236 563 236 550 221.5 c 128,-1,204
 537 207 537 207 517 205 c 1,205,206
 536 202 536 202 550 188 c 0,207,208
 563 174 563 174 563 154 c 0,209,210
 563 132 563 132 548.5 117 c 128,-1,211
 534 102 534 102 512 102 c 256,212,213
 490 102 490 102 475.5 117 c 128,-1,214
 461 132 461 132 461 154 c 0,215,216
 461 174 461 174 474 188 c 0,217,218
 486 201 486 201 507 205 c 1,219,220
 487 207 487 207 474 221 c 0,221,222
 461 236 461 236 461 256 c 256,181,182
51 154 m 256,223,224
 51 176 51 176 66 190.5 c 128,-1,225
 81 205 81 205 102 205 c 0,226,227
 124 205 124 205 139 190 c 128,-1,228
 154 175 154 175 154 154 c 0,229,230
 154 132 154 132 139 117 c 128,-1,231
 124 102 124 102 102 102 c 256,232,233
 80 102 80 102 65.5 117 c 128,-1,234
 51 132 51 132 51 154 c 256,223,224
EndSplineSet
EndChar

StartChar: six
Encoding: 54 54 3
Width: 614
VWidth: 1024
Flags: W
LayerCount: 2
Fore
SplineSet
51 461 m 0,0,1
 51 483 51 483 66 497.5 c 128,-1,2
 81 512 81 512 102 512 c 0,3,4
 124 512 124 512 139 497 c 128,-1,5
 154 482 154 482 154 461 c 0,6,7
 154 441 154 441 140.5 426.5 c 128,-1,8
 127 412 127 412 108 410 c 1,9,10
 127 407 127 407 140 393 c 128,-1,11
 153 379 153 379 154 358 c 1,12,13
 154 380 154 380 168.5 395 c 128,-1,14
 183 410 183 410 205 410 c 0,15,16
 225 410 225 410 240 396 c 0,17,18
 253 383 253 383 256 364 c 1,19,20
 258 383 258 383 272.5 396.5 c 128,-1,21
 287 410 287 410 307 410 c 0,22,23
 329 410 329 410 343 394 c 0,24,25
 356 381 356 381 358 362 c 1,26,27
 359 380 359 380 373 394 c 0,28,29
 388 409 388 409 410 410 c 0,30,31
 432 410 432 410 446.5 395 c 128,-1,32
 461 380 461 380 461 358 c 256,33,34
 461 336 461 336 446 321.5 c 128,-1,35
 431 307 431 307 410 307 c 0,36,37
 390 307 390 307 375 321 c 0,38,39
 361 333 361 333 358 353 c 1,40,41
 355 333 355 333 342 321 c 0,42,43
 328 308 328 308 307 307 c 0,44,45
 287 307 287 307 272 321 c 0,46,47
 258 333 258 333 256 353 c 1,48,49
 253 333 253 333 240 321 c 0,50,51
 226 308 226 308 205 307 c 0,52,53
 185 307 185 307 170 321 c 0,54,55
 156 333 156 333 154 353 c 1,56,57
 151 334 151 334 138 321.5 c 128,-1,58
 125 309 125 309 108 307 c 1,59,60
 127 304 127 304 140 291 c 0,61,62
 153 277 153 277 154 256 c 0,63,64
 154 236 154 236 140.5 221.5 c 128,-1,65
 127 207 127 207 108 205 c 1,66,67
 127 202 127 202 140 188 c 128,-1,68
 153 174 153 174 154 154 c 0,69,70
 154 132 154 132 139 117 c 128,-1,71
 124 102 124 102 102 102 c 256,72,73
 80 102 80 102 65.5 117 c 128,-1,74
 51 132 51 132 51 154 c 0,75,76
 51 174 51 174 65 188 c 0,77,78
 77 201 77 201 97 205 c 1,79,80
 77 207 77 207 65 221 c 0,81,82
 52 235 52 235 51 256 c 0,83,84
 51 276 51 276 65 291 c 0,85,86
 77 304 77 304 97 307 c 1,87,88
 77 309 77 309 65 324 c 0,89,90
 52 338 52 338 51 358 c 0,91,92
 51 378 51 378 65 393 c 0,93,94
 77 406 77 406 97 410 c 1,95,96
 77 412 77 412 65 426 c 0,97,98
 51 441 51 441 51 461 c 0,0,1
154 51 m 256,99,100
 154 73 154 73 168.5 87.5 c 128,-1,101
 183 102 183 102 205 102 c 0,102,103
 225 102 225 102 240 89 c 0,104,105
 253 76 253 76 256 56 c 1,106,107
 258 75 258 75 272.5 88.5 c 128,-1,108
 287 102 287 102 307 102 c 256,109,110
 327 102 327 102 342 89 c 0,111,112
 355 76 355 76 358 56 c 1,113,114
 360 75 360 75 374.5 88.5 c 128,-1,115
 389 102 389 102 410 102 c 0,116,117
 432 102 432 102 446.5 87.5 c 128,-1,118
 461 73 461 73 461 51 c 256,119,120
 461 29 461 29 446 14.5 c 128,-1,121
 431 0 431 0 410 0 c 0,122,123
 390 0 390 0 375 13 c 0,124,125
 361 25 361 25 358 46 c 1,126,127
 355 26 355 26 342 13 c 0,128,129
 328 0 328 0 307 0 c 0,130,131
 287 0 287 0 272 13 c 0,132,133
 258 25 258 25 256 46 c 1,134,135
 253 26 253 26 240 13 c 0,136,137
 226 0 226 0 205 0 c 0,138,139
 183 0 183 0 168.5 14.5 c 128,-1,140
 154 29 154 29 154 51 c 256,99,100
256 666 m 256,141,142
 256 688 256 688 271 702.5 c 128,-1,143
 286 717 286 717 307 717 c 0,144,145
 327 717 327 717 342 703 c 0,146,147
 355 690 355 690 358 671 c 1,148,149
 360 690 360 690 374.5 703.5 c 128,-1,150
 389 717 389 717 410 717 c 0,151,152
 432 717 432 717 446.5 702 c 128,-1,153
 461 687 461 687 461 666 c 0,154,155
 461 644 461 644 446 629 c 128,-1,156
 431 614 431 614 410 614 c 0,157,158
 390 614 390 614 375 628 c 0,159,160
 361 640 361 640 358 660 c 1,161,162
 355 640 355 640 342 628 c 0,163,164
 328 615 328 615 307 614 c 0,165,166
 285 614 285 614 270.5 629 c 128,-1,167
 256 644 256 644 256 666 c 256,141,142
461 154 m 0,168,169
 461 174 461 174 474 188 c 0,170,171
 486 201 486 201 507 205 c 1,172,173
 487 207 487 207 474 221 c 128,-1,174
 461 235 461 235 461 256 c 0,175,176
 461 278 461 278 475.5 292.5 c 128,-1,177
 490 307 490 307 512 307 c 256,178,179
 534 307 534 307 548.5 292.5 c 128,-1,180
 563 278 563 278 563 256 c 0,181,182
 563 236 563 236 550 221.5 c 128,-1,183
 537 207 537 207 517 205 c 1,184,185
 536 202 536 202 550 188 c 0,186,187
 563 174 563 174 563 154 c 0,188,189
 563 132 563 132 548.5 117 c 128,-1,190
 534 102 534 102 512 102 c 256,191,192
 490 102 490 102 475.5 117 c 128,-1,193
 461 132 461 132 461 154 c 0,168,169
154 563 m 256,194,195
 154 585 154 585 168.5 599.5 c 128,-1,196
 183 614 183 614 205 614 c 256,197,198
 227 614 227 614 241.5 599.5 c 128,-1,199
 256 585 256 585 256 563 c 256,200,201
 256 541 256 541 241 526.5 c 128,-1,202
 226 512 226 512 205 512 c 0,203,204
 183 512 183 512 168.5 526.5 c 128,-1,205
 154 541 154 541 154 563 c 256,194,195
EndSplineSet
EndChar

StartChar: seven
Encoding: 55 55 4
Width: 614
VWidth: 1024
Flags: W
LayerCount: 2
Fore
SplineSet
461 563 m 0,0,1
 461 583 461 583 474 598 c 0,2,3
 486 611 486 611 507 614 c 1,4,5
 488 616 488 616 475.5 628.5 c 128,-1,6
 463 641 463 641 461 660 c 1,7,8
 458 640 458 640 444 628 c 0,9,10
 430 615 430 615 410 614 c 0,11,12
 390 614 390 614 375 628 c 0,13,14
 361 640 361 640 358 660 c 1,15,16
 355 640 355 640 342 628 c 0,17,18
 328 615 328 615 307 614 c 0,19,20
 287 614 287 614 272 628 c 0,21,22
 258 640 258 640 256 660 c 1,23,24
 253 640 253 640 240 628 c 0,25,26
 226 615 226 615 205 614 c 0,27,28
 185 614 185 614 170 628 c 0,29,30
 156 640 156 640 154 660 c 1,31,32
 151 640 151 640 137 628 c 0,33,34
 123 615 123 615 102 614 c 0,35,36
 80 614 80 614 65.5 629 c 128,-1,37
 51 644 51 644 51 666 c 256,38,39
 51 688 51 688 66 702.5 c 128,-1,40
 81 717 81 717 102 717 c 0,41,42
 122 717 122 717 137 703.5 c 128,-1,43
 152 690 152 690 154 670 c 1,44,45
 156 690 156 690 170 703.5 c 128,-1,46
 184 717 184 717 205 717 c 0,47,48
 225 717 225 717 240 703 c 0,49,50
 253 690 253 690 256 671 c 1,51,52
 258 690 258 690 272.5 703.5 c 128,-1,53
 287 717 287 717 307 717 c 256,54,55
 327 717 327 717 341.5 703.5 c 128,-1,56
 356 690 356 690 358 670 c 1,57,58
 360 690 360 690 374.5 703.5 c 128,-1,59
 389 717 389 717 410 717 c 0,60,61
 432 717 432 717 446.5 702 c 128,-1,62
 461 687 461 687 461 666 c 1,63,64
 461 688 461 688 475.5 702.5 c 128,-1,65
 490 717 490 717 512 717 c 256,66,67
 534 717 534 717 548.5 702 c 128,-1,68
 563 687 563 687 563 666 c 0,69,70
 563 646 563 646 550 631 c 128,-1,71
 537 616 537 616 517 614 c 1,72,73
 536 611 536 611 550 598 c 0,74,75
 563 584 563 584 563 563 c 0,76,77
 563 541 563 541 548.5 526.5 c 128,-1,78
 534 512 534 512 512 512 c 256,79,80
 490 512 490 512 475.5 526.5 c 128,-1,81
 461 541 461 541 461 563 c 0,0,1
256 256 m 256,82,83
 256 276 256 276 269 291 c 0,84,85
 281 304 281 304 302 307 c 1,86,87
 282 309 282 309 269 324 c 0,88,89
 256 338 256 338 256 358 c 0,90,91
 256 380 256 380 271 395 c 128,-1,92
 286 410 286 410 307 410 c 0,93,94
 329 410 329 410 343.5 395 c 128,-1,95
 358 380 358 380 358 358 c 0,96,97
 358 338 358 338 345 323.5 c 128,-1,98
 332 309 332 309 312 307 c 1,99,100
 331 304 331 304 345 291 c 0,101,102
 358 277 358 277 358 256 c 0,103,104
 358 236 358 236 345 221.5 c 128,-1,105
 332 207 332 207 312 205 c 1,106,107
 331 202 331 202 345 188 c 0,108,109
 358 174 358 174 358 154 c 256,110,111
 358 134 358 134 345 119 c 128,-1,112
 332 104 332 104 312 102 c 1,113,114
 331 99 331 99 345 86 c 0,115,116
 358 72 358 72 358 51 c 0,117,118
 358 29 358 29 343.5 14.5 c 128,-1,119
 329 0 329 0 307 0 c 256,120,121
 285 0 285 0 270.5 15 c 128,-1,122
 256 30 256 30 256 51 c 0,123,124
 256 71 256 71 269 86 c 0,125,126
 281 99 281 99 302 102 c 1,127,128
 282 104 282 104 269 119 c 0,129,130
 256 133 256 133 256 154 c 0,131,132
 256 174 256 174 269 188 c 0,133,134
 281 201 281 201 302 205 c 1,135,136
 282 207 282 207 269 221 c 0,137,138
 256 236 256 236 256 256 c 256,82,83
358 461 m 256,139,140
 358 483 358 483 373 497.5 c 128,-1,141
 388 512 388 512 410 512 c 256,142,143
 432 512 432 512 446.5 497 c 128,-1,144
 461 482 461 482 461 461 c 0,145,146
 461 439 461 439 446 424.5 c 128,-1,147
 431 410 431 410 410 410 c 0,148,149
 388 410 388 410 373 424.5 c 128,-1,150
 358 439 358 439 358 461 c 256,139,140
EndSplineSet
EndChar

StartChar: eight
Encoding: 56 56 5
Width: 614
VWidth: 1024
Flags: W
LayerCount: 2
Fore
SplineSet
154 666 m 256,0,1
 154 688 154 688 168.5 702.5 c 128,-1,2
 183 717 183 717 205 717 c 256,3,4
 227 717 227 717 241 701 c 0,5,6
 254 688 254 688 256 670 c 1,7,8
 257 688 257 688 270 701 c 0,9,10
 285 716 285 716 307 717 c 0,11,12
 329 717 329 717 343.5 702 c 128,-1,13
 358 687 358 687 358 666 c 1,14,15
 358 688 358 688 373 702.5 c 128,-1,16
 388 717 388 717 410 717 c 256,17,18
 432 717 432 717 446.5 702 c 128,-1,19
 461 687 461 687 461 666 c 0,20,21
 461 644 461 644 446 629 c 128,-1,22
 431 614 431 614 410 614 c 0,23,24
 390 614 390 614 375 628 c 0,25,26
 361 640 361 640 358 660 c 1,27,28
 355 640 355 640 342 628 c 0,29,30
 328 615 328 615 307 614 c 0,31,32
 287 614 287 614 272 628 c 0,33,34
 258 640 258 640 256 660 c 1,35,36
 253 640 253 640 240 628 c 0,37,38
 226 615 226 615 205 614 c 0,39,40
 183 614 183 614 168.5 629 c 128,-1,41
 154 644 154 644 154 666 c 256,0,1
154 358 m 256,42,43
 154 380 154 380 168.5 395 c 128,-1,44
 183 410 183 410 205 410 c 256,45,46
 227 410 227 410 241.5 395 c 128,-1,47
 256 380 256 380 256 358 c 1,48,49
 256 380 256 380 271 395 c 128,-1,50
 286 410 286 410 307 410 c 0,51,52
 329 410 329 410 343 394 c 0,53,54
 356 381 356 381 358 362 c 1,55,56
 359 380 359 380 373 394 c 0,57,58
 388 409 388 409 410 410 c 0,59,60
 432 410 432 410 446.5 395 c 128,-1,61
 461 380 461 380 461 358 c 256,62,63
 461 336 461 336 446 321.5 c 128,-1,64
 431 307 431 307 410 307 c 0,65,66
 390 307 390 307 375 321 c 0,67,68
 361 333 361 333 358 353 c 1,69,70
 355 333 355 333 342 321 c 0,71,72
 328 308 328 308 307 307 c 0,73,74
 287 307 287 307 272 321 c 0,75,76
 258 333 258 333 256 353 c 1,77,78
 253 333 253 333 240 321 c 0,79,80
 226 308 226 308 205 307 c 0,81,82
 183 307 183 307 168.5 321.5 c 128,-1,83
 154 336 154 336 154 358 c 256,42,43
154 51 m 256,84,85
 154 73 154 73 168.5 87.5 c 128,-1,86
 183 102 183 102 205 102 c 0,87,88
 225 102 225 102 239.5 89 c 128,-1,89
 254 76 254 76 256 55 c 1,90,91
 258 75 258 75 272.5 88.5 c 128,-1,92
 287 102 287 102 307 102 c 0,93,94
 329 102 329 102 343.5 87.5 c 128,-1,95
 358 73 358 73 358 51 c 1,96,97
 358 73 358 73 373 87.5 c 128,-1,98
 388 102 388 102 410 102 c 256,99,100
 432 102 432 102 446.5 87.5 c 128,-1,101
 461 73 461 73 461 51 c 256,102,103
 461 29 461 29 446 14.5 c 128,-1,104
 431 0 431 0 410 0 c 0,105,106
 390 0 390 0 375 13 c 0,107,108
 361 25 361 25 358 46 c 1,109,110
 355 26 355 26 342 13 c 0,111,112
 328 0 328 0 307 0 c 0,113,114
 287 0 287 0 272 13 c 0,115,116
 258 25 258 25 256 46 c 1,117,118
 253 26 253 26 240 13 c 0,119,120
 226 0 226 0 205 0 c 0,121,122
 183 0 183 0 168.5 14.5 c 128,-1,123
 154 29 154 29 154 51 c 256,84,85
51 563 m 0,124,125
 51 585 51 585 66 599.5 c 128,-1,126
 81 614 81 614 102 614 c 0,127,128
 124 614 124 614 139 599.5 c 128,-1,129
 154 585 154 585 154 563 c 0,130,131
 154 543 154 543 140.5 528.5 c 128,-1,132
 127 514 127 514 108 512 c 1,133,134
 127 509 127 509 140 496 c 0,135,136
 153 482 153 482 154 461 c 0,137,138
 154 439 154 439 139 424.5 c 128,-1,139
 124 410 124 410 102 410 c 256,140,141
 80 410 80 410 65.5 424.5 c 128,-1,142
 51 439 51 439 51 461 c 0,143,144
 51 481 51 481 65 496 c 0,145,146
 77 509 77 509 97 512 c 1,147,148
 77 514 77 514 65 528 c 0,149,150
 51 543 51 543 51 563 c 0,124,125
51 154 m 0,151,152
 51 174 51 174 65 188 c 0,153,154
 77 201 77 201 97 205 c 1,155,156
 77 207 77 207 65 221 c 0,157,158
 52 235 52 235 51 256 c 0,159,160
 51 278 51 278 66 292.5 c 128,-1,161
 81 307 81 307 102 307 c 0,162,163
 124 307 124 307 139 292.5 c 128,-1,164
 154 278 154 278 154 256 c 0,165,166
 154 236 154 236 140.5 221.5 c 128,-1,167
 127 207 127 207 108 205 c 1,168,169
 127 202 127 202 140 188 c 128,-1,170
 153 174 153 174 154 154 c 0,171,172
 154 132 154 132 139 117 c 128,-1,173
 124 102 124 102 102 102 c 256,174,175
 80 102 80 102 65.5 117 c 128,-1,176
 51 132 51 132 51 154 c 0,151,152
461 563 m 0,177,178
 461 585 461 585 475.5 599.5 c 128,-1,179
 490 614 490 614 512 614 c 256,180,181
 534 614 534 614 548.5 599.5 c 128,-1,182
 563 585 563 585 563 563 c 0,183,184
 563 543 563 543 550 528.5 c 128,-1,185
 537 514 537 514 517 512 c 1,186,187
 536 509 536 509 550 496 c 0,188,189
 563 482 563 482 563 461 c 0,190,191
 563 439 563 439 548.5 424.5 c 128,-1,192
 534 410 534 410 512 410 c 256,193,194
 490 410 490 410 475.5 424.5 c 128,-1,195
 461 439 461 439 461 461 c 0,196,197
 461 481 461 481 474 496 c 0,198,199
 486 509 486 509 507 512 c 1,200,201
 487 514 487 514 474 528 c 0,202,203
 461 543 461 543 461 563 c 0,177,178
461 154 m 0,204,205
 461 174 461 174 474 188 c 0,206,207
 486 201 486 201 507 205 c 1,208,209
 487 207 487 207 474 221 c 128,-1,210
 461 235 461 235 461 256 c 0,211,212
 461 278 461 278 475.5 292.5 c 128,-1,213
 490 307 490 307 512 307 c 256,214,215
 534 307 534 307 548.5 292.5 c 128,-1,216
 563 278 563 278 563 256 c 0,217,218
 563 236 563 236 550 221.5 c 128,-1,219
 537 207 537 207 517 205 c 1,220,221
 536 202 536 202 550 188 c 0,222,223
 563 174 563 174 563 154 c 0,224,225
 563 132 563 132 548.5 117 c 128,-1,226
 534 102 534 102 512 102 c 256,227,228
 490 102 490 102 475.5 117 c 128,-1,229
 461 132 461 132 461 154 c 0,204,205
EndSplineSet
EndChar

StartChar: nine
Encoding: 57 57 6
Width: 614
VWidth: 1024
Flags: W
LayerCount: 2
Fore
SplineSet
461 256 m 0,0,1
 461 276 461 276 474 291 c 0,2,3
 486 304 486 304 507 307 c 1,4,5
 488 309 488 309 475.5 321.5 c 128,-1,6
 463 334 463 334 461 353 c 1,7,8
 458 333 458 333 444 321 c 0,9,10
 430 308 430 308 410 307 c 0,11,12
 390 307 390 307 375 321 c 0,13,14
 361 333 361 333 358 353 c 1,15,16
 355 333 355 333 342 321 c 0,17,18
 328 308 328 308 307 307 c 0,19,20
 287 307 287 307 272 321 c 0,21,22
 258 333 258 333 256 353 c 1,23,24
 253 333 253 333 240 321 c 0,25,26
 226 308 226 308 205 307 c 0,27,28
 183 307 183 307 168.5 322 c 128,-1,29
 154 337 154 337 154 358 c 0,30,31
 154 380 154 380 168.5 395 c 128,-1,32
 183 410 183 410 205 410 c 256,33,34
 227 410 227 410 241 394 c 0,35,36
 254 381 254 381 256 362 c 1,37,38
 257 380 257 380 270 394 c 0,39,40
 285 409 285 409 307 410 c 0,41,42
 329 410 329 410 343.5 395 c 128,-1,43
 358 380 358 380 358 358 c 1,44,45
 358 380 358 380 373 395 c 128,-1,46
 388 410 388 410 410 410 c 256,47,48
 432 410 432 410 445 394 c 0,49,50
 458 381 458 381 461 362 c 1,51,52
 462 379 462 379 474 393 c 0,53,54
 486 406 486 406 507 410 c 1,55,56
 487 412 487 412 474 426 c 128,-1,57
 461 440 461 440 461 461 c 0,58,59
 461 481 461 481 474 496 c 0,60,61
 486 509 486 509 507 512 c 1,62,63
 487 514 487 514 474 528 c 128,-1,64
 461 542 461 542 461 563 c 0,65,66
 461 585 461 585 475.5 599.5 c 128,-1,67
 490 614 490 614 512 614 c 256,68,69
 534 614 534 614 548.5 599.5 c 128,-1,70
 563 585 563 585 563 563 c 0,71,72
 563 543 563 543 550 528.5 c 128,-1,73
 537 514 537 514 517 512 c 1,74,75
 536 509 536 509 550 496 c 0,76,77
 563 482 563 482 563 461 c 0,78,79
 563 441 563 441 550 426.5 c 128,-1,80
 537 412 537 412 517 410 c 1,81,82
 536 407 536 407 550 393 c 0,83,84
 563 379 563 379 563 358 c 0,85,86
 563 338 563 338 550 323.5 c 128,-1,87
 537 309 537 309 517 307 c 1,88,89
 536 304 536 304 550 291 c 0,90,91
 563 277 563 277 563 256 c 0,92,93
 563 234 563 234 548.5 219.5 c 128,-1,94
 534 205 534 205 512 205 c 256,95,96
 490 205 490 205 475.5 219.5 c 128,-1,97
 461 234 461 234 461 256 c 0,0,1
154 666 m 256,98,99
 154 688 154 688 168.5 702.5 c 128,-1,100
 183 717 183 717 205 717 c 0,101,102
 225 717 225 717 240 703 c 0,103,104
 253 690 253 690 256 671 c 1,105,106
 258 690 258 690 272.5 703.5 c 128,-1,107
 287 717 287 717 307 717 c 0,108,109
 329 717 329 717 343.5 702 c 128,-1,110
 358 687 358 687 358 666 c 1,111,112
 358 688 358 688 373 702.5 c 128,-1,113
 388 717 388 717 410 717 c 256,114,115
 432 717 432 717 446.5 702 c 128,-1,116
 461 687 461 687 461 666 c 0,117,118
 461 644 461 644 446 629 c 128,-1,119
 431 614 431 614 410 614 c 0,120,121
 390 614 390 614 375 628 c 0,122,123
 361 640 361 640 358 660 c 1,124,125
 355 640 355 640 342 628 c 0,126,127
 328 615 328 615 307 614 c 0,128,129
 287 614 287 614 272 628 c 0,130,131
 258 640 258 640 256 660 c 1,132,133
 253 640 253 640 240 628 c 0,134,135
 226 615 226 615 205 614 c 0,136,137
 183 614 183 614 168.5 629 c 128,-1,138
 154 644 154 644 154 666 c 256,98,99
154 51 m 256,139,140
 154 73 154 73 168.5 87.5 c 128,-1,141
 183 102 183 102 205 102 c 0,142,143
 225 102 225 102 240 89 c 0,144,145
 253 76 253 76 256 56 c 1,146,147
 258 75 258 75 272.5 88.5 c 128,-1,148
 287 102 287 102 307 102 c 0,149,150
 329 102 329 102 343.5 87.5 c 128,-1,151
 358 73 358 73 358 51 c 256,152,153
 358 29 358 29 343.5 14.5 c 128,-1,154
 329 0 329 0 307 0 c 0,155,156
 287 0 287 0 272 13 c 0,157,158
 258 25 258 25 256 46 c 1,159,160
 253 26 253 26 240 13 c 0,161,162
 226 0 226 0 205 0 c 0,163,164
 183 0 183 0 168.5 14.5 c 128,-1,165
 154 29 154 29 154 51 c 256,139,140
51 563 m 0,166,167
 51 585 51 585 66 599.5 c 128,-1,168
 81 614 81 614 102 614 c 0,169,170
 124 614 124 614 139 599.5 c 128,-1,171
 154 585 154 585 154 563 c 0,172,173
 154 543 154 543 140.5 528.5 c 128,-1,174
 127 514 127 514 108 512 c 1,175,176
 127 509 127 509 140 496 c 0,177,178
 153 482 153 482 154 461 c 0,179,180
 154 439 154 439 139 424.5 c 128,-1,181
 124 410 124 410 102 410 c 256,182,183
 80 410 80 410 65.5 424.5 c 128,-1,184
 51 439 51 439 51 461 c 0,185,186
 51 481 51 481 65 496 c 0,187,188
 77 509 77 509 97 512 c 1,189,190
 77 514 77 514 65 528 c 0,191,192
 51 543 51 543 51 563 c 0,166,167
358 154 m 256,193,194
 358 176 358 176 373 190.5 c 128,-1,195
 388 205 388 205 410 205 c 256,196,197
 432 205 432 205 446.5 190 c 128,-1,198
 461 175 461 175 461 154 c 0,199,200
 461 132 461 132 446 117 c 128,-1,201
 431 102 431 102 410 102 c 0,202,203
 388 102 388 102 373 117 c 128,-1,204
 358 132 358 132 358 154 c 256,193,194
EndSplineSet
EndChar

StartChar: colon
Encoding: 58 58 7
Width: 614
VWidth: 1024
Flags: W
LayerCount: 2
Fore
SplineSet
205 563 m 0,0,1
 205 585 205 585 219.5 599.5 c 128,-1,2
 234 614 234 614 256 614 c 0,3,4
 276 614 276 614 291 601 c 0,5,6
 304 588 304 588 307 568 c 1,7,8
 309 587 309 587 323.5 600.5 c 128,-1,9
 338 614 338 614 358 614 c 0,10,11
 380 614 380 614 395 599.5 c 128,-1,12
 410 585 410 585 410 563 c 0,13,14
 410 543 410 543 396.5 528.5 c 128,-1,15
 383 514 383 514 364 512 c 1,16,17
 383 509 383 509 396 496 c 0,18,19
 409 482 409 482 410 461 c 0,20,21
 410 439 410 439 395 424.5 c 128,-1,22
 380 410 380 410 358 410 c 0,23,24
 338 410 338 410 324 423 c 0,25,26
 310 435 310 435 307 456 c 1,27,28
 304 436 304 436 291 423 c 0,29,30
 277 410 277 410 256 410 c 0,31,32
 234 410 234 410 219.5 424.5 c 128,-1,33
 205 439 205 439 205 461 c 0,34,35
 205 481 205 481 218 496 c 0,36,37
 230 509 230 509 251 512 c 1,38,39
 231 514 231 514 218 528 c 0,40,41
 205 543 205 543 205 563 c 0,0,1
205 256 m 0,42,43
 205 278 205 278 219.5 292.5 c 128,-1,44
 234 307 234 307 256 307 c 0,45,46
 276 307 276 307 290.5 294 c 128,-1,47
 305 281 305 281 307 260 c 1,48,49
 309 280 309 280 323.5 293.5 c 128,-1,50
 338 307 338 307 358 307 c 0,51,52
 380 307 380 307 395 292.5 c 128,-1,53
 410 278 410 278 410 256 c 0,54,55
 410 236 410 236 396.5 221.5 c 128,-1,56
 383 207 383 207 364 205 c 1,57,58
 383 202 383 202 396 188 c 128,-1,59
 409 174 409 174 410 154 c 0,60,61
 410 132 410 132 395 117 c 128,-1,62
 380 102 380 102 358 102 c 0,63,64
 338 102 338 102 324 116 c 0,65,66
 310 128 310 128 307 148 c 1,67,68
 304 128 304 128 291 116 c 0,69,70
 277 103 277 103 256 102 c 0,71,72
 234 102 234 102 219.5 117 c 128,-1,73
 205 132 205 132 205 154 c 0,74,75
 205 174 205 174 218 188 c 0,76,77
 230 201 230 201 251 205 c 1,78,79
 231 207 231 207 218 221 c 0,80,81
 205 236 205 236 205 256 c 0,42,43
321 188 m 256,82,83
 333 201 333 201 353 205 c 1,84,85
 334 207 334 207 321.5 219 c 128,-1,86
 309 231 309 231 307 251 c 1,87,88
 304 232 304 232 291.5 219.5 c 128,-1,89
 279 207 279 207 261 205 c 1,90,91
 280 202 280 202 294 188 c 0,92,93
 305 175 305 175 307 158 c 1,94,95
 309 175 309 175 321 188 c 256,82,83
321 496 m 256,96,97
 333 509 333 509 353 512 c 1,98,99
 334 514 334 514 321.5 526.5 c 128,-1,100
 309 539 309 539 307 558 c 1,101,102
 304 539 304 539 291.5 526.5 c 128,-1,103
 279 514 279 514 261 512 c 1,104,105
 280 509 280 509 294 496 c 0,106,107
 305 483 305 483 307 465 c 1,108,109
 309 483 309 483 321 496 c 256,96,97
EndSplineSet
EndChar

StartChar: semicolon
Encoding: 59 59 8
Width: 614
VWidth: 1024
Flags: W
LayerCount: 2
Fore
SplineSet
205 256 m 0,0,1
 205 278 205 278 219.5 292.5 c 128,-1,2
 234 307 234 307 256 307 c 256,3,4
 278 307 278 307 292.5 292.5 c 128,-1,5
 307 278 307 278 307 256 c 1,6,7
 307 278 307 278 322 292.5 c 128,-1,8
 337 307 337 307 358 307 c 0,9,10
 380 307 380 307 395 292.5 c 128,-1,11
 410 278 410 278 410 256 c 0,12,13
 410 236 410 236 396.5 221.5 c 128,-1,14
 383 207 383 207 364 205 c 1,15,16
 383 202 383 202 396 188 c 128,-1,17
 409 174 409 174 410 154 c 0,18,19
 410 132 410 132 395 117 c 128,-1,20
 380 102 380 102 358 102 c 0,21,22
 338 102 338 102 324 116 c 0,23,24
 310 128 310 128 307 148 c 1,25,26
 304 129 304 129 291.5 116.5 c 128,-1,27
 279 104 279 104 261 102 c 1,28,29
 280 99 280 99 294 86 c 0,30,31
 307 72 307 72 307 51 c 0,32,33
 307 29 307 29 292.5 14.5 c 128,-1,34
 278 0 278 0 256 0 c 256,35,36
 234 0 234 0 219.5 15 c 128,-1,37
 205 30 205 30 205 51 c 0,38,39
 205 71 205 71 218 86 c 0,40,41
 230 99 230 99 251 102 c 1,42,43
 231 104 231 104 218 119 c 0,44,45
 205 133 205 133 205 154 c 0,46,47
 205 174 205 174 218 188 c 0,48,49
 230 201 230 201 251 205 c 1,50,51
 231 207 231 207 218 221 c 0,52,53
 205 236 205 236 205 256 c 0,0,1
205 563 m 0,54,55
 205 585 205 585 219.5 599.5 c 128,-1,56
 234 614 234 614 256 614 c 256,57,58
 278 614 278 614 292.5 599.5 c 128,-1,59
 307 585 307 585 307 563 c 1,60,61
 307 585 307 585 322 599.5 c 128,-1,62
 337 614 337 614 358 614 c 0,63,64
 380 614 380 614 395 599.5 c 128,-1,65
 410 585 410 585 410 563 c 0,66,67
 410 543 410 543 396.5 528.5 c 128,-1,68
 383 514 383 514 364 512 c 1,69,70
 383 509 383 509 396 496 c 0,71,72
 409 482 409 482 410 461 c 0,73,74
 410 439 410 439 395 424.5 c 128,-1,75
 380 410 380 410 358 410 c 0,76,77
 338 410 338 410 324 423 c 0,78,79
 310 435 310 435 307 456 c 1,80,81
 304 436 304 436 291 423 c 0,82,83
 277 410 277 410 256 410 c 0,84,85
 234 410 234 410 219.5 424.5 c 128,-1,86
 205 439 205 439 205 461 c 0,87,88
 205 481 205 481 218 496 c 0,89,90
 230 509 230 509 251 512 c 1,91,92
 231 514 231 514 218 528 c 0,93,94
 205 543 205 543 205 563 c 0,54,55
322 497 m 0,95,96
 334 509 334 509 353 512 c 1,97,98
 334 514 334 514 321.5 526.5 c 128,-1,99
 309 539 309 539 307 558 c 1,100,101
 304 539 304 539 291.5 526.5 c 128,-1,102
 279 514 279 514 261 512 c 1,103,104
 278 509 278 509 291 496 c 128,-1,105
 304 483 304 483 307 466 c 1,106,107
 310 484 310 484 322 497 c 0,95,96
321 188 m 256,108,109
 333 201 333 201 353 205 c 1,110,111
 334 207 334 207 321.5 219 c 128,-1,112
 309 231 309 231 307 251 c 1,113,114
 304 232 304 232 291.5 219.5 c 128,-1,115
 279 207 279 207 261 205 c 1,116,117
 280 202 280 202 294 188 c 0,118,119
 305 175 305 175 307 158 c 1,120,121
 309 175 309 175 321 188 c 256,108,109
EndSplineSet
EndChar

StartChar: less
Encoding: 60 60 9
Width: 614
VWidth: 1024
Flags: W
LayerCount: 2
Fore
SplineSet
256 358 m 256,0,1
 256 380 256 380 271 395 c 128,-1,2
 286 410 286 410 307 410 c 0,3,4
 329 410 329 410 343.5 395 c 128,-1,5
 358 380 358 380 358 358 c 256,6,7
 358 336 358 336 343.5 321.5 c 128,-1,8
 329 307 329 307 307 307 c 256,9,10
 285 307 285 307 270.5 321.5 c 128,-1,11
 256 336 256 336 256 358 c 256,0,1
256 154 m 256,12,13
 256 176 256 176 271 190.5 c 128,-1,14
 286 205 286 205 307 205 c 0,15,16
 329 205 329 205 343.5 190 c 128,-1,17
 358 175 358 175 358 154 c 0,18,19
 358 132 358 132 343.5 117 c 128,-1,20
 329 102 329 102 307 102 c 256,21,22
 285 102 285 102 270.5 117 c 128,-1,23
 256 132 256 132 256 154 c 256,12,13
358 461 m 256,24,25
 358 483 358 483 373 497.5 c 128,-1,26
 388 512 388 512 410 512 c 256,27,28
 432 512 432 512 446.5 497 c 128,-1,29
 461 482 461 482 461 461 c 0,30,31
 461 439 461 439 446 424.5 c 128,-1,32
 431 410 431 410 410 410 c 0,33,34
 388 410 388 410 373 424.5 c 128,-1,35
 358 439 358 439 358 461 c 256,24,25
358 51 m 256,36,37
 358 73 358 73 373 87.5 c 128,-1,38
 388 102 388 102 410 102 c 256,39,40
 432 102 432 102 446.5 87.5 c 128,-1,41
 461 73 461 73 461 51 c 256,42,43
 461 29 461 29 446 14.5 c 128,-1,44
 431 0 431 0 410 0 c 0,45,46
 388 0 388 0 373 14.5 c 128,-1,47
 358 29 358 29 358 51 c 256,36,37
154 256 m 256,48,49
 154 278 154 278 168.5 292.5 c 128,-1,50
 183 307 183 307 205 307 c 256,51,52
 227 307 227 307 241.5 292.5 c 128,-1,53
 256 278 256 278 256 256 c 256,54,55
 256 234 256 234 241 219.5 c 128,-1,56
 226 205 226 205 205 205 c 0,57,58
 183 205 183 205 168.5 219.5 c 128,-1,59
 154 234 154 234 154 256 c 256,48,49
EndSplineSet
EndChar

StartChar: equal
Encoding: 61 61 10
Width: 614
VWidth: 1024
Flags: W
LayerCount: 2
Fore
SplineSet
51 461 m 256,0,1
 51 483 51 483 66 497.5 c 128,-1,2
 81 512 81 512 102 512 c 0,3,4
 122 512 122 512 137 499 c 0,5,6
 150 486 150 486 154 466 c 1,7,8
 156 485 156 485 170 498.5 c 128,-1,9
 184 512 184 512 205 512 c 0,10,11
 227 512 227 512 241.5 497 c 128,-1,12
 256 482 256 482 256 461 c 1,13,14
 256 483 256 483 271 497.5 c 128,-1,15
 286 512 286 512 307 512 c 0,16,17
 329 512 329 512 343 497 c 0,18,19
 356 484 356 484 358 465 c 1,20,21
 359 483 359 483 373 497 c 0,22,23
 388 512 388 512 410 512 c 0,24,25
 430 512 430 512 444 499 c 0,26,27
 457 486 457 486 461 466 c 1,28,29
 463 485 463 485 477.5 498.5 c 128,-1,30
 492 512 492 512 512 512 c 0,31,32
 534 512 534 512 548.5 497 c 128,-1,33
 563 482 563 482 563 461 c 0,34,35
 563 439 563 439 548.5 424.5 c 128,-1,36
 534 410 534 410 512 410 c 0,37,38
 492 410 492 410 477 423 c 0,39,40
 463 435 463 435 461 456 c 1,41,42
 458 436 458 436 444 423 c 128,-1,43
 430 410 430 410 410 410 c 256,44,45
 390 410 390 410 375 423 c 0,46,47
 361 435 361 435 358 456 c 1,48,49
 355 436 355 436 342 423 c 0,50,51
 328 410 328 410 307 410 c 0,52,53
 287 410 287 410 272 423 c 0,54,55
 258 435 258 435 256 456 c 1,56,57
 253 436 253 436 240 423 c 0,58,59
 226 410 226 410 205 410 c 0,60,61
 185 410 185 410 170 423 c 0,62,63
 156 435 156 435 154 456 c 1,64,65
 151 436 151 436 137 423 c 128,-1,66
 123 410 123 410 102 410 c 0,67,68
 80 410 80 410 65.5 424.5 c 128,-1,69
 51 439 51 439 51 461 c 256,0,1
51 256 m 256,70,71
 51 278 51 278 66 292.5 c 128,-1,72
 81 307 81 307 102 307 c 0,73,74
 122 307 122 307 137 294 c 128,-1,75
 152 281 152 281 154 260 c 1,76,77
 156 280 156 280 170 293.5 c 128,-1,78
 184 307 184 307 205 307 c 0,79,80
 227 307 227 307 241 292 c 0,81,82
 254 279 254 279 256 260 c 1,83,84
 257 278 257 278 270 292 c 0,85,86
 285 307 285 307 307 307 c 256,87,88
 329 307 329 307 343 292 c 0,89,90
 356 279 356 279 358 260 c 1,91,92
 359 278 359 278 373 292 c 0,93,94
 388 307 388 307 410 307 c 0,95,96
 430 307 430 307 444 294 c 0,97,98
 457 281 457 281 461 261 c 1,99,100
 463 280 463 280 477.5 293.5 c 128,-1,101
 492 307 492 307 512 307 c 0,102,103
 534 307 534 307 548.5 292.5 c 128,-1,104
 563 278 563 278 563 256 c 256,105,106
 563 234 563 234 548.5 219.5 c 128,-1,107
 534 205 534 205 512 205 c 0,108,109
 492 205 492 205 477 218 c 0,110,111
 463 230 463 230 461 251 c 1,112,113
 458 231 458 231 444 218 c 128,-1,114
 430 205 430 205 410 205 c 256,115,116
 390 205 390 205 375 218 c 0,117,118
 361 230 361 230 358 251 c 1,119,120
 355 231 355 231 342 218 c 0,121,122
 328 205 328 205 307 205 c 0,123,124
 287 205 287 205 272 218 c 0,125,126
 258 230 258 230 256 251 c 1,127,128
 253 231 253 231 240 218 c 0,129,130
 226 205 226 205 205 205 c 0,131,132
 185 205 185 205 170 218 c 0,133,134
 156 230 156 230 154 251 c 1,135,136
 151 231 151 231 137 218 c 128,-1,137
 123 205 123 205 102 205 c 0,138,139
 80 205 80 205 65.5 219.5 c 128,-1,140
 51 234 51 234 51 256 c 256,70,71
EndSplineSet
EndChar

StartChar: greater
Encoding: 62 62 11
Width: 614
VWidth: 1024
Flags: W
LayerCount: 2
Fore
SplineSet
256 357 m 256,0,1
 256 379 256 379 271 394 c 128,-1,2
 286 409 286 409 307 409 c 0,3,4
 329 409 329 409 343.5 394 c 128,-1,5
 358 379 358 379 358 357 c 256,6,7
 358 335 358 335 343.5 320.5 c 128,-1,8
 329 306 329 306 307 306 c 256,9,10
 285 306 285 306 270.5 320.5 c 128,-1,11
 256 335 256 335 256 357 c 256,0,1
256 153 m 0,12,13
 256 175 256 175 271 189.5 c 128,-1,14
 286 204 286 204 307 204 c 0,15,16
 329 204 329 204 343.5 189 c 128,-1,17
 358 174 358 174 358 153 c 0,18,19
 358 128 358 128 342.5 115 c 128,-1,20
 327 102 327 102 307.5 102 c 128,-1,21
 288 102 288 102 272 115 c 128,-1,22
 256 128 256 128 256 153 c 0,12,13
358 255 m 256,23,24
 358 277 358 277 373 291.5 c 128,-1,25
 388 306 388 306 410 306 c 256,26,27
 432 306 432 306 446.5 291 c 128,-1,28
 461 276 461 276 461 255 c 0,29,30
 461 233 461 233 446 218.5 c 128,-1,31
 431 204 431 204 410 204 c 0,32,33
 388 204 388 204 373 218.5 c 128,-1,34
 358 233 358 233 358 255 c 256,23,24
154 50 m 256,35,36
 154 72 154 72 168.5 86.5 c 128,-1,37
 183 101 183 101 205 101 c 256,38,39
 227 101 227 101 241.5 86.5 c 128,-1,40
 256 72 256 72 256 50 c 256,41,42
 256 28 256 28 241 13.5 c 128,-1,43
 226 -1 226 -1 205 -1 c 0,44,45
 183 -1 183 -1 168.5 13.5 c 128,-1,46
 154 28 154 28 154 50 c 256,35,36
154 460 m 256,47,48
 154 482 154 482 168.5 496.5 c 128,-1,49
 183 511 183 511 205 511 c 256,50,51
 227 511 227 511 241.5 496 c 128,-1,52
 256 481 256 481 256 460 c 0,53,54
 256 438 256 438 241 423.5 c 128,-1,55
 226 409 226 409 205 409 c 0,56,57
 183 409 183 409 168.5 423.5 c 128,-1,58
 154 438 154 438 154 460 c 256,47,48
EndSplineSet
EndChar

StartChar: question
Encoding: 63 63 12
Width: 614
VWidth: 1024
Flags: W
LayerCount: 2
Fore
SplineSet
154 666 m 256,0,1
 154 688 154 688 168.5 702.5 c 128,-1,2
 183 717 183 717 205 717 c 256,3,4
 227 717 227 717 241.5 702 c 128,-1,5
 256 687 256 687 256 666 c 1,6,7
 256 688 256 688 271 702.5 c 128,-1,8
 286 717 286 717 307 717 c 0,9,10
 327 717 327 717 342 703 c 0,11,12
 355 690 355 690 358 671 c 1,13,14
 360 690 360 690 374.5 703.5 c 128,-1,15
 389 717 389 717 410 717 c 0,16,17
 432 717 432 717 446.5 702 c 128,-1,18
 461 687 461 687 461 666 c 0,19,20
 461 644 461 644 446 629 c 128,-1,21
 431 614 431 614 410 614 c 0,22,23
 390 614 390 614 375 628 c 0,24,25
 361 640 361 640 358 660 c 1,26,27
 355 640 355 640 342 628 c 0,28,29
 328 615 328 615 307 614 c 0,30,31
 287 614 287 614 272 628 c 0,32,33
 258 640 258 640 256 660 c 1,34,35
 253 640 253 640 240 628 c 0,36,37
 226 615 226 615 205 614 c 0,38,39
 183 614 183 614 168.5 629 c 128,-1,40
 154 644 154 644 154 666 c 256,0,1
461 461 m 0,41,42
 461 481 461 481 474 496 c 0,43,44
 486 509 486 509 507 512 c 1,45,46
 487 514 487 514 474 528 c 128,-1,47
 461 542 461 542 461 563 c 0,48,49
 461 585 461 585 475.5 599.5 c 128,-1,50
 490 614 490 614 512 614 c 256,51,52
 534 614 534 614 548.5 599.5 c 128,-1,53
 563 585 563 585 563 563 c 0,54,55
 563 543 563 543 550 528.5 c 128,-1,56
 537 514 537 514 517 512 c 1,57,58
 536 509 536 509 550 496 c 0,59,60
 563 482 563 482 563 461 c 0,61,62
 563 439 563 439 548.5 424.5 c 128,-1,63
 534 410 534 410 512 410 c 256,64,65
 490 410 490 410 475.5 424.5 c 128,-1,66
 461 439 461 439 461 461 c 0,41,42
256 51 m 256,67,68
 256 73 256 73 271 87.5 c 128,-1,69
 286 102 286 102 307 102 c 0,70,71
 329 102 329 102 343.5 87.5 c 128,-1,72
 358 73 358 73 358 51 c 256,73,74
 358 29 358 29 343.5 14.5 c 128,-1,75
 329 0 329 0 307 0 c 256,76,77
 285 0 285 0 270.5 14.5 c 128,-1,78
 256 29 256 29 256 51 c 256,67,68
51 563 m 256,79,80
 51 585 51 585 66 599.5 c 128,-1,81
 81 614 81 614 102 614 c 0,82,83
 124 614 124 614 139 599.5 c 128,-1,84
 154 585 154 585 154 563 c 256,85,86
 154 541 154 541 139 526.5 c 128,-1,87
 124 512 124 512 102 512 c 256,88,89
 80 512 80 512 65.5 526.5 c 128,-1,90
 51 541 51 541 51 563 c 256,79,80
256 256 m 256,91,92
 256 278 256 278 271 292.5 c 128,-1,93
 286 307 286 307 307 307 c 0,94,95
 329 307 329 307 343.5 292.5 c 128,-1,96
 358 278 358 278 358 256 c 256,97,98
 358 234 358 234 343.5 219.5 c 128,-1,99
 329 205 329 205 307 205 c 256,100,101
 285 205 285 205 270.5 219.5 c 128,-1,102
 256 234 256 234 256 256 c 256,91,92
358 358 m 256,103,104
 358 380 358 380 373 395 c 128,-1,105
 388 410 388 410 410 410 c 256,106,107
 432 410 432 410 446.5 395 c 128,-1,108
 461 380 461 380 461 358 c 256,109,110
 461 336 461 336 446 321.5 c 128,-1,111
 431 307 431 307 410 307 c 0,112,113
 388 307 388 307 373 321.5 c 128,-1,114
 358 336 358 336 358 358 c 256,103,104
EndSplineSet
EndChar

StartChar: at
Encoding: 64 64 13
Width: 614
VWidth: 1024
Flags: W
LayerCount: 2
Fore
SplineSet
256 256 m 0,0,1
 256 276 256 276 269 291 c 0,2,3
 281 304 281 304 302 307 c 1,4,5
 282 309 282 309 269 324 c 0,6,7
 256 338 256 338 256 358 c 256,8,9
 256 378 256 378 269 393 c 0,10,11
 281 406 281 406 302 410 c 1,12,13
 282 412 282 412 269 426 c 128,-1,14
 256 440 256 440 256 461 c 0,15,16
 256 483 256 483 271 497.5 c 128,-1,17
 286 512 286 512 307 512 c 0,18,19
 327 512 327 512 342 499 c 0,20,21
 355 486 355 486 358 466 c 1,22,23
 360 485 360 485 374.5 498.5 c 128,-1,24
 389 512 389 512 410 512 c 0,25,26
 430 512 430 512 444.5 498.5 c 128,-1,27
 459 485 459 485 461 465 c 1,28,29
 463 483 463 483 475 497 c 0,30,31
 487 509 487 509 507 512 c 1,32,33
 487 514 487 514 474 528 c 128,-1,34
 461 542 461 542 461 563 c 0,35,36
 461 585 461 585 475.5 599.5 c 128,-1,37
 490 614 490 614 512 614 c 256,38,39
 534 614 534 614 548.5 599.5 c 128,-1,40
 563 585 563 585 563 563 c 0,41,42
 563 543 563 543 550 528.5 c 128,-1,43
 537 514 537 514 517 512 c 1,44,45
 536 509 536 509 550 496 c 0,46,47
 563 482 563 482 563 461 c 0,48,49
 563 441 563 441 550 426.5 c 128,-1,50
 537 412 537 412 517 410 c 1,51,52
 536 407 536 407 550 393 c 0,53,54
 563 379 563 379 563 358 c 0,55,56
 563 338 563 338 550 323.5 c 128,-1,57
 537 309 537 309 517 307 c 1,58,59
 536 304 536 304 550 291 c 0,60,61
 563 277 563 277 563 256 c 0,62,63
 563 234 563 234 548.5 219.5 c 128,-1,64
 534 205 534 205 512 205 c 0,65,66
 492 205 492 205 477 218 c 0,67,68
 463 230 463 230 461 251 c 1,69,70
 458 231 458 231 444 218 c 128,-1,71
 430 205 430 205 410 205 c 256,72,73
 390 205 390 205 375 218 c 0,74,75
 361 230 361 230 358 251 c 1,76,77
 355 231 355 231 342 218 c 0,78,79
 328 205 328 205 307 205 c 0,80,81
 285 205 285 205 270.5 219.5 c 128,-1,82
 256 234 256 234 256 256 c 0,0,1
51 256 m 256,83,84
 51 276 51 276 65 291 c 0,85,86
 77 304 77 304 97 307 c 1,87,88
 77 309 77 309 65 324 c 0,89,90
 52 338 52 338 51 358 c 0,91,92
 51 378 51 378 65 393 c 0,93,94
 77 406 77 406 97 410 c 1,95,96
 77 412 77 412 65 426 c 0,97,98
 52 440 52 440 51 461 c 0,99,100
 51 481 51 481 65 496 c 0,101,102
 77 509 77 509 97 512 c 1,103,104
 77 514 77 514 65 528 c 0,105,106
 52 542 52 542 51 563 c 0,107,108
 51 585 51 585 66 599.5 c 128,-1,109
 81 614 81 614 102 614 c 0,110,111
 124 614 124 614 139 599.5 c 128,-1,112
 154 585 154 585 154 563 c 0,113,114
 154 543 154 543 140.5 528.5 c 128,-1,115
 127 514 127 514 108 512 c 1,116,117
 127 509 127 509 140 496 c 0,118,119
 153 482 153 482 154 461 c 0,120,121
 154 441 154 441 140.5 426.5 c 128,-1,122
 127 412 127 412 108 410 c 1,123,124
 127 407 127 407 140 393 c 128,-1,125
 153 379 153 379 154 358 c 0,126,127
 154 338 154 338 140.5 323.5 c 128,-1,128
 127 309 127 309 108 307 c 1,129,130
 127 304 127 304 140 291 c 0,131,132
 153 277 153 277 154 256 c 0,133,134
 154 236 154 236 140.5 221.5 c 128,-1,135
 127 207 127 207 108 205 c 1,136,137
 127 202 127 202 140 188 c 128,-1,138
 153 174 153 174 154 154 c 0,139,140
 154 132 154 132 139 117 c 128,-1,141
 124 102 124 102 102 102 c 256,142,143
 80 102 80 102 65.5 117 c 128,-1,144
 51 132 51 132 51 154 c 0,145,146
 51 174 51 174 65 188 c 0,147,148
 77 201 77 201 97 205 c 1,149,150
 77 207 77 207 65 221 c 0,151,152
 51 236 51 236 51 256 c 256,83,84
154 51 m 256,153,154
 154 73 154 73 168.5 87.5 c 128,-1,155
 183 102 183 102 205 102 c 256,156,157
 227 102 227 102 241 87 c 0,158,159
 254 74 254 74 256 55 c 1,160,161
 257 73 257 73 270 87 c 0,162,163
 285 102 285 102 307 102 c 256,164,165
 329 102 329 102 343 87 c 0,166,167
 356 74 356 74 358 55 c 1,168,169
 359 73 359 73 373 87 c 0,170,171
 388 102 388 102 410 102 c 256,172,173
 432 102 432 102 445 87 c 0,174,175
 458 74 458 74 461 55 c 1,176,177
 462 73 462 73 475 87 c 0,178,179
 490 102 490 102 512 102 c 256,180,181
 534 102 534 102 548.5 87.5 c 128,-1,182
 563 73 563 73 563 51 c 256,183,184
 563 29 563 29 548.5 14.5 c 128,-1,185
 534 0 534 0 512 0 c 0,186,187
 492 0 492 0 477 13 c 0,188,189
 463 25 463 25 461 46 c 1,190,191
 458 26 458 26 444 13 c 128,-1,192
 430 0 430 0 410 0 c 256,193,194
 390 0 390 0 375 13 c 0,195,196
 361 25 361 25 358 46 c 1,197,198
 355 26 355 26 342 13 c 0,199,200
 328 0 328 0 307 0 c 0,201,202
 287 0 287 0 272 13 c 0,203,204
 258 25 258 25 256 46 c 1,205,206
 253 26 253 26 240 13 c 0,207,208
 226 0 226 0 205 0 c 0,209,210
 183 0 183 0 168.5 14.5 c 128,-1,211
 154 29 154 29 154 51 c 256,153,154
154 666 m 256,212,213
 154 688 154 688 168.5 702.5 c 128,-1,214
 183 717 183 717 205 717 c 0,215,216
 225 717 225 717 239.5 703.5 c 128,-1,217
 254 690 254 690 256 670 c 1,218,219
 258 690 258 690 272.5 703.5 c 128,-1,220
 287 717 287 717 307 717 c 0,221,222
 329 717 329 717 343 701 c 0,223,224
 356 688 356 688 358 670 c 1,225,226
 359 688 359 688 373 701 c 0,227,228
 388 716 388 716 410 717 c 0,229,230
 432 717 432 717 446.5 702 c 128,-1,231
 461 687 461 687 461 666 c 0,232,233
 461 644 461 644 446 629 c 128,-1,234
 431 614 431 614 410 614 c 0,235,236
 390 614 390 614 375 628 c 0,237,238
 361 640 361 640 358 660 c 1,239,240
 355 640 355 640 342 628 c 0,241,242
 328 615 328 615 307 614 c 0,243,244
 287 614 287 614 272 628 c 0,245,246
 258 640 258 640 256 660 c 1,247,248
 253 640 253 640 240 628 c 0,249,250
 226 615 226 615 205 614 c 0,251,252
 183 614 183 614 168.5 629 c 128,-1,253
 154 644 154 644 154 666 c 256,212,213
461 358 m 256,254,255
 461 378 461 378 474 393 c 0,256,257
 486 406 486 406 507 410 c 1,258,259
 488 412 488 412 475.5 424 c 128,-1,260
 463 436 463 436 461 456 c 1,261,262
 458 436 458 436 444 423 c 128,-1,263
 430 410 430 410 410 410 c 256,264,265
 390 410 390 410 375 423 c 0,266,267
 361 435 361 435 358 456 c 1,268,269
 355 437 355 437 342.5 424.5 c 128,-1,270
 330 412 330 412 312 410 c 1,271,272
 331 407 331 407 345 393 c 0,273,274
 358 379 358 379 358 358 c 0,275,276
 358 338 358 338 345 323.5 c 128,-1,277
 332 309 332 309 312 307 c 1,278,279
 331 304 331 304 345 291 c 0,280,281
 356 278 356 278 358 260 c 1,282,283
 359 278 359 278 373 292 c 0,284,285
 388 307 388 307 410 307 c 256,286,287
 432 307 432 307 446.5 292.5 c 128,-1,288
 461 278 461 278 461 256 c 1,289,290
 461 276 461 276 474 291 c 0,291,292
 486 304 486 304 507 307 c 1,293,294
 487 309 487 309 474 324 c 0,295,296
 461 338 461 338 461 358 c 256,254,255
EndSplineSet
EndChar

StartChar: A
Encoding: 65 65 14
Width: 614
VWidth: 1024
Flags: W
LayerCount: 2
Fore
SplineSet
461 154 m 256,0,1
 461 174 461 174 474 188 c 0,2,3
 486 201 486 201 507 205 c 1,4,5
 488 207 488 207 475.5 219 c 128,-1,6
 463 231 463 231 461 251 c 1,7,8
 458 231 458 231 444 218 c 128,-1,9
 430 205 430 205 410 205 c 256,10,11
 390 205 390 205 375 218 c 0,12,13
 361 230 361 230 358 251 c 1,14,15
 355 231 355 231 342 218 c 0,16,17
 328 205 328 205 307 205 c 0,18,19
 287 205 287 205 272 218 c 0,20,21
 258 230 258 230 256 251 c 1,22,23
 253 231 253 231 240 218 c 0,24,25
 226 205 226 205 205 205 c 0,26,27
 185 205 185 205 170 218 c 0,28,29
 156 230 156 230 154 251 c 1,30,31
 151 232 151 232 138 219.5 c 128,-1,32
 125 207 125 207 108 205 c 1,33,34
 127 202 127 202 140 188 c 128,-1,35
 153 174 153 174 154 154 c 0,36,37
 154 134 154 134 140.5 119 c 128,-1,38
 127 104 127 104 108 102 c 1,39,40
 127 99 127 99 140 86 c 0,41,42
 153 72 153 72 154 51 c 0,43,44
 154 29 154 29 139 14.5 c 128,-1,45
 124 0 124 0 102 0 c 256,46,47
 80 0 80 0 65.5 15 c 128,-1,48
 51 30 51 30 51 51 c 0,49,50
 51 71 51 71 65 86 c 0,51,52
 77 99 77 99 97 102 c 1,53,54
 77 104 77 104 65 119 c 0,55,56
 52 133 52 133 51 154 c 0,57,58
 51 174 51 174 65 188 c 0,59,60
 77 201 77 201 97 205 c 1,61,62
 77 207 77 207 65 221 c 0,63,64
 52 235 52 235 51 256 c 0,65,66
 51 276 51 276 65 291 c 0,67,68
 77 304 77 304 97 307 c 1,69,70
 77 309 77 309 65 324 c 0,71,72
 52 338 52 338 51 358 c 0,73,74
 51 378 51 378 65 393 c 0,75,76
 77 406 77 406 97 410 c 1,77,78
 77 412 77 412 65 426 c 0,79,80
 52 440 52 440 51 461 c 0,81,82
 51 481 51 481 65 496 c 0,83,84
 77 509 77 509 97 512 c 1,85,86
 77 514 77 514 65 528 c 0,87,88
 52 542 52 542 51 563 c 0,89,90
 51 585 51 585 66 599.5 c 128,-1,91
 81 614 81 614 102 614 c 0,92,93
 124 614 124 614 139 599.5 c 128,-1,94
 154 585 154 585 154 563 c 0,95,96
 154 543 154 543 140.5 528.5 c 128,-1,97
 127 514 127 514 108 512 c 1,98,99
 127 509 127 509 140 496 c 0,100,101
 153 482 153 482 154 461 c 0,102,103
 154 441 154 441 140.5 426.5 c 128,-1,104
 127 412 127 412 108 410 c 1,105,106
 127 407 127 407 140 393 c 128,-1,107
 153 379 153 379 154 358 c 0,108,109
 154 338 154 338 140.5 323.5 c 128,-1,110
 127 309 127 309 108 307 c 1,111,112
 125 304 125 304 138 292 c 0,113,114
 151 279 151 279 154 260 c 1,115,116
 156 280 156 280 170 293.5 c 128,-1,117
 184 307 184 307 205 307 c 0,118,119
 227 307 227 307 241 292 c 0,120,121
 254 279 254 279 256 260 c 1,122,123
 257 278 257 278 270 292 c 0,124,125
 285 307 285 307 307 307 c 256,126,127
 329 307 329 307 343.5 292.5 c 128,-1,128
 358 278 358 278 358 256 c 1,129,130
 358 278 358 278 373 292.5 c 128,-1,131
 388 307 388 307 410 307 c 256,132,133
 432 307 432 307 446.5 292.5 c 128,-1,134
 461 278 461 278 461 256 c 1,135,136
 461 276 461 276 474 291 c 0,137,138
 486 304 486 304 507 307 c 1,139,140
 487 309 487 309 474 324 c 0,141,142
 461 338 461 338 461 358 c 256,143,144
 461 378 461 378 474 393 c 0,145,146
 486 406 486 406 507 410 c 1,147,148
 487 412 487 412 474 426 c 128,-1,149
 461 440 461 440 461 461 c 0,150,151
 461 481 461 481 474 496 c 0,152,153
 486 509 486 509 507 512 c 1,154,155
 487 514 487 514 474 528 c 128,-1,156
 461 542 461 542 461 563 c 0,157,158
 461 585 461 585 475.5 599.5 c 128,-1,159
 490 614 490 614 512 614 c 256,160,161
 534 614 534 614 548.5 599.5 c 128,-1,162
 563 585 563 585 563 563 c 0,163,164
 563 543 563 543 550 528.5 c 128,-1,165
 537 514 537 514 517 512 c 1,166,167
 536 509 536 509 550 496 c 0,168,169
 563 482 563 482 563 461 c 0,170,171
 563 441 563 441 550 426.5 c 128,-1,172
 537 412 537 412 517 410 c 1,173,174
 536 407 536 407 550 393 c 0,175,176
 563 379 563 379 563 358 c 0,177,178
 563 338 563 338 550 323.5 c 128,-1,179
 537 309 537 309 517 307 c 1,180,181
 536 304 536 304 550 291 c 0,182,183
 563 277 563 277 563 256 c 0,184,185
 563 236 563 236 550 221.5 c 128,-1,186
 537 207 537 207 517 205 c 1,187,188
 536 202 536 202 550 188 c 0,189,190
 563 174 563 174 563 154 c 256,191,192
 563 134 563 134 550 119 c 128,-1,193
 537 104 537 104 517 102 c 1,194,195
 536 99 536 99 550 86 c 0,196,197
 563 72 563 72 563 51 c 0,198,199
 563 29 563 29 548.5 14.5 c 128,-1,200
 534 0 534 0 512 0 c 256,201,202
 490 0 490 0 475.5 15 c 128,-1,203
 461 30 461 30 461 51 c 0,204,205
 461 71 461 71 474 86 c 0,206,207
 486 99 486 99 507 102 c 1,208,209
 487 104 487 104 474 119 c 128,-1,210
 461 134 461 134 461 154 c 256,0,1
154 666 m 256,211,212
 154 688 154 688 168.5 702.5 c 128,-1,213
 183 717 183 717 205 717 c 0,214,215
 225 717 225 717 240 703 c 0,216,217
 253 690 253 690 256 671 c 1,218,219
 258 690 258 690 272.5 703.5 c 128,-1,220
 287 717 287 717 307 717 c 0,221,222
 329 717 329 717 343 701 c 0,223,224
 356 688 356 688 358 670 c 1,225,226
 359 688 359 688 373 701 c 0,227,228
 388 716 388 716 410 717 c 0,229,230
 432 717 432 717 446.5 702 c 128,-1,231
 461 687 461 687 461 666 c 0,232,233
 461 644 461 644 446 629 c 128,-1,234
 431 614 431 614 410 614 c 0,235,236
 390 614 390 614 375 628 c 0,237,238
 361 640 361 640 358 660 c 1,239,240
 355 640 355 640 342 628 c 0,241,242
 328 615 328 615 307 614 c 0,243,244
 287 614 287 614 272 628 c 0,245,246
 258 640 258 640 256 660 c 1,247,248
 253 640 253 640 240 628 c 0,249,250
 226 615 226 615 205 614 c 0,251,252
 183 614 183 614 168.5 629 c 128,-1,253
 154 644 154 644 154 666 c 256,211,212
EndSplineSet
EndChar

StartChar: B
Encoding: 66 66 15
Width: 614
VWidth: 1024
Flags: W
LayerCount: 2
Fore
SplineSet
51 666 m 0,0,1
 51 688 51 688 66 702.5 c 128,-1,2
 81 717 81 717 102 717 c 0,3,4
 122 717 122 717 137 703.5 c 128,-1,5
 152 690 152 690 154 670 c 1,6,7
 156 690 156 690 170 703.5 c 128,-1,8
 184 717 184 717 205 717 c 0,9,10
 227 717 227 717 241.5 702 c 128,-1,11
 256 687 256 687 256 666 c 1,12,13
 256 688 256 688 271 702.5 c 128,-1,14
 286 717 286 717 307 717 c 0,15,16
 327 717 327 717 341.5 703.5 c 128,-1,17
 356 690 356 690 358 670 c 1,18,19
 360 690 360 690 374.5 703.5 c 128,-1,20
 389 717 389 717 410 717 c 0,21,22
 432 717 432 717 446.5 702 c 128,-1,23
 461 687 461 687 461 666 c 0,24,25
 461 644 461 644 446 629 c 128,-1,26
 431 614 431 614 410 614 c 0,27,28
 390 614 390 614 375 628 c 0,29,30
 361 640 361 640 358 660 c 1,31,32
 355 640 355 640 342 628 c 0,33,34
 328 615 328 615 307 614 c 0,35,36
 287 614 287 614 272 628 c 0,37,38
 258 640 258 640 256 660 c 1,39,40
 253 640 253 640 240 628 c 0,41,42
 226 615 226 615 205 614 c 0,43,44
 185 614 185 614 170 628 c 0,45,46
 156 640 156 640 154 660 c 1,47,48
 151 641 151 641 138 628.5 c 128,-1,49
 125 616 125 616 108 614 c 1,50,51
 127 611 127 611 140 598 c 0,52,53
 153 584 153 584 154 563 c 0,54,55
 154 543 154 543 140.5 528.5 c 128,-1,56
 127 514 127 514 108 512 c 1,57,58
 127 509 127 509 140 496 c 0,59,60
 153 482 153 482 154 461 c 0,61,62
 154 441 154 441 140.5 426.5 c 128,-1,63
 127 412 127 412 108 410 c 1,64,65
 125 407 125 407 138 394 c 128,-1,66
 151 381 151 381 154 362 c 1,67,68
 156 382 156 382 170 396 c 128,-1,69
 184 410 184 410 205 410 c 0,70,71
 227 410 227 410 241.5 395 c 128,-1,72
 256 380 256 380 256 358 c 1,73,74
 256 380 256 380 271 395 c 128,-1,75
 286 410 286 410 307 410 c 0,76,77
 327 410 327 410 342 396 c 0,78,79
 355 383 355 383 358 364 c 1,80,81
 360 383 360 383 374.5 396.5 c 128,-1,82
 389 410 389 410 410 410 c 0,83,84
 432 410 432 410 446.5 395 c 128,-1,85
 461 380 461 380 461 358 c 256,86,87
 461 336 461 336 446 321.5 c 128,-1,88
 431 307 431 307 410 307 c 0,89,90
 390 307 390 307 375 321 c 0,91,92
 361 333 361 333 358 353 c 1,93,94
 355 333 355 333 342 321 c 0,95,96
 328 308 328 308 307 307 c 0,97,98
 287 307 287 307 272 321 c 0,99,100
 258 333 258 333 256 353 c 1,101,102
 253 333 253 333 240 321 c 0,103,104
 226 308 226 308 205 307 c 0,105,106
 185 307 185 307 170 321 c 0,107,108
 156 333 156 333 154 353 c 1,109,110
 151 334 151 334 138 321.5 c 128,-1,111
 125 309 125 309 108 307 c 1,112,113
 127 304 127 304 140 291 c 0,114,115
 153 277 153 277 154 256 c 0,116,117
 154 236 154 236 140.5 221.5 c 128,-1,118
 127 207 127 207 108 205 c 1,119,120
 127 202 127 202 140 188 c 128,-1,121
 153 174 153 174 154 154 c 0,122,123
 154 134 154 134 140.5 119 c 128,-1,124
 127 104 127 104 108 102 c 1,125,126
 127 99 127 99 140 86 c 0,127,128
 151 73 151 73 154 55 c 1,129,130
 155 73 155 73 168 87 c 0,131,132
 183 102 183 102 205 102 c 0,133,134
 225 102 225 102 239.5 89 c 128,-1,135
 254 76 254 76 256 55 c 1,136,137
 258 75 258 75 272.5 88.5 c 128,-1,138
 287 102 287 102 307 102 c 256,139,140
 327 102 327 102 341.5 89 c 128,-1,141
 356 76 356 76 358 55 c 1,142,143
 360 75 360 75 374.5 88.5 c 128,-1,144
 389 102 389 102 410 102 c 0,145,146
 432 102 432 102 446.5 87.5 c 128,-1,147
 461 73 461 73 461 51 c 256,148,149
 461 29 461 29 446 14.5 c 128,-1,150
 431 0 431 0 410 0 c 0,151,152
 390 0 390 0 375 13 c 0,153,154
 361 25 361 25 358 46 c 1,155,156
 355 26 355 26 342 13 c 0,157,158
 328 0 328 0 307 0 c 0,159,160
 287 0 287 0 272 13 c 0,161,162
 258 25 258 25 256 46 c 1,163,164
 253 26 253 26 240 13 c 0,165,166
 226 0 226 0 205 0 c 0,167,168
 185 0 185 0 170 13 c 0,169,170
 156 25 156 25 154 46 c 1,171,172
 151 26 151 26 137 13 c 128,-1,173
 123 0 123 0 102 0 c 0,174,175
 80 0 80 0 65.5 15 c 128,-1,176
 51 30 51 30 51 51 c 0,177,178
 51 71 51 71 65 86 c 0,179,180
 77 99 77 99 97 102 c 1,181,182
 77 104 77 104 65 119 c 0,183,184
 52 133 52 133 51 154 c 0,185,186
 51 174 51 174 65 188 c 0,187,188
 77 201 77 201 97 205 c 1,189,190
 77 207 77 207 65 221 c 0,191,192
 52 235 52 235 51 256 c 0,193,194
 51 276 51 276 65 291 c 0,195,196
 77 304 77 304 97 307 c 1,197,198
 77 309 77 309 65 324 c 0,199,200
 52 338 52 338 51 358 c 0,201,202
 51 378 51 378 65 393 c 0,203,204
 77 406 77 406 97 410 c 1,205,206
 77 412 77 412 65 426 c 0,207,208
 52 440 52 440 51 461 c 0,209,210
 51 481 51 481 65 496 c 0,211,212
 77 509 77 509 97 512 c 1,213,214
 77 514 77 514 65 528 c 0,215,216
 52 542 52 542 51 563 c 0,217,218
 51 583 51 583 65 598 c 0,219,220
 77 611 77 611 97 614 c 1,221,222
 77 616 77 616 65 631 c 0,223,224
 51 646 51 646 51 666 c 0,0,1
461 563 m 0,225,226
 461 585 461 585 475.5 599.5 c 128,-1,227
 490 614 490 614 512 614 c 256,228,229
 534 614 534 614 548.5 599.5 c 128,-1,230
 563 585 563 585 563 563 c 0,231,232
 563 543 563 543 550 528.5 c 128,-1,233
 537 514 537 514 517 512 c 1,234,235
 536 509 536 509 550 496 c 0,236,237
 563 482 563 482 563 461 c 0,238,239
 563 439 563 439 548.5 424.5 c 128,-1,240
 534 410 534 410 512 410 c 256,241,242
 490 410 490 410 475.5 424.5 c 128,-1,243
 461 439 461 439 461 461 c 0,244,245
 461 481 461 481 474 496 c 0,246,247
 486 509 486 509 507 512 c 1,248,249
 487 514 487 514 474 528 c 0,250,251
 461 543 461 543 461 563 c 0,225,226
461 154 m 0,252,253
 461 174 461 174 474 188 c 0,254,255
 486 201 486 201 507 205 c 1,256,257
 487 207 487 207 474 221 c 128,-1,258
 461 235 461 235 461 256 c 0,259,260
 461 278 461 278 475.5 292.5 c 128,-1,261
 490 307 490 307 512 307 c 256,262,263
 534 307 534 307 548.5 292.5 c 128,-1,264
 563 278 563 278 563 256 c 0,265,266
 563 236 563 236 550 221.5 c 128,-1,267
 537 207 537 207 517 205 c 1,268,269
 536 202 536 202 550 188 c 0,270,271
 563 174 563 174 563 154 c 0,272,273
 563 132 563 132 548.5 117 c 128,-1,274
 534 102 534 102 512 102 c 256,275,276
 490 102 490 102 475.5 117 c 128,-1,277
 461 132 461 132 461 154 c 0,252,253
EndSplineSet
EndChar

StartChar: C
Encoding: 67 67 16
Width: 614
VWidth: 1024
Flags: W
LayerCount: 2
Fore
SplineSet
51 256 m 256,0,1
 51 276 51 276 65 291 c 0,2,3
 77 304 77 304 97 307 c 1,4,5
 77 309 77 309 65 324 c 0,6,7
 52 338 52 338 51 358 c 0,8,9
 51 378 51 378 65 393 c 0,10,11
 77 406 77 406 97 410 c 1,12,13
 77 412 77 412 65 426 c 0,14,15
 52 440 52 440 51 461 c 0,16,17
 51 481 51 481 65 496 c 0,18,19
 77 509 77 509 97 512 c 1,20,21
 77 514 77 514 65 528 c 0,22,23
 52 542 52 542 51 563 c 0,24,25
 51 585 51 585 66 599.5 c 128,-1,26
 81 614 81 614 102 614 c 0,27,28
 124 614 124 614 139 599.5 c 128,-1,29
 154 585 154 585 154 563 c 0,30,31
 154 543 154 543 140.5 528.5 c 128,-1,32
 127 514 127 514 108 512 c 1,33,34
 127 509 127 509 140 496 c 0,35,36
 153 482 153 482 154 461 c 0,37,38
 154 441 154 441 140.5 426.5 c 128,-1,39
 127 412 127 412 108 410 c 1,40,41
 127 407 127 407 140 393 c 128,-1,42
 153 379 153 379 154 358 c 0,43,44
 154 338 154 338 140.5 323.5 c 128,-1,45
 127 309 127 309 108 307 c 1,46,47
 127 304 127 304 140 291 c 0,48,49
 153 277 153 277 154 256 c 0,50,51
 154 236 154 236 140.5 221.5 c 128,-1,52
 127 207 127 207 108 205 c 1,53,54
 127 202 127 202 140 188 c 128,-1,55
 153 174 153 174 154 154 c 0,56,57
 154 132 154 132 139 117 c 128,-1,58
 124 102 124 102 102 102 c 256,59,60
 80 102 80 102 65.5 117 c 128,-1,61
 51 132 51 132 51 154 c 0,62,63
 51 174 51 174 65 188 c 0,64,65
 77 201 77 201 97 205 c 1,66,67
 77 207 77 207 65 221 c 0,68,69
 51 236 51 236 51 256 c 256,0,1
154 51 m 256,70,71
 154 73 154 73 168.5 87.5 c 128,-1,72
 183 102 183 102 205 102 c 0,73,74
 225 102 225 102 239.5 89 c 128,-1,75
 254 76 254 76 256 55 c 1,76,77
 258 75 258 75 272.5 88.5 c 128,-1,78
 287 102 287 102 307 102 c 256,79,80
 327 102 327 102 341.5 89 c 128,-1,81
 356 76 356 76 358 55 c 1,82,83
 360 75 360 75 374.5 88.5 c 128,-1,84
 389 102 389 102 410 102 c 0,85,86
 432 102 432 102 446.5 87.5 c 128,-1,87
 461 73 461 73 461 51 c 256,88,89
 461 29 461 29 446 14.5 c 128,-1,90
 431 0 431 0 410 0 c 0,91,92
 390 0 390 0 375 13 c 0,93,94
 361 25 361 25 358 46 c 1,95,96
 355 26 355 26 342 13 c 0,97,98
 328 0 328 0 307 0 c 0,99,100
 287 0 287 0 272 13 c 0,101,102
 258 25 258 25 256 46 c 1,103,104
 253 26 253 26 240 13 c 0,105,106
 226 0 226 0 205 0 c 0,107,108
 183 0 183 0 168.5 14.5 c 128,-1,109
 154 29 154 29 154 51 c 256,70,71
154 666 m 256,110,111
 154 688 154 688 168.5 702.5 c 128,-1,112
 183 717 183 717 205 717 c 0,113,114
 225 717 225 717 240 703 c 0,115,116
 253 690 253 690 256 671 c 1,117,118
 258 690 258 690 272.5 703.5 c 128,-1,119
 287 717 287 717 307 717 c 256,120,121
 327 717 327 717 342 703 c 0,122,123
 355 690 355 690 358 671 c 1,124,125
 360 690 360 690 374.5 703.5 c 128,-1,126
 389 717 389 717 410 717 c 0,127,128
 432 717 432 717 446.5 702 c 128,-1,129
 461 687 461 687 461 666 c 0,130,131
 461 644 461 644 446 629 c 128,-1,132
 431 614 431 614 410 614 c 0,133,134
 390 614 390 614 375 628 c 0,135,136
 361 640 361 640 358 660 c 1,137,138
 355 640 355 640 342 628 c 0,139,140
 328 615 328 615 307 614 c 0,141,142
 287 614 287 614 272 628 c 0,143,144
 258 640 258 640 256 660 c 1,145,146
 253 640 253 640 240 628 c 0,147,148
 226 615 226 615 205 614 c 0,149,150
 183 614 183 614 168.5 629 c 128,-1,151
 154 644 154 644 154 666 c 256,110,111
461 154 m 256,152,153
 461 176 461 176 475.5 190.5 c 128,-1,154
 490 205 490 205 512 205 c 256,155,156
 534 205 534 205 548.5 190 c 128,-1,157
 563 175 563 175 563 154 c 0,158,159
 563 132 563 132 548.5 117 c 128,-1,160
 534 102 534 102 512 102 c 256,161,162
 490 102 490 102 475.5 117 c 128,-1,163
 461 132 461 132 461 154 c 256,152,153
461 563 m 256,164,165
 461 585 461 585 475.5 599.5 c 128,-1,166
 490 614 490 614 512 614 c 256,167,168
 534 614 534 614 548.5 599.5 c 128,-1,169
 563 585 563 585 563 563 c 256,170,171
 563 541 563 541 548.5 526.5 c 128,-1,172
 534 512 534 512 512 512 c 256,173,174
 490 512 490 512 475.5 526.5 c 128,-1,175
 461 541 461 541 461 563 c 256,164,165
EndSplineSet
EndChar

StartChar: D
Encoding: 68 68 17
Width: 614
VWidth: 1024
Flags: W
LayerCount: 2
Fore
SplineSet
51 666 m 0,0,1
 51 688 51 688 66 702.5 c 128,-1,2
 81 717 81 717 102 717 c 0,3,4
 122 717 122 717 137 703.5 c 128,-1,5
 152 690 152 690 154 670 c 1,6,7
 156 690 156 690 170 703.5 c 128,-1,8
 184 717 184 717 205 717 c 0,9,10
 227 717 227 717 241.5 702 c 128,-1,11
 256 687 256 687 256 666 c 1,12,13
 256 688 256 688 271 702.5 c 128,-1,14
 286 717 286 717 307 717 c 0,15,16
 329 717 329 717 343 701 c 0,17,18
 356 688 356 688 358 670 c 1,19,20
 359 688 359 688 373 701 c 0,21,22
 388 716 388 716 410 717 c 0,23,24
 432 717 432 717 446.5 702 c 128,-1,25
 461 687 461 687 461 666 c 0,26,27
 461 644 461 644 446 629 c 128,-1,28
 431 614 431 614 410 614 c 0,29,30
 390 614 390 614 375 628 c 0,31,32
 361 640 361 640 358 660 c 1,33,34
 355 640 355 640 342 628 c 0,35,36
 328 615 328 615 307 614 c 0,37,38
 287 614 287 614 272 628 c 0,39,40
 258 640 258 640 256 660 c 1,41,42
 253 640 253 640 240 628 c 0,43,44
 226 615 226 615 205 614 c 0,45,46
 185 614 185 614 170 628 c 0,47,48
 156 640 156 640 154 660 c 1,49,50
 151 641 151 641 138 628.5 c 128,-1,51
 125 616 125 616 108 614 c 1,52,53
 127 611 127 611 140 598 c 0,54,55
 153 584 153 584 154 563 c 0,56,57
 154 543 154 543 140.5 528.5 c 128,-1,58
 127 514 127 514 108 512 c 1,59,60
 127 509 127 509 140 496 c 0,61,62
 153 482 153 482 154 461 c 0,63,64
 154 441 154 441 140.5 426.5 c 128,-1,65
 127 412 127 412 108 410 c 1,66,67
 127 407 127 407 140 393 c 128,-1,68
 153 379 153 379 154 358 c 0,69,70
 154 338 154 338 140.5 323.5 c 128,-1,71
 127 309 127 309 108 307 c 1,72,73
 127 304 127 304 140 291 c 0,74,75
 153 277 153 277 154 256 c 0,76,77
 154 236 154 236 140.5 221.5 c 128,-1,78
 127 207 127 207 108 205 c 1,79,80
 127 202 127 202 140 188 c 128,-1,81
 153 174 153 174 154 154 c 0,82,83
 154 134 154 134 140.5 119 c 128,-1,84
 127 104 127 104 108 102 c 1,85,86
 127 99 127 99 140 86 c 0,87,88
 151 73 151 73 154 55 c 1,89,90
 155 73 155 73 168 87 c 0,91,92
 183 102 183 102 205 102 c 256,93,94
 227 102 227 102 241.5 87.5 c 128,-1,95
 256 73 256 73 256 51 c 1,96,97
 256 73 256 73 271 87.5 c 128,-1,98
 286 102 286 102 307 102 c 0,99,100
 329 102 329 102 343 87 c 0,101,102
 356 74 356 74 358 55 c 1,103,104
 359 73 359 73 373 87 c 0,105,106
 388 102 388 102 410 102 c 256,107,108
 432 102 432 102 446.5 87.5 c 128,-1,109
 461 73 461 73 461 51 c 256,110,111
 461 29 461 29 446 14.5 c 128,-1,112
 431 0 431 0 410 0 c 0,113,114
 390 0 390 0 375 13 c 0,115,116
 361 25 361 25 358 46 c 1,117,118
 355 26 355 26 342 13 c 0,119,120
 328 0 328 0 307 0 c 0,121,122
 287 0 287 0 272 13 c 0,123,124
 258 25 258 25 256 46 c 1,125,126
 253 26 253 26 240 13 c 0,127,128
 226 0 226 0 205 0 c 0,129,130
 185 0 185 0 170 13 c 0,131,132
 156 25 156 25 154 46 c 1,133,134
 151 26 151 26 137 13 c 128,-1,135
 123 0 123 0 102 0 c 0,136,137
 80 0 80 0 65.5 15 c 128,-1,138
 51 30 51 30 51 51 c 0,139,140
 51 71 51 71 65 86 c 0,141,142
 77 99 77 99 97 102 c 1,143,144
 77 104 77 104 65 119 c 0,145,146
 52 133 52 133 51 154 c 0,147,148
 51 174 51 174 65 188 c 0,149,150
 77 201 77 201 97 205 c 1,151,152
 77 207 77 207 65 221 c 0,153,154
 52 235 52 235 51 256 c 0,155,156
 51 276 51 276 65 291 c 0,157,158
 77 304 77 304 97 307 c 1,159,160
 77 309 77 309 65 324 c 0,161,162
 52 338 52 338 51 358 c 0,163,164
 51 378 51 378 65 393 c 0,165,166
 77 406 77 406 97 410 c 1,167,168
 77 412 77 412 65 426 c 0,169,170
 52 440 52 440 51 461 c 0,171,172
 51 481 51 481 65 496 c 0,173,174
 77 509 77 509 97 512 c 1,175,176
 77 514 77 514 65 528 c 0,177,178
 52 542 52 542 51 563 c 0,179,180
 51 583 51 583 65 598 c 0,181,182
 77 611 77 611 97 614 c 1,183,184
 77 616 77 616 65 631 c 0,185,186
 51 646 51 646 51 666 c 0,0,1
461 256 m 256,187,188
 461 276 461 276 474 291 c 0,189,190
 486 304 486 304 507 307 c 1,191,192
 487 309 487 309 474 324 c 0,193,194
 461 338 461 338 461 358 c 256,195,196
 461 378 461 378 474 393 c 0,197,198
 486 406 486 406 507 410 c 1,199,200
 487 412 487 412 474 426 c 128,-1,201
 461 440 461 440 461 461 c 0,202,203
 461 481 461 481 474 496 c 0,204,205
 486 509 486 509 507 512 c 1,206,207
 487 514 487 514 474 528 c 128,-1,208
 461 542 461 542 461 563 c 0,209,210
 461 585 461 585 475.5 599.5 c 128,-1,211
 490 614 490 614 512 614 c 256,212,213
 534 614 534 614 548.5 599.5 c 128,-1,214
 563 585 563 585 563 563 c 0,215,216
 563 543 563 543 550 528.5 c 128,-1,217
 537 514 537 514 517 512 c 1,218,219
 536 509 536 509 550 496 c 0,220,221
 563 482 563 482 563 461 c 0,222,223
 563 441 563 441 550 426.5 c 128,-1,224
 537 412 537 412 517 410 c 1,225,226
 536 407 536 407 550 393 c 0,227,228
 563 379 563 379 563 358 c 0,229,230
 563 338 563 338 550 323.5 c 128,-1,231
 537 309 537 309 517 307 c 1,232,233
 536 304 536 304 550 291 c 0,234,235
 563 277 563 277 563 256 c 0,236,237
 563 236 563 236 550 221.5 c 128,-1,238
 537 207 537 207 517 205 c 1,239,240
 536 202 536 202 550 188 c 0,241,242
 563 174 563 174 563 154 c 0,243,244
 563 132 563 132 548.5 117 c 128,-1,245
 534 102 534 102 512 102 c 256,246,247
 490 102 490 102 475.5 117 c 128,-1,248
 461 132 461 132 461 154 c 0,249,250
 461 174 461 174 474 188 c 0,251,252
 486 201 486 201 507 205 c 1,253,254
 487 207 487 207 474 221 c 0,255,256
 461 236 461 236 461 256 c 256,187,188
EndSplineSet
EndChar

StartChar: E
Encoding: 69 69 18
Width: 614
VWidth: 1024
Flags: W
LayerCount: 2
Fore
SplineSet
51 666 m 0,0,1
 51 688 51 688 66 702.5 c 128,-1,2
 81 717 81 717 102 717 c 0,3,4
 122 717 122 717 137 703.5 c 128,-1,5
 152 690 152 690 154 670 c 1,6,7
 156 690 156 690 170 703.5 c 128,-1,8
 184 717 184 717 205 717 c 0,9,10
 227 717 227 717 241.5 702 c 128,-1,11
 256 687 256 687 256 666 c 1,12,13
 256 688 256 688 271 702.5 c 128,-1,14
 286 717 286 717 307 717 c 0,15,16
 329 717 329 717 343 701 c 0,17,18
 356 688 356 688 358 670 c 1,19,20
 359 688 359 688 373 701 c 0,21,22
 388 716 388 716 410 717 c 0,23,24
 430 717 430 717 444.5 703.5 c 128,-1,25
 459 690 459 690 461 670 c 1,26,27
 463 690 463 690 477.5 703.5 c 128,-1,28
 492 717 492 717 512 717 c 0,29,30
 534 717 534 717 548.5 702 c 128,-1,31
 563 687 563 687 563 666 c 0,32,33
 563 644 563 644 548.5 629 c 128,-1,34
 534 614 534 614 512 614 c 0,35,36
 492 614 492 614 477 628 c 0,37,38
 463 640 463 640 461 660 c 1,39,40
 458 640 458 640 444 628 c 0,41,42
 430 615 430 615 410 614 c 0,43,44
 390 614 390 614 375 628 c 0,45,46
 361 640 361 640 358 660 c 1,47,48
 355 640 355 640 342 628 c 0,49,50
 328 615 328 615 307 614 c 0,51,52
 287 614 287 614 272 628 c 0,53,54
 258 640 258 640 256 660 c 1,55,56
 253 640 253 640 240 628 c 0,57,58
 226 615 226 615 205 614 c 0,59,60
 185 614 185 614 170 628 c 0,61,62
 156 640 156 640 154 660 c 1,63,64
 151 641 151 641 138 628.5 c 128,-1,65
 125 616 125 616 108 614 c 1,66,67
 127 611 127 611 140 598 c 0,68,69
 153 584 153 584 154 563 c 0,70,71
 154 543 154 543 140.5 528.5 c 128,-1,72
 127 514 127 514 108 512 c 1,73,74
 127 509 127 509 140 496 c 0,75,76
 153 482 153 482 154 461 c 0,77,78
 154 441 154 441 140.5 426.5 c 128,-1,79
 127 412 127 412 108 410 c 1,80,81
 127 407 127 407 140 393 c 0,82,83
 151 380 151 380 154 362 c 1,84,85
 155 380 155 380 168 394 c 0,86,87
 183 409 183 409 205 410 c 0,88,89
 225 410 225 410 239.5 396.5 c 128,-1,90
 254 383 254 383 256 362 c 1,91,92
 258 382 258 382 272.5 396 c 128,-1,93
 287 410 287 410 307 410 c 0,94,95
 329 410 329 410 343.5 395 c 128,-1,96
 358 380 358 380 358 358 c 1,97,98
 358 380 358 380 373 395 c 128,-1,99
 388 410 388 410 410 410 c 256,100,101
 432 410 432 410 446.5 395 c 128,-1,102
 461 380 461 380 461 358 c 256,103,104
 461 336 461 336 446 321.5 c 128,-1,105
 431 307 431 307 410 307 c 0,106,107
 390 307 390 307 375 321 c 0,108,109
 361 333 361 333 358 353 c 1,110,111
 355 333 355 333 342 321 c 0,112,113
 328 308 328 308 307 307 c 0,114,115
 287 307 287 307 272 321 c 0,116,117
 258 333 258 333 256 353 c 1,118,119
 253 333 253 333 240 321 c 0,120,121
 226 308 226 308 205 307 c 0,122,123
 185 307 185 307 170 321 c 0,124,125
 156 333 156 333 154 353 c 1,126,127
 151 334 151 334 138 321.5 c 128,-1,128
 125 309 125 309 108 307 c 1,129,130
 127 304 127 304 140 291 c 0,131,132
 153 277 153 277 154 256 c 0,133,134
 154 236 154 236 140.5 221.5 c 128,-1,135
 127 207 127 207 108 205 c 1,136,137
 127 202 127 202 140 188 c 128,-1,138
 153 174 153 174 154 154 c 0,139,140
 154 134 154 134 140.5 119 c 128,-1,141
 127 104 127 104 108 102 c 1,142,143
 125 99 125 99 138 86.5 c 128,-1,144
 151 74 151 74 154 56 c 1,145,146
 156 75 156 75 170 88.5 c 128,-1,147
 184 102 184 102 205 102 c 0,148,149
 225 102 225 102 240 89 c 0,150,151
 253 76 253 76 256 56 c 1,152,153
 258 75 258 75 272.5 88.5 c 128,-1,154
 287 102 287 102 307 102 c 256,155,156
 327 102 327 102 341.5 89 c 128,-1,157
 356 76 356 76 358 55 c 1,158,159
 360 75 360 75 374.5 88.5 c 128,-1,160
 389 102 389 102 410 102 c 0,161,162
 430 102 430 102 444.5 89 c 128,-1,163
 459 76 459 76 461 55 c 1,164,165
 463 75 463 75 477.5 88.5 c 128,-1,166
 492 102 492 102 512 102 c 0,167,168
 534 102 534 102 548.5 87.5 c 128,-1,169
 563 73 563 73 563 51 c 256,170,171
 563 29 563 29 548.5 14.5 c 128,-1,172
 534 0 534 0 512 0 c 0,173,174
 492 0 492 0 477 13 c 0,175,176
 463 25 463 25 461 46 c 1,177,178
 458 26 458 26 444 13 c 128,-1,179
 430 0 430 0 410 0 c 256,180,181
 390 0 390 0 375 13 c 0,182,183
 361 25 361 25 358 46 c 1,184,185
 355 26 355 26 342 13 c 0,186,187
 328 0 328 0 307 0 c 0,188,189
 287 0 287 0 272 13 c 0,190,191
 258 25 258 25 256 46 c 1,192,193
 253 26 253 26 240 13 c 0,194,195
 226 0 226 0 205 0 c 0,196,197
 185 0 185 0 170 13 c 0,198,199
 156 25 156 25 154 46 c 1,200,201
 151 26 151 26 137 13 c 128,-1,202
 123 0 123 0 102 0 c 0,203,204
 80 0 80 0 65.5 15 c 128,-1,205
 51 30 51 30 51 51 c 0,206,207
 51 71 51 71 65 86 c 0,208,209
 77 99 77 99 97 102 c 1,210,211
 77 104 77 104 65 119 c 0,212,213
 52 133 52 133 51 154 c 0,214,215
 51 174 51 174 65 188 c 0,216,217
 77 201 77 201 97 205 c 1,218,219
 77 207 77 207 65 221 c 0,220,221
 52 235 52 235 51 256 c 0,222,223
 51 276 51 276 65 291 c 0,224,225
 77 304 77 304 97 307 c 1,226,227
 77 309 77 309 65 324 c 0,228,229
 52 338 52 338 51 358 c 0,230,231
 51 378 51 378 65 393 c 0,232,233
 77 406 77 406 97 410 c 1,234,235
 77 412 77 412 65 426 c 0,236,237
 52 440 52 440 51 461 c 0,238,239
 51 481 51 481 65 496 c 0,240,241
 77 509 77 509 97 512 c 1,242,243
 77 514 77 514 65 528 c 0,244,245
 52 542 52 542 51 563 c 0,246,247
 51 583 51 583 65 598 c 0,248,249
 77 611 77 611 97 614 c 1,250,251
 77 616 77 616 65 631 c 0,252,253
 51 646 51 646 51 666 c 0,0,1
EndSplineSet
EndChar

StartChar: F
Encoding: 70 70 19
Width: 614
VWidth: 1024
Flags: W
LayerCount: 2
Fore
SplineSet
51 666 m 0,0,1
 51 688 51 688 66 702.5 c 128,-1,2
 81 717 81 717 102 717 c 0,3,4
 124 717 124 717 139 702 c 128,-1,5
 154 687 154 687 154 666 c 1,6,7
 154 688 154 688 168.5 702.5 c 128,-1,8
 183 717 183 717 205 717 c 0,9,10
 225 717 225 717 239.5 703.5 c 128,-1,11
 254 690 254 690 256 670 c 1,12,13
 258 690 258 690 272.5 703.5 c 128,-1,14
 287 717 287 717 307 717 c 256,15,16
 327 717 327 717 341.5 703.5 c 128,-1,17
 356 690 356 690 358 670 c 1,18,19
 360 690 360 690 374.5 703.5 c 128,-1,20
 389 717 389 717 410 717 c 0,21,22
 430 717 430 717 444 703 c 0,23,24
 457 690 457 690 461 671 c 1,25,26
 463 690 463 690 477.5 703.5 c 128,-1,27
 492 717 492 717 512 717 c 0,28,29
 534 717 534 717 548.5 702 c 128,-1,30
 563 687 563 687 563 666 c 0,31,32
 563 644 563 644 548.5 629 c 128,-1,33
 534 614 534 614 512 614 c 0,34,35
 492 614 492 614 477 628 c 0,36,37
 463 640 463 640 461 660 c 1,38,39
 458 640 458 640 444 628 c 0,40,41
 430 615 430 615 410 614 c 0,42,43
 390 614 390 614 375 628 c 0,44,45
 361 640 361 640 358 660 c 1,46,47
 355 640 355 640 342 628 c 0,48,49
 328 615 328 615 307 614 c 0,50,51
 287 614 287 614 272 628 c 0,52,53
 258 640 258 640 256 660 c 1,54,55
 253 640 253 640 240 628 c 0,56,57
 226 615 226 615 205 614 c 0,58,59
 185 614 185 614 170 628 c 0,60,61
 156 640 156 640 154 660 c 1,62,63
 151 641 151 641 138 628.5 c 128,-1,64
 125 616 125 616 108 614 c 1,65,66
 127 611 127 611 140 598 c 0,67,68
 153 584 153 584 154 563 c 0,69,70
 154 543 154 543 140.5 528.5 c 128,-1,71
 127 514 127 514 108 512 c 1,72,73
 127 509 127 509 140 496 c 0,74,75
 153 482 153 482 154 461 c 0,76,77
 154 441 154 441 140.5 426.5 c 128,-1,78
 127 412 127 412 108 410 c 1,79,80
 127 407 127 407 140 393 c 128,-1,81
 153 379 153 379 154 358 c 1,82,83
 154 380 154 380 168.5 395 c 128,-1,84
 183 410 183 410 205 410 c 0,85,86
 225 410 225 410 240 396 c 0,87,88
 253 383 253 383 256 364 c 1,89,90
 258 383 258 383 272.5 396.5 c 128,-1,91
 287 410 287 410 307 410 c 256,92,93
 327 410 327 410 342 396 c 0,94,95
 355 383 355 383 358 364 c 1,96,97
 360 383 360 383 374.5 396.5 c 128,-1,98
 389 410 389 410 410 410 c 0,99,100
 432 410 432 410 446.5 395 c 128,-1,101
 461 380 461 380 461 358 c 256,102,103
 461 336 461 336 446 321.5 c 128,-1,104
 431 307 431 307 410 307 c 0,105,106
 390 307 390 307 375 321 c 0,107,108
 361 333 361 333 358 353 c 1,109,110
 355 333 355 333 342 321 c 0,111,112
 328 308 328 308 307 307 c 0,113,114
 287 307 287 307 272 321 c 0,115,116
 258 333 258 333 256 353 c 1,117,118
 253 333 253 333 240 321 c 0,119,120
 226 308 226 308 205 307 c 0,121,122
 185 307 185 307 170 321 c 0,123,124
 156 333 156 333 154 353 c 1,125,126
 151 334 151 334 138 321.5 c 128,-1,127
 125 309 125 309 108 307 c 1,128,129
 127 304 127 304 140 291 c 0,130,131
 153 277 153 277 154 256 c 0,132,133
 154 236 154 236 140.5 221.5 c 128,-1,134
 127 207 127 207 108 205 c 1,135,136
 127 202 127 202 140 188 c 128,-1,137
 153 174 153 174 154 154 c 0,138,139
 154 134 154 134 140.5 119 c 128,-1,140
 127 104 127 104 108 102 c 1,141,142
 127 99 127 99 140 86 c 0,143,144
 153 72 153 72 154 51 c 0,145,146
 154 29 154 29 139 14.5 c 128,-1,147
 124 0 124 0 102 0 c 256,148,149
 80 0 80 0 65.5 15 c 128,-1,150
 51 30 51 30 51 51 c 0,151,152
 51 71 51 71 65 86 c 0,153,154
 77 99 77 99 97 102 c 1,155,156
 77 104 77 104 65 119 c 0,157,158
 52 133 52 133 51 154 c 0,159,160
 51 174 51 174 65 188 c 0,161,162
 77 201 77 201 97 205 c 1,163,164
 77 207 77 207 65 221 c 0,165,166
 52 235 52 235 51 256 c 0,167,168
 51 276 51 276 65 291 c 0,169,170
 77 304 77 304 97 307 c 1,171,172
 77 309 77 309 65 324 c 0,173,174
 52 338 52 338 51 358 c 0,175,176
 51 378 51 378 65 393 c 0,177,178
 77 406 77 406 97 410 c 1,179,180
 77 412 77 412 65 426 c 0,181,182
 52 440 52 440 51 461 c 0,183,184
 51 481 51 481 65 496 c 0,185,186
 77 509 77 509 97 512 c 1,187,188
 77 514 77 514 65 528 c 0,189,190
 52 542 52 542 51 563 c 0,191,192
 51 583 51 583 65 598 c 0,193,194
 77 611 77 611 97 614 c 1,195,196
 77 616 77 616 65 631 c 0,197,198
 51 646 51 646 51 666 c 0,0,1
EndSplineSet
EndChar

StartChar: G
Encoding: 71 71 20
Width: 614
VWidth: 1024
Flags: W
LayerCount: 2
Fore
SplineSet
461 256 m 256,0,1
 461 276 461 276 474 291 c 0,2,3
 486 304 486 304 507 307 c 1,4,5
 488 309 488 309 475.5 321.5 c 128,-1,6
 463 334 463 334 461 353 c 1,7,8
 458 333 458 333 444 321 c 0,9,10
 430 308 430 308 410 307 c 0,11,12
 390 307 390 307 375 321 c 0,13,14
 361 333 361 333 358 353 c 1,15,16
 355 333 355 333 342 321 c 0,17,18
 328 308 328 308 307 307 c 0,19,20
 285 307 285 307 270.5 322 c 128,-1,21
 256 337 256 337 256 358 c 0,22,23
 256 380 256 380 271 395 c 128,-1,24
 286 410 286 410 307 410 c 0,25,26
 329 410 329 410 343 394 c 0,27,28
 356 381 356 381 358 362 c 1,29,30
 359 380 359 380 373 394 c 0,31,32
 388 409 388 409 410 410 c 0,33,34
 432 410 432 410 446.5 395 c 128,-1,35
 461 380 461 380 461 358 c 1,36,37
 461 380 461 380 475.5 395 c 128,-1,38
 490 410 490 410 512 410 c 256,39,40
 534 410 534 410 548.5 395 c 128,-1,41
 563 380 563 380 563 358 c 0,42,43
 563 338 563 338 550 323.5 c 128,-1,44
 537 309 537 309 517 307 c 1,45,46
 536 304 536 304 550 291 c 0,47,48
 563 277 563 277 563 256 c 0,49,50
 563 236 563 236 550 221.5 c 128,-1,51
 537 207 537 207 517 205 c 1,52,53
 536 202 536 202 550 188 c 0,54,55
 563 174 563 174 563 154 c 256,56,57
 563 134 563 134 550 119 c 128,-1,58
 537 104 537 104 517 102 c 1,59,60
 536 99 536 99 550 86 c 0,61,62
 563 72 563 72 563 51 c 0,63,64
 563 29 563 29 548.5 14.5 c 128,-1,65
 534 0 534 0 512 0 c 0,66,67
 492 0 492 0 477 13 c 0,68,69
 463 25 463 25 461 46 c 1,70,71
 458 26 458 26 444 13 c 128,-1,72
 430 0 430 0 410 0 c 256,73,74
 390 0 390 0 375 13 c 0,75,76
 361 25 361 25 358 46 c 1,77,78
 355 26 355 26 342 13 c 0,79,80
 328 0 328 0 307 0 c 0,81,82
 287 0 287 0 272 13 c 0,83,84
 258 25 258 25 256 46 c 1,85,86
 253 26 253 26 240 13 c 0,87,88
 226 0 226 0 205 0 c 0,89,90
 183 0 183 0 168.5 15 c 128,-1,91
 154 30 154 30 154 51 c 0,92,93
 154 73 154 73 168.5 87.5 c 128,-1,94
 183 102 183 102 205 102 c 256,95,96
 227 102 227 102 241 87 c 0,97,98
 254 74 254 74 256 55 c 1,99,100
 257 73 257 73 270 87 c 0,101,102
 285 102 285 102 307 102 c 0,103,104
 327 102 327 102 342 89 c 0,105,106
 355 76 355 76 358 56 c 1,107,108
 360 75 360 75 374.5 88.5 c 128,-1,109
 389 102 389 102 410 102 c 0,110,111
 432 102 432 102 446.5 87.5 c 128,-1,112
 461 73 461 73 461 51 c 1,113,114
 461 71 461 71 474 86 c 0,115,116
 486 99 486 99 507 102 c 1,117,118
 487 104 487 104 474 119 c 0,119,120
 461 133 461 133 461 154 c 0,121,122
 461 174 461 174 474 188 c 0,123,124
 486 201 486 201 507 205 c 1,125,126
 487 207 487 207 474 221 c 0,127,128
 461 236 461 236 461 256 c 256,0,1
51 256 m 256,129,130
 51 276 51 276 65 291 c 0,131,132
 77 304 77 304 97 307 c 1,133,134
 77 309 77 309 65 324 c 0,135,136
 52 338 52 338 51 358 c 0,137,138
 51 378 51 378 65 393 c 0,139,140
 77 406 77 406 97 410 c 1,141,142
 77 412 77 412 65 426 c 0,143,144
 52 440 52 440 51 461 c 0,145,146
 51 481 51 481 65 496 c 0,147,148
 77 509 77 509 97 512 c 1,149,150
 77 514 77 514 65 528 c 0,151,152
 52 542 52 542 51 563 c 0,153,154
 51 585 51 585 66 599.5 c 128,-1,155
 81 614 81 614 102 614 c 0,156,157
 124 614 124 614 139 599.5 c 128,-1,158
 154 585 154 585 154 563 c 0,159,160
 154 543 154 543 140.5 528.5 c 128,-1,161
 127 514 127 514 108 512 c 1,162,163
 127 509 127 509 140 496 c 0,164,165
 153 482 153 482 154 461 c 0,166,167
 154 441 154 441 140.5 426.5 c 128,-1,168
 127 412 127 412 108 410 c 1,169,170
 127 407 127 407 140 393 c 128,-1,171
 153 379 153 379 154 358 c 0,172,173
 154 338 154 338 140.5 323.5 c 128,-1,174
 127 309 127 309 108 307 c 1,175,176
 127 304 127 304 140 291 c 0,177,178
 153 277 153 277 154 256 c 0,179,180
 154 236 154 236 140.5 221.5 c 128,-1,181
 127 207 127 207 108 205 c 1,182,183
 127 202 127 202 140 188 c 128,-1,184
 153 174 153 174 154 154 c 0,185,186
 154 132 154 132 139 117 c 128,-1,187
 124 102 124 102 102 102 c 256,188,189
 80 102 80 102 65.5 117 c 128,-1,190
 51 132 51 132 51 154 c 0,191,192
 51 174 51 174 65 188 c 0,193,194
 77 201 77 201 97 205 c 1,195,196
 77 207 77 207 65 221 c 0,197,198
 51 236 51 236 51 256 c 256,129,130
154 666 m 256,199,200
 154 688 154 688 168.5 702.5 c 128,-1,201
 183 717 183 717 205 717 c 0,202,203
 225 717 225 717 239.5 703.5 c 128,-1,204
 254 690 254 690 256 670 c 1,205,206
 258 690 258 690 272.5 703.5 c 128,-1,207
 287 717 287 717 307 717 c 256,208,209
 327 717 327 717 342 703 c 0,210,211
 355 690 355 690 358 671 c 1,212,213
 360 690 360 690 374.5 703.5 c 128,-1,214
 389 717 389 717 410 717 c 0,215,216
 432 717 432 717 446.5 702 c 128,-1,217
 461 687 461 687 461 666 c 0,218,219
 461 644 461 644 446 629 c 128,-1,220
 431 614 431 614 410 614 c 0,221,222
 390 614 390 614 375 628 c 0,223,224
 361 640 361 640 358 660 c 1,225,226
 355 640 355 640 342 628 c 0,227,228
 328 615 328 615 307 614 c 0,229,230
 287 614 287 614 272 628 c 0,231,232
 258 640 258 640 256 660 c 1,233,234
 253 640 253 640 240 628 c 0,235,236
 226 615 226 615 205 614 c 0,237,238
 183 614 183 614 168.5 629 c 128,-1,239
 154 644 154 644 154 666 c 256,199,200
461 563 m 256,240,241
 461 585 461 585 475.5 599.5 c 128,-1,242
 490 614 490 614 512 614 c 256,243,244
 534 614 534 614 548.5 599.5 c 128,-1,245
 563 585 563 585 563 563 c 256,246,247
 563 541 563 541 548.5 526.5 c 128,-1,248
 534 512 534 512 512 512 c 256,249,250
 490 512 490 512 475.5 526.5 c 128,-1,251
 461 541 461 541 461 563 c 256,240,241
EndSplineSet
EndChar

StartChar: H
Encoding: 72 72 21
Width: 614
VWidth: 1024
Flags: W
LayerCount: 2
Fore
SplineSet
461 256 m 256,0,1
 461 276 461 276 474 291 c 0,2,3
 486 304 486 304 507 307 c 1,4,5
 488 309 488 309 475.5 321.5 c 128,-1,6
 463 334 463 334 461 353 c 1,7,8
 458 333 458 333 444 321 c 0,9,10
 430 308 430 308 410 307 c 0,11,12
 390 307 390 307 375 321 c 0,13,14
 361 333 361 333 358 353 c 1,15,16
 355 333 355 333 342 321 c 0,17,18
 328 308 328 308 307 307 c 0,19,20
 287 307 287 307 272 321 c 0,21,22
 258 333 258 333 256 353 c 1,23,24
 253 333 253 333 240 321 c 0,25,26
 226 308 226 308 205 307 c 0,27,28
 185 307 185 307 170 321 c 0,29,30
 156 333 156 333 154 353 c 1,31,32
 151 334 151 334 138 321.5 c 128,-1,33
 125 309 125 309 108 307 c 1,34,35
 127 304 127 304 140 291 c 0,36,37
 153 277 153 277 154 256 c 0,38,39
 154 236 154 236 140.5 221.5 c 128,-1,40
 127 207 127 207 108 205 c 1,41,42
 127 202 127 202 140 188 c 128,-1,43
 153 174 153 174 154 154 c 0,44,45
 154 134 154 134 140.5 119 c 128,-1,46
 127 104 127 104 108 102 c 1,47,48
 127 99 127 99 140 86 c 0,49,50
 153 72 153 72 154 51 c 0,51,52
 154 29 154 29 139 14.5 c 128,-1,53
 124 0 124 0 102 0 c 256,54,55
 80 0 80 0 65.5 15 c 128,-1,56
 51 30 51 30 51 51 c 0,57,58
 51 71 51 71 65 86 c 0,59,60
 77 99 77 99 97 102 c 1,61,62
 77 104 77 104 65 119 c 0,63,64
 52 133 52 133 51 154 c 0,65,66
 51 174 51 174 65 188 c 0,67,68
 77 201 77 201 97 205 c 1,69,70
 77 207 77 207 65 221 c 0,71,72
 52 235 52 235 51 256 c 0,73,74
 51 276 51 276 65 291 c 0,75,76
 77 304 77 304 97 307 c 1,77,78
 77 309 77 309 65 324 c 0,79,80
 52 338 52 338 51 358 c 0,81,82
 51 378 51 378 65 393 c 0,83,84
 77 406 77 406 97 410 c 1,85,86
 77 412 77 412 65 426 c 0,87,88
 52 440 52 440 51 461 c 0,89,90
 51 481 51 481 65 496 c 0,91,92
 77 509 77 509 97 512 c 1,93,94
 77 514 77 514 65 528 c 0,95,96
 52 542 52 542 51 563 c 0,97,98
 51 583 51 583 65 598 c 0,99,100
 77 611 77 611 97 614 c 1,101,102
 77 616 77 616 65 631 c 0,103,104
 52 645 52 645 51 666 c 0,105,106
 51 688 51 688 66 702.5 c 128,-1,107
 81 717 81 717 102 717 c 0,108,109
 124 717 124 717 139 702 c 128,-1,110
 154 687 154 687 154 666 c 0,111,112
 154 646 154 646 140.5 631 c 128,-1,113
 127 616 127 616 108 614 c 1,114,115
 127 611 127 611 140 598 c 0,116,117
 153 584 153 584 154 563 c 0,118,119
 154 543 154 543 140.5 528.5 c 128,-1,120
 127 514 127 514 108 512 c 1,121,122
 127 509 127 509 140 496 c 0,123,124
 153 482 153 482 154 461 c 0,125,126
 154 441 154 441 140.5 426.5 c 128,-1,127
 127 412 127 412 108 410 c 1,128,129
 127 407 127 407 140 393 c 128,-1,130
 153 379 153 379 154 358 c 1,131,132
 154 380 154 380 168.5 395 c 128,-1,133
 183 410 183 410 205 410 c 0,134,135
 225 410 225 410 239.5 396.5 c 128,-1,136
 254 383 254 383 256 362 c 1,137,138
 258 382 258 382 272.5 396 c 128,-1,139
 287 410 287 410 307 410 c 0,140,141
 329 410 329 410 343.5 395 c 128,-1,142
 358 380 358 380 358 358 c 1,143,144
 358 380 358 380 373 395 c 128,-1,145
 388 410 388 410 410 410 c 256,146,147
 432 410 432 410 446.5 395 c 128,-1,148
 461 380 461 380 461 358 c 1,149,150
 461 378 461 378 474 393 c 0,151,152
 486 406 486 406 507 410 c 1,153,154
 487 412 487 412 474 426 c 128,-1,155
 461 440 461 440 461 461 c 0,156,157
 461 481 461 481 474 496 c 0,158,159
 486 509 486 509 507 512 c 1,160,161
 487 514 487 514 474 528 c 128,-1,162
 461 542 461 542 461 563 c 0,163,164
 461 583 461 583 474 598 c 0,165,166
 486 611 486 611 507 614 c 1,167,168
 487 616 487 616 474 631 c 0,169,170
 461 645 461 645 461 666 c 0,171,172
 461 688 461 688 475.5 702.5 c 128,-1,173
 490 717 490 717 512 717 c 256,174,175
 534 717 534 717 548.5 702 c 128,-1,176
 563 687 563 687 563 666 c 0,177,178
 563 646 563 646 550 631 c 128,-1,179
 537 616 537 616 517 614 c 1,180,181
 536 611 536 611 550 598 c 0,182,183
 563 584 563 584 563 563 c 0,184,185
 563 543 563 543 550 528.5 c 128,-1,186
 537 514 537 514 517 512 c 1,187,188
 536 509 536 509 550 496 c 0,189,190
 563 482 563 482 563 461 c 0,191,192
 563 441 563 441 550 426.5 c 128,-1,193
 537 412 537 412 517 410 c 1,194,195
 536 407 536 407 550 393 c 0,196,197
 563 379 563 379 563 358 c 0,198,199
 563 338 563 338 550 323.5 c 128,-1,200
 537 309 537 309 517 307 c 1,201,202
 536 304 536 304 550 291 c 0,203,204
 563 277 563 277 563 256 c 0,205,206
 563 236 563 236 550 221.5 c 128,-1,207
 537 207 537 207 517 205 c 1,208,209
 536 202 536 202 550 188 c 0,210,211
 563 174 563 174 563 154 c 256,212,213
 563 134 563 134 550 119 c 128,-1,214
 537 104 537 104 517 102 c 1,215,216
 536 99 536 99 550 86 c 0,217,218
 563 72 563 72 563 51 c 0,219,220
 563 29 563 29 548.5 14.5 c 128,-1,221
 534 0 534 0 512 0 c 256,222,223
 490 0 490 0 475.5 15 c 128,-1,224
 461 30 461 30 461 51 c 0,225,226
 461 71 461 71 474 86 c 0,227,228
 486 99 486 99 507 102 c 1,229,230
 487 104 487 104 474 119 c 0,231,232
 461 133 461 133 461 154 c 0,233,234
 461 174 461 174 474 188 c 0,235,236
 486 201 486 201 507 205 c 1,237,238
 487 207 487 207 474 221 c 0,239,240
 461 236 461 236 461 256 c 256,0,1
EndSplineSet
EndChar

StartChar: I
Encoding: 73 73 22
Width: 614
VWidth: 1024
Flags: W
LayerCount: 2
Fore
SplineSet
256 563 m 256,0,1
 256 583 256 583 269 598 c 0,2,3
 281 611 281 611 302 614 c 1,4,5
 283 616 283 616 270.5 628.5 c 128,-1,6
 258 641 258 641 256 660 c 1,7,8
 253 640 253 640 240 628 c 0,9,10
 226 615 226 615 205 614 c 0,11,12
 183 614 183 614 168.5 629 c 128,-1,13
 154 644 154 644 154 666 c 256,14,15
 154 688 154 688 168.5 702.5 c 128,-1,16
 183 717 183 717 205 717 c 256,17,18
 227 717 227 717 241.5 702 c 128,-1,19
 256 687 256 687 256 666 c 1,20,21
 256 688 256 688 271 702.5 c 128,-1,22
 286 717 286 717 307 717 c 0,23,24
 327 717 327 717 342 703 c 0,25,26
 355 690 355 690 358 671 c 1,27,28
 360 690 360 690 374.5 703.5 c 128,-1,29
 389 717 389 717 410 717 c 0,30,31
 432 717 432 717 446.5 702 c 128,-1,32
 461 687 461 687 461 666 c 0,33,34
 461 644 461 644 446 629 c 128,-1,35
 431 614 431 614 410 614 c 0,36,37
 390 614 390 614 375 628 c 0,38,39
 361 640 361 640 358 660 c 1,40,41
 355 641 355 641 342.5 628.5 c 128,-1,42
 330 616 330 616 312 614 c 1,43,44
 331 611 331 611 345 598 c 0,45,46
 358 584 358 584 358 563 c 0,47,48
 358 543 358 543 345 528.5 c 128,-1,49
 332 514 332 514 312 512 c 1,50,51
 331 509 331 509 345 496 c 0,52,53
 358 482 358 482 358 461 c 0,54,55
 358 441 358 441 345 426.5 c 128,-1,56
 332 412 332 412 312 410 c 1,57,58
 331 407 331 407 345 393 c 0,59,60
 358 379 358 379 358 358 c 0,61,62
 358 338 358 338 345 323.5 c 128,-1,63
 332 309 332 309 312 307 c 1,64,65
 331 304 331 304 345 291 c 0,66,67
 358 277 358 277 358 256 c 0,68,69
 358 236 358 236 345 221.5 c 128,-1,70
 332 207 332 207 312 205 c 1,71,72
 331 202 331 202 345 188 c 0,73,74
 358 174 358 174 358 154 c 256,75,76
 358 134 358 134 345 119 c 128,-1,77
 332 104 332 104 312 102 c 1,78,79
 329 99 329 99 343 87 c 0,80,81
 356 74 356 74 358 55 c 1,82,83
 360 75 360 75 374.5 88.5 c 128,-1,84
 389 102 389 102 410 102 c 0,85,86
 432 102 432 102 446.5 87.5 c 128,-1,87
 461 73 461 73 461 51 c 256,88,89
 461 29 461 29 446 14.5 c 128,-1,90
 431 0 431 0 410 0 c 0,91,92
 390 0 390 0 375 13 c 0,93,94
 361 25 361 25 358 46 c 1,95,96
 355 26 355 26 342 13 c 0,97,98
 328 0 328 0 307 0 c 0,99,100
 287 0 287 0 272 13 c 0,101,102
 258 25 258 25 256 46 c 1,103,104
 253 26 253 26 240 13 c 0,105,106
 226 0 226 0 205 0 c 0,107,108
 183 0 183 0 168.5 15 c 128,-1,109
 154 30 154 30 154 51 c 0,110,111
 154 73 154 73 168.5 87.5 c 128,-1,112
 183 102 183 102 205 102 c 0,113,114
 225 102 225 102 239.5 89 c 128,-1,115
 254 76 254 76 256 55 c 1,116,117
 258 73 258 73 270 87 c 0,118,119
 282 99 282 99 302 102 c 1,120,121
 282 104 282 104 269 119 c 0,122,123
 256 133 256 133 256 154 c 0,124,125
 256 174 256 174 269 188 c 0,126,127
 281 201 281 201 302 205 c 1,128,129
 282 207 282 207 269 221 c 128,-1,130
 256 235 256 235 256 256 c 0,131,132
 256 276 256 276 269 291 c 0,133,134
 281 304 281 304 302 307 c 1,135,136
 282 309 282 309 269 324 c 0,137,138
 256 338 256 338 256 358 c 256,139,140
 256 378 256 378 269 393 c 0,141,142
 281 406 281 406 302 410 c 1,143,144
 282 412 282 412 269 426 c 128,-1,145
 256 440 256 440 256 461 c 0,146,147
 256 481 256 481 269 496 c 0,148,149
 281 509 281 509 302 512 c 1,150,151
 282 514 282 514 269 528 c 0,152,153
 256 543 256 543 256 563 c 256,0,1
EndSplineSet
EndChar

StartChar: J
Encoding: 74 74 23
Width: 614
VWidth: 1024
Flags: W
LayerCount: 2
Fore
SplineSet
358 563 m 256,0,1
 358 583 358 583 372 598 c 0,2,3
 384 611 384 611 404 614 c 1,4,5
 385 616 385 616 372.5 628.5 c 128,-1,6
 360 641 360 641 358 660 c 1,7,8
 355 640 355 640 342 628 c 0,9,10
 328 615 328 615 307 614 c 0,11,12
 285 614 285 614 270.5 629 c 128,-1,13
 256 644 256 644 256 666 c 256,14,15
 256 688 256 688 271 702.5 c 128,-1,16
 286 717 286 717 307 717 c 0,17,18
 327 717 327 717 342 703 c 0,19,20
 355 690 355 690 358 671 c 1,21,22
 360 690 360 690 374.5 703.5 c 128,-1,23
 389 717 389 717 410 717 c 0,24,25
 432 717 432 717 446.5 702 c 128,-1,26
 461 687 461 687 461 666 c 1,27,28
 461 688 461 688 475.5 702.5 c 128,-1,29
 490 717 490 717 512 717 c 256,30,31
 534 717 534 717 548.5 702 c 128,-1,32
 563 687 563 687 563 666 c 0,33,34
 563 644 563 644 548.5 629 c 128,-1,35
 534 614 534 614 512 614 c 0,36,37
 492 614 492 614 477 628 c 0,38,39
 463 640 463 640 461 660 c 1,40,41
 458 641 458 641 445 628.5 c 128,-1,42
 432 616 432 616 415 614 c 1,43,44
 434 611 434 611 447 598 c 0,45,46
 460 584 460 584 461 563 c 0,47,48
 461 543 461 543 447.5 528.5 c 128,-1,49
 434 514 434 514 415 512 c 1,50,51
 434 509 434 509 447 496 c 0,52,53
 460 482 460 482 461 461 c 0,54,55
 461 441 461 441 447.5 426.5 c 128,-1,56
 434 412 434 412 415 410 c 1,57,58
 434 407 434 407 447 393 c 128,-1,59
 460 379 460 379 461 358 c 0,60,61
 461 338 461 338 447.5 323.5 c 128,-1,62
 434 309 434 309 415 307 c 1,63,64
 434 304 434 304 447 291 c 0,65,66
 460 277 460 277 461 256 c 0,67,68
 461 236 461 236 447.5 221.5 c 128,-1,69
 434 207 434 207 415 205 c 1,70,71
 434 202 434 202 447 188 c 128,-1,72
 460 174 460 174 461 154 c 0,73,74
 461 132 461 132 446 117 c 128,-1,75
 431 102 431 102 410 102 c 0,76,77
 388 102 388 102 373 117 c 128,-1,78
 358 132 358 132 358 154 c 0,79,80
 358 174 358 174 372 188 c 0,81,82
 384 201 384 201 404 205 c 1,83,84
 384 207 384 207 372 221 c 0,85,86
 359 235 359 235 358 256 c 0,87,88
 358 276 358 276 372 291 c 0,89,90
 384 304 384 304 404 307 c 1,91,92
 384 309 384 309 372 324 c 0,93,94
 359 338 359 338 358 358 c 0,95,96
 358 378 358 378 372 393 c 0,97,98
 384 406 384 406 404 410 c 1,99,100
 384 412 384 412 372 426 c 0,101,102
 359 440 359 440 358 461 c 0,103,104
 358 481 358 481 372 496 c 0,105,106
 384 509 384 509 404 512 c 1,107,108
 384 514 384 514 372 528 c 0,109,110
 358 543 358 543 358 563 c 256,0,1
154 51 m 256,111,112
 154 73 154 73 168.5 87.5 c 128,-1,113
 183 102 183 102 205 102 c 256,114,115
 227 102 227 102 241 87 c 0,116,117
 254 74 254 74 256 55 c 1,118,119
 257 73 257 73 270 87 c 0,120,121
 285 102 285 102 307 102 c 256,122,123
 329 102 329 102 343.5 87.5 c 128,-1,124
 358 73 358 73 358 51 c 256,125,126
 358 29 358 29 343.5 14.5 c 128,-1,127
 329 0 329 0 307 0 c 0,128,129
 287 0 287 0 272 13 c 0,130,131
 258 25 258 25 256 46 c 1,132,133
 253 26 253 26 240 13 c 0,134,135
 226 0 226 0 205 0 c 0,136,137
 183 0 183 0 168.5 14.5 c 128,-1,138
 154 29 154 29 154 51 c 256,111,112
51 154 m 256,139,140
 51 176 51 176 66 190.5 c 128,-1,141
 81 205 81 205 102 205 c 0,142,143
 124 205 124 205 139 190 c 128,-1,144
 154 175 154 175 154 154 c 0,145,146
 154 132 154 132 139 117 c 128,-1,147
 124 102 124 102 102 102 c 256,148,149
 80 102 80 102 65.5 117 c 128,-1,150
 51 132 51 132 51 154 c 256,139,140
EndSplineSet
EndChar

StartChar: K
Encoding: 75 75 24
Width: 614
VWidth: 1024
Flags: W
LayerCount: 2
Fore
SplineSet
51 563 m 256,0,1
 51 583 51 583 65 598 c 0,2,3
 77 611 77 611 97 614 c 1,4,5
 77 616 77 616 65 631 c 0,6,7
 52 645 52 645 51 666 c 0,8,9
 51 688 51 688 66 702.5 c 128,-1,10
 81 717 81 717 102 717 c 0,11,12
 124 717 124 717 139 702 c 128,-1,13
 154 687 154 687 154 666 c 0,14,15
 154 646 154 646 140.5 631 c 128,-1,16
 127 616 127 616 108 614 c 1,17,18
 127 611 127 611 140 598 c 0,19,20
 153 584 153 584 154 563 c 0,21,22
 154 543 154 543 140.5 528.5 c 128,-1,23
 127 514 127 514 108 512 c 1,24,25
 127 509 127 509 140 496 c 0,26,27
 153 482 153 482 154 461 c 0,28,29
 154 441 154 441 140.5 426.5 c 128,-1,30
 127 412 127 412 108 410 c 1,31,32
 125 407 125 407 138 394 c 128,-1,33
 151 381 151 381 154 364 c 1,34,35
 156 383 156 383 170 396.5 c 128,-1,36
 184 410 184 410 205 410 c 0,37,38
 227 410 227 410 241.5 395 c 128,-1,39
 256 380 256 380 256 358 c 256,40,41
 256 336 256 336 241 321.5 c 128,-1,42
 226 307 226 307 205 307 c 0,43,44
 185 307 185 307 170 321 c 0,45,46
 156 333 156 333 154 353 c 1,47,48
 151 334 151 334 138 321.5 c 128,-1,49
 125 309 125 309 108 307 c 1,50,51
 127 304 127 304 140 291 c 0,52,53
 153 277 153 277 154 256 c 0,54,55
 154 236 154 236 140.5 221.5 c 128,-1,56
 127 207 127 207 108 205 c 1,57,58
 127 202 127 202 140 188 c 128,-1,59
 153 174 153 174 154 154 c 0,60,61
 154 134 154 134 140.5 119 c 128,-1,62
 127 104 127 104 108 102 c 1,63,64
 127 99 127 99 140 86 c 0,65,66
 153 72 153 72 154 51 c 0,67,68
 154 29 154 29 139 14.5 c 128,-1,69
 124 0 124 0 102 0 c 256,70,71
 80 0 80 0 65.5 15 c 128,-1,72
 51 30 51 30 51 51 c 0,73,74
 51 71 51 71 65 86 c 0,75,76
 77 99 77 99 97 102 c 1,77,78
 77 104 77 104 65 119 c 0,79,80
 52 133 52 133 51 154 c 0,81,82
 51 174 51 174 65 188 c 0,83,84
 77 201 77 201 97 205 c 1,85,86
 77 207 77 207 65 221 c 0,87,88
 52 235 52 235 51 256 c 0,89,90
 51 276 51 276 65 291 c 0,91,92
 77 304 77 304 97 307 c 1,93,94
 77 309 77 309 65 324 c 0,95,96
 52 338 52 338 51 358 c 0,97,98
 51 378 51 378 65 393 c 0,99,100
 77 406 77 406 97 410 c 1,101,102
 77 412 77 412 65 426 c 0,103,104
 52 440 52 440 51 461 c 0,105,106
 51 481 51 481 65 496 c 0,107,108
 77 509 77 509 97 512 c 1,109,110
 77 514 77 514 65 528 c 0,111,112
 51 543 51 543 51 563 c 256,0,1
461 51 m 256,113,114
 461 73 461 73 475.5 87.5 c 128,-1,115
 490 102 490 102 512 102 c 256,116,117
 534 102 534 102 548.5 87.5 c 128,-1,118
 563 73 563 73 563 51 c 256,119,120
 563 29 563 29 548.5 14.5 c 128,-1,121
 534 0 534 0 512 0 c 256,122,123
 490 0 490 0 475.5 14.5 c 128,-1,124
 461 29 461 29 461 51 c 256,113,114
256 461 m 256,125,126
 256 483 256 483 271 497.5 c 128,-1,127
 286 512 286 512 307 512 c 0,128,129
 329 512 329 512 343.5 497 c 128,-1,130
 358 482 358 482 358 461 c 0,131,132
 358 439 358 439 343.5 424.5 c 128,-1,133
 329 410 329 410 307 410 c 256,134,135
 285 410 285 410 270.5 424.5 c 128,-1,136
 256 439 256 439 256 461 c 256,125,126
358 154 m 256,137,138
 358 176 358 176 373 190.5 c 128,-1,139
 388 205 388 205 410 205 c 256,140,141
 432 205 432 205 446.5 190 c 128,-1,142
 461 175 461 175 461 154 c 0,143,144
 461 132 461 132 446 117 c 128,-1,145
 431 102 431 102 410 102 c 0,146,147
 388 102 388 102 373 117 c 128,-1,148
 358 132 358 132 358 154 c 256,137,138
358 563 m 256,149,150
 358 585 358 585 373 599.5 c 128,-1,151
 388 614 388 614 410 614 c 256,152,153
 432 614 432 614 446.5 599.5 c 128,-1,154
 461 585 461 585 461 563 c 256,155,156
 461 541 461 541 446 526.5 c 128,-1,157
 431 512 431 512 410 512 c 0,158,159
 388 512 388 512 373 526.5 c 128,-1,160
 358 541 358 541 358 563 c 256,149,150
461 666 m 256,161,162
 461 688 461 688 475.5 702.5 c 128,-1,163
 490 717 490 717 512 717 c 256,164,165
 534 717 534 717 548.5 702 c 128,-1,166
 563 687 563 687 563 666 c 0,167,168
 563 644 563 644 548.5 629 c 128,-1,169
 534 614 534 614 512 614 c 256,170,171
 490 614 490 614 475.5 629 c 128,-1,172
 461 644 461 644 461 666 c 256,161,162
256 256 m 256,173,174
 256 278 256 278 271 292.5 c 128,-1,175
 286 307 286 307 307 307 c 0,176,177
 332 307 332 307 344.5 291 c 128,-1,178
 357 275 357 275 357 256 c 128,-1,179
 357 237 357 237 344.5 221 c 128,-1,180
 332 205 332 205 307 205 c 0,181,182
 285 205 285 205 270.5 219.5 c 128,-1,183
 256 234 256 234 256 256 c 256,173,174
EndSplineSet
EndChar

StartChar: L
Encoding: 76 76 25
Width: 614
VWidth: 1024
Flags: W
LayerCount: 2
Fore
SplineSet
51 666 m 0,0,1
 51 688 51 688 66 702.5 c 128,-1,2
 81 717 81 717 102 717 c 0,3,4
 124 717 124 717 139 702 c 128,-1,5
 154 687 154 687 154 666 c 0,6,7
 154 646 154 646 140.5 631 c 128,-1,8
 127 616 127 616 108 614 c 1,9,10
 127 611 127 611 140 598 c 0,11,12
 153 584 153 584 154 563 c 0,13,14
 154 543 154 543 140.5 528.5 c 128,-1,15
 127 514 127 514 108 512 c 1,16,17
 127 509 127 509 140 496 c 0,18,19
 153 482 153 482 154 461 c 0,20,21
 154 441 154 441 140.5 426.5 c 128,-1,22
 127 412 127 412 108 410 c 1,23,24
 127 407 127 407 140 393 c 128,-1,25
 153 379 153 379 154 358 c 0,26,27
 154 338 154 338 140.5 323.5 c 128,-1,28
 127 309 127 309 108 307 c 1,29,30
 127 304 127 304 140 291 c 0,31,32
 153 277 153 277 154 256 c 0,33,34
 154 236 154 236 140.5 221.5 c 128,-1,35
 127 207 127 207 108 205 c 1,36,37
 127 202 127 202 140 188 c 128,-1,38
 153 174 153 174 154 154 c 0,39,40
 154 134 154 134 140.5 119 c 128,-1,41
 127 104 127 104 108 102 c 1,42,43
 127 99 127 99 140 86 c 0,44,45
 153 72 153 72 154 51 c 1,46,47
 154 73 154 73 168.5 87.5 c 128,-1,48
 183 102 183 102 205 102 c 0,49,50
 225 102 225 102 239.5 89 c 128,-1,51
 254 76 254 76 256 55 c 1,52,53
 258 75 258 75 272.5 88.5 c 128,-1,54
 287 102 287 102 307 102 c 0,55,56
 329 102 329 102 343.5 87.5 c 128,-1,57
 358 73 358 73 358 51 c 1,58,59
 358 73 358 73 373 87.5 c 128,-1,60
 388 102 388 102 410 102 c 256,61,62
 432 102 432 102 446.5 87.5 c 128,-1,63
 461 73 461 73 461 51 c 1,64,65
 461 73 461 73 475.5 87.5 c 128,-1,66
 490 102 490 102 512 102 c 256,67,68
 534 102 534 102 548.5 87.5 c 128,-1,69
 563 73 563 73 563 51 c 256,70,71
 563 29 563 29 548.5 14.5 c 128,-1,72
 534 0 534 0 512 0 c 0,73,74
 492 0 492 0 477 13 c 0,75,76
 463 25 463 25 461 46 c 1,77,78
 458 26 458 26 444 13 c 128,-1,79
 430 0 430 0 410 0 c 256,80,81
 390 0 390 0 375 13 c 0,82,83
 361 25 361 25 358 46 c 1,84,85
 355 26 355 26 342 13 c 0,86,87
 328 0 328 0 307 0 c 0,88,89
 287 0 287 0 272 13 c 0,90,91
 258 25 258 25 256 46 c 1,92,93
 253 26 253 26 240 13 c 0,94,95
 226 0 226 0 205 0 c 0,96,97
 185 0 185 0 170 13 c 0,98,99
 156 25 156 25 154 46 c 1,100,101
 151 26 151 26 137 13 c 128,-1,102
 123 0 123 0 102 0 c 0,103,104
 80 0 80 0 65.5 15 c 128,-1,105
 51 30 51 30 51 51 c 0,106,107
 51 71 51 71 65 86 c 0,108,109
 77 99 77 99 97 102 c 1,110,111
 77 104 77 104 65 119 c 0,112,113
 52 133 52 133 51 154 c 0,114,115
 51 174 51 174 65 188 c 0,116,117
 77 201 77 201 97 205 c 1,118,119
 77 207 77 207 65 221 c 0,120,121
 52 235 52 235 51 256 c 0,122,123
 51 276 51 276 65 291 c 0,124,125
 77 304 77 304 97 307 c 1,126,127
 77 309 77 309 65 324 c 0,128,129
 52 338 52 338 51 358 c 0,130,131
 51 378 51 378 65 393 c 0,132,133
 77 406 77 406 97 410 c 1,134,135
 77 412 77 412 65 426 c 0,136,137
 52 440 52 440 51 461 c 0,138,139
 51 481 51 481 65 496 c 0,140,141
 77 509 77 509 97 512 c 1,142,143
 77 514 77 514 65 528 c 0,144,145
 52 542 52 542 51 563 c 0,146,147
 51 583 51 583 65 598 c 0,148,149
 77 611 77 611 97 614 c 1,150,151
 77 616 77 616 65 631 c 0,152,153
 51 646 51 646 51 666 c 0,0,1
EndSplineSet
EndChar

StartChar: M
Encoding: 77 77 26
Width: 614
VWidth: 1024
Flags: W
LayerCount: 2
Fore
SplineSet
461 461 m 256,0,1
 461 481 461 481 474 496 c 0,2,3
 486 509 486 509 507 512 c 1,4,5
 488 514 488 514 475.5 526.5 c 128,-1,6
 463 539 463 539 461 558 c 1,7,8
 458 538 458 538 444 525 c 128,-1,9
 430 512 430 512 410 512 c 0,10,11
 388 512 388 512 373 527 c 128,-1,12
 358 542 358 542 358 563 c 0,13,14
 358 585 358 585 373 599.5 c 128,-1,15
 388 614 388 614 410 614 c 256,16,17
 432 614 432 614 445 599 c 0,18,19
 458 586 458 586 461 567 c 1,20,21
 462 584 462 584 474 598 c 0,22,23
 486 611 486 611 507 614 c 1,24,25
 487 616 487 616 474 631 c 0,26,27
 461 645 461 645 461 666 c 0,28,29
 461 688 461 688 475.5 702.5 c 128,-1,30
 490 717 490 717 512 717 c 256,31,32
 534 717 534 717 548.5 702 c 128,-1,33
 563 687 563 687 563 666 c 0,34,35
 563 646 563 646 550 631 c 128,-1,36
 537 616 537 616 517 614 c 1,37,38
 536 611 536 611 550 598 c 0,39,40
 563 584 563 584 563 563 c 0,41,42
 563 543 563 543 550 528.5 c 128,-1,43
 537 514 537 514 517 512 c 1,44,45
 536 509 536 509 550 496 c 0,46,47
 563 482 563 482 563 461 c 0,48,49
 563 441 563 441 550 426.5 c 128,-1,50
 537 412 537 412 517 410 c 1,51,52
 536 407 536 407 550 393 c 0,53,54
 563 379 563 379 563 358 c 0,55,56
 563 338 563 338 550 323.5 c 128,-1,57
 537 309 537 309 517 307 c 1,58,59
 536 304 536 304 550 291 c 0,60,61
 563 277 563 277 563 256 c 0,62,63
 563 236 563 236 550 221.5 c 128,-1,64
 537 207 537 207 517 205 c 1,65,66
 536 202 536 202 550 188 c 0,67,68
 563 174 563 174 563 154 c 256,69,70
 563 134 563 134 550 119 c 128,-1,71
 537 104 537 104 517 102 c 1,72,73
 536 99 536 99 550 86 c 0,74,75
 563 72 563 72 563 51 c 0,76,77
 563 29 563 29 548.5 14.5 c 128,-1,78
 534 0 534 0 512 0 c 256,79,80
 490 0 490 0 475.5 15 c 128,-1,81
 461 30 461 30 461 51 c 0,82,83
 461 71 461 71 474 86 c 0,84,85
 486 99 486 99 507 102 c 1,86,87
 487 104 487 104 474 119 c 0,88,89
 461 133 461 133 461 154 c 0,90,91
 461 174 461 174 474 188 c 0,92,93
 486 201 486 201 507 205 c 1,94,95
 487 207 487 207 474 221 c 128,-1,96
 461 235 461 235 461 256 c 0,97,98
 461 276 461 276 474 291 c 0,99,100
 486 304 486 304 507 307 c 1,101,102
 487 309 487 309 474 324 c 0,103,104
 461 338 461 338 461 358 c 256,105,106
 461 378 461 378 474 393 c 0,107,108
 486 406 486 406 507 410 c 1,109,110
 487 412 487 412 474 426 c 0,111,112
 461 441 461 441 461 461 c 256,0,1
51 563 m 256,113,114
 51 583 51 583 65 598 c 0,115,116
 77 611 77 611 97 614 c 1,117,118
 77 616 77 616 65 631 c 0,119,120
 52 645 52 645 51 666 c 0,121,122
 51 688 51 688 66 702.5 c 128,-1,123
 81 717 81 717 102 717 c 0,124,125
 124 717 124 717 139 702 c 128,-1,126
 154 687 154 687 154 666 c 0,127,128
 154 646 154 646 140.5 631 c 128,-1,129
 127 616 127 616 108 614 c 1,130,131
 127 611 127 611 140 598 c 0,132,133
 151 585 151 585 154 567 c 1,134,135
 155 585 155 585 168 599 c 0,136,137
 183 614 183 614 205 614 c 256,138,139
 227 614 227 614 241.5 599.5 c 128,-1,140
 256 585 256 585 256 563 c 256,141,142
 256 541 256 541 241 526.5 c 128,-1,143
 226 512 226 512 205 512 c 0,144,145
 185 512 185 512 170 525 c 0,146,147
 156 537 156 537 154 558 c 1,148,149
 151 539 151 539 138 526.5 c 128,-1,150
 125 514 125 514 108 512 c 1,151,152
 127 509 127 509 140 496 c 0,153,154
 153 482 153 482 154 461 c 0,155,156
 154 441 154 441 140.5 426.5 c 128,-1,157
 127 412 127 412 108 410 c 1,158,159
 127 407 127 407 140 393 c 128,-1,160
 153 379 153 379 154 358 c 0,161,162
 154 338 154 338 140.5 323.5 c 128,-1,163
 127 309 127 309 108 307 c 1,164,165
 127 304 127 304 140 291 c 0,166,167
 153 277 153 277 154 256 c 0,168,169
 154 236 154 236 140.5 221.5 c 128,-1,170
 127 207 127 207 108 205 c 1,171,172
 127 202 127 202 140 188 c 128,-1,173
 153 174 153 174 154 154 c 0,174,175
 154 134 154 134 140.5 119 c 128,-1,176
 127 104 127 104 108 102 c 1,177,178
 127 99 127 99 140 86 c 0,179,180
 153 72 153 72 154 51 c 0,181,182
 154 29 154 29 139 14.5 c 128,-1,183
 124 0 124 0 102 0 c 256,184,185
 80 0 80 0 65.5 15 c 128,-1,186
 51 30 51 30 51 51 c 0,187,188
 51 71 51 71 65 86 c 0,189,190
 77 99 77 99 97 102 c 1,191,192
 77 104 77 104 65 119 c 0,193,194
 52 133 52 133 51 154 c 0,195,196
 51 174 51 174 65 188 c 0,197,198
 77 201 77 201 97 205 c 1,199,200
 77 207 77 207 65 221 c 0,201,202
 52 235 52 235 51 256 c 0,203,204
 51 276 51 276 65 291 c 0,205,206
 77 304 77 304 97 307 c 1,207,208
 77 309 77 309 65 324 c 0,209,210
 52 338 52 338 51 358 c 0,211,212
 51 378 51 378 65 393 c 0,213,214
 77 406 77 406 97 410 c 1,215,216
 77 412 77 412 65 426 c 0,217,218
 52 440 52 440 51 461 c 0,219,220
 51 481 51 481 65 496 c 0,221,222
 77 509 77 509 97 512 c 1,223,224
 77 514 77 514 65 528 c 0,225,226
 51 543 51 543 51 563 c 256,113,114
256 461 m 256,227,228
 256 483 256 483 271 497.5 c 128,-1,229
 286 512 286 512 307 512 c 0,230,231
 329 512 329 512 343.5 497 c 128,-1,232
 358 482 358 482 358 461 c 0,233,234
 358 439 358 439 343.5 424.5 c 128,-1,235
 329 410 329 410 307 410 c 256,236,237
 285 410 285 410 270.5 424.5 c 128,-1,238
 256 439 256 439 256 461 c 256,227,228
EndSplineSet
EndChar

StartChar: N
Encoding: 78 78 27
Width: 614
VWidth: 1024
Flags: W
LayerCount: 2
Fore
SplineSet
461 51 m 0,0,1
 461 71 461 71 474 86 c 0,2,3
 486 99 486 99 507 102 c 1,4,5
 488 104 488 104 475.5 116.5 c 128,-1,6
 463 129 463 129 461 148 c 1,7,8
 458 128 458 128 444 116 c 0,9,10
 430 103 430 103 410 102 c 0,11,12
 388 102 388 102 373 117 c 128,-1,13
 358 132 358 132 358 154 c 256,14,15
 358 176 358 176 373 190.5 c 128,-1,16
 388 205 388 205 410 205 c 256,17,18
 432 205 432 205 446.5 190 c 128,-1,19
 461 175 461 175 461 154 c 1,20,21
 461 174 461 174 474 188 c 0,22,23
 486 201 486 201 507 205 c 1,24,25
 487 207 487 207 474 221 c 128,-1,26
 461 235 461 235 461 256 c 0,27,28
 461 276 461 276 474 291 c 0,29,30
 486 304 486 304 507 307 c 1,31,32
 487 309 487 309 474 324 c 0,33,34
 461 338 461 338 461 358 c 256,35,36
 461 378 461 378 474 393 c 0,37,38
 486 406 486 406 507 410 c 1,39,40
 487 412 487 412 474 426 c 128,-1,41
 461 440 461 440 461 461 c 0,42,43
 461 481 461 481 474 496 c 0,44,45
 486 509 486 509 507 512 c 1,46,47
 487 514 487 514 474 528 c 128,-1,48
 461 542 461 542 461 563 c 0,49,50
 461 583 461 583 474 598 c 0,51,52
 486 611 486 611 507 614 c 1,53,54
 487 616 487 616 474 631 c 0,55,56
 461 645 461 645 461 666 c 0,57,58
 461 688 461 688 475.5 702.5 c 128,-1,59
 490 717 490 717 512 717 c 256,60,61
 534 717 534 717 548.5 702 c 128,-1,62
 563 687 563 687 563 666 c 0,63,64
 563 646 563 646 550 631 c 128,-1,65
 537 616 537 616 517 614 c 1,66,67
 536 611 536 611 550 598 c 0,68,69
 563 584 563 584 563 563 c 0,70,71
 563 543 563 543 550 528.5 c 128,-1,72
 537 514 537 514 517 512 c 1,73,74
 536 509 536 509 550 496 c 0,75,76
 563 482 563 482 563 461 c 0,77,78
 563 441 563 441 550 426.5 c 128,-1,79
 537 412 537 412 517 410 c 1,80,81
 536 407 536 407 550 393 c 0,82,83
 563 379 563 379 563 358 c 0,84,85
 563 338 563 338 550 323.5 c 128,-1,86
 537 309 537 309 517 307 c 1,87,88
 536 304 536 304 550 291 c 0,89,90
 563 277 563 277 563 256 c 0,91,92
 563 236 563 236 550 221.5 c 128,-1,93
 537 207 537 207 517 205 c 1,94,95
 536 202 536 202 550 188 c 0,96,97
 563 174 563 174 563 154 c 256,98,99
 563 134 563 134 550 119 c 128,-1,100
 537 104 537 104 517 102 c 1,101,102
 536 99 536 99 550 86 c 0,103,104
 563 72 563 72 563 51 c 0,105,106
 563 29 563 29 548.5 14.5 c 128,-1,107
 534 0 534 0 512 0 c 256,108,109
 490 0 490 0 475.5 14.5 c 128,-1,110
 461 29 461 29 461 51 c 0,0,1
51 563 m 256,111,112
 51 583 51 583 65 598 c 0,113,114
 77 611 77 611 97 614 c 1,115,116
 77 616 77 616 65 631 c 0,117,118
 52 645 52 645 51 666 c 0,119,120
 51 688 51 688 66 702.5 c 128,-1,121
 81 717 81 717 102 717 c 0,122,123
 124 717 124 717 139 702 c 128,-1,124
 154 687 154 687 154 666 c 0,125,126
 154 646 154 646 140.5 631 c 128,-1,127
 127 616 127 616 108 614 c 1,128,129
 125 611 125 611 138 598.5 c 128,-1,130
 151 586 151 586 154 568 c 1,131,132
 156 587 156 587 170 600.5 c 128,-1,133
 184 614 184 614 205 614 c 0,134,135
 227 614 227 614 241.5 599.5 c 128,-1,136
 256 585 256 585 256 563 c 256,137,138
 256 541 256 541 241 526.5 c 128,-1,139
 226 512 226 512 205 512 c 0,140,141
 185 512 185 512 170 525 c 0,142,143
 156 537 156 537 154 558 c 1,144,145
 151 539 151 539 138 526.5 c 128,-1,146
 125 514 125 514 108 512 c 1,147,148
 127 509 127 509 140 496 c 0,149,150
 153 482 153 482 154 461 c 0,151,152
 154 441 154 441 140.5 426.5 c 128,-1,153
 127 412 127 412 108 410 c 1,154,155
 127 407 127 407 140 393 c 128,-1,156
 153 379 153 379 154 358 c 0,157,158
 154 338 154 338 140.5 323.5 c 128,-1,159
 127 309 127 309 108 307 c 1,160,161
 127 304 127 304 140 291 c 0,162,163
 153 277 153 277 154 256 c 0,164,165
 154 236 154 236 140.5 221.5 c 128,-1,166
 127 207 127 207 108 205 c 1,167,168
 127 202 127 202 140 188 c 128,-1,169
 153 174 153 174 154 154 c 0,170,171
 154 134 154 134 140.5 119 c 128,-1,172
 127 104 127 104 108 102 c 1,173,174
 127 99 127 99 140 86 c 0,175,176
 153 72 153 72 154 51 c 0,177,178
 154 29 154 29 139 14.5 c 128,-1,179
 124 0 124 0 102 0 c 256,180,181
 80 0 80 0 65.5 15 c 128,-1,182
 51 30 51 30 51 51 c 0,183,184
 51 71 51 71 65 86 c 0,185,186
 77 99 77 99 97 102 c 1,187,188
 77 104 77 104 65 119 c 0,189,190
 52 133 52 133 51 154 c 0,191,192
 51 174 51 174 65 188 c 0,193,194
 77 201 77 201 97 205 c 1,195,196
 77 207 77 207 65 221 c 0,197,198
 52 235 52 235 51 256 c 0,199,200
 51 276 51 276 65 291 c 0,201,202
 77 304 77 304 97 307 c 1,203,204
 77 309 77 309 65 324 c 0,205,206
 52 338 52 338 51 358 c 0,207,208
 51 378 51 378 65 393 c 0,209,210
 77 406 77 406 97 410 c 1,211,212
 77 412 77 412 65 426 c 0,213,214
 52 440 52 440 51 461 c 0,215,216
 51 481 51 481 65 496 c 0,217,218
 77 509 77 509 97 512 c 1,219,220
 77 514 77 514 65 528 c 0,221,222
 51 543 51 543 51 563 c 256,111,112
256 256 m 0,223,224
 256 276 256 276 269 291 c 0,225,226
 281 304 281 304 302 307 c 1,227,228
 282 309 282 309 269 324 c 0,229,230
 256 338 256 338 256 358 c 256,231,232
 256 378 256 378 269 393 c 0,233,234
 281 406 281 406 302 410 c 1,235,236
 282 412 282 412 269 426 c 128,-1,237
 256 440 256 440 256 461 c 0,238,239
 256 483 256 483 271 497.5 c 128,-1,240
 286 512 286 512 307 512 c 0,241,242
 329 512 329 512 343.5 497 c 128,-1,243
 358 482 358 482 358 461 c 0,244,245
 358 441 358 441 345 426.5 c 128,-1,246
 332 412 332 412 312 410 c 1,247,248
 331 407 331 407 345 393 c 0,249,250
 358 379 358 379 358 358 c 0,251,252
 358 338 358 338 345 323.5 c 128,-1,253
 332 309 332 309 312 307 c 1,254,255
 331 304 331 304 345 291 c 0,256,257
 358 277 358 277 358 256 c 0,258,259
 358 234 358 234 343.5 219.5 c 128,-1,260
 329 205 329 205 307 205 c 256,261,262
 285 205 285 205 270.5 219.5 c 128,-1,263
 256 234 256 234 256 256 c 0,223,224
EndSplineSet
EndChar

StartChar: O
Encoding: 79 79 28
Width: 614
VWidth: 1024
Flags: W
LayerCount: 2
Fore
SplineSet
51 256 m 256,0,1
 51 276 51 276 65 291 c 0,2,3
 77 304 77 304 97 307 c 1,4,5
 77 309 77 309 65 324 c 0,6,7
 52 338 52 338 51 358 c 0,8,9
 51 378 51 378 65 393 c 0,10,11
 77 406 77 406 97 410 c 1,12,13
 77 412 77 412 65 426 c 0,14,15
 52 440 52 440 51 461 c 0,16,17
 51 481 51 481 65 496 c 0,18,19
 77 509 77 509 97 512 c 1,20,21
 77 514 77 514 65 528 c 0,22,23
 52 542 52 542 51 563 c 0,24,25
 51 585 51 585 66 599.5 c 128,-1,26
 81 614 81 614 102 614 c 0,27,28
 124 614 124 614 139 599.5 c 128,-1,29
 154 585 154 585 154 563 c 0,30,31
 154 543 154 543 140.5 528.5 c 128,-1,32
 127 514 127 514 108 512 c 1,33,34
 127 509 127 509 140 496 c 0,35,36
 153 482 153 482 154 461 c 0,37,38
 154 441 154 441 140.5 426.5 c 128,-1,39
 127 412 127 412 108 410 c 1,40,41
 127 407 127 407 140 393 c 128,-1,42
 153 379 153 379 154 358 c 0,43,44
 154 338 154 338 140.5 323.5 c 128,-1,45
 127 309 127 309 108 307 c 1,46,47
 127 304 127 304 140 291 c 0,48,49
 153 277 153 277 154 256 c 0,50,51
 154 236 154 236 140.5 221.5 c 128,-1,52
 127 207 127 207 108 205 c 1,53,54
 127 202 127 202 140 188 c 128,-1,55
 153 174 153 174 154 154 c 0,56,57
 154 132 154 132 139 117 c 128,-1,58
 124 102 124 102 102 102 c 256,59,60
 80 102 80 102 65.5 117 c 128,-1,61
 51 132 51 132 51 154 c 0,62,63
 51 174 51 174 65 188 c 0,64,65
 77 201 77 201 97 205 c 1,66,67
 77 207 77 207 65 221 c 0,68,69
 51 236 51 236 51 256 c 256,0,1
461 256 m 256,70,71
 461 276 461 276 474 291 c 0,72,73
 486 304 486 304 507 307 c 1,74,75
 487 309 487 309 474 324 c 0,76,77
 461 338 461 338 461 358 c 256,78,79
 461 378 461 378 474 393 c 0,80,81
 486 406 486 406 507 410 c 1,82,83
 487 412 487 412 474 426 c 128,-1,84
 461 440 461 440 461 461 c 0,85,86
 461 481 461 481 474 496 c 0,87,88
 486 509 486 509 507 512 c 1,89,90
 487 514 487 514 474 528 c 128,-1,91
 461 542 461 542 461 563 c 0,92,93
 461 585 461 585 475.5 599.5 c 128,-1,94
 490 614 490 614 512 614 c 256,95,96
 534 614 534 614 548.5 599.5 c 128,-1,97
 563 585 563 585 563 563 c 0,98,99
 563 543 563 543 550 528.5 c 128,-1,100
 537 514 537 514 517 512 c 1,101,102
 536 509 536 509 550 496 c 0,103,104
 563 482 563 482 563 461 c 0,105,106
 563 441 563 441 550 426.5 c 128,-1,107
 537 412 537 412 517 410 c 1,108,109
 536 407 536 407 550 393 c 0,110,111
 563 379 563 379 563 358 c 0,112,113
 563 338 563 338 550 323.5 c 128,-1,114
 537 309 537 309 517 307 c 1,115,116
 536 304 536 304 550 291 c 0,117,118
 563 277 563 277 563 256 c 0,119,120
 563 236 563 236 550 221.5 c 128,-1,121
 537 207 537 207 517 205 c 1,122,123
 536 202 536 202 550 188 c 0,124,125
 563 174 563 174 563 154 c 0,126,127
 563 132 563 132 548.5 117 c 128,-1,128
 534 102 534 102 512 102 c 256,129,130
 490 102 490 102 475.5 117 c 128,-1,131
 461 132 461 132 461 154 c 0,132,133
 461 174 461 174 474 188 c 0,134,135
 486 201 486 201 507 205 c 1,136,137
 487 207 487 207 474 221 c 0,138,139
 461 236 461 236 461 256 c 256,70,71
154 666 m 256,140,141
 154 688 154 688 168.5 702.5 c 128,-1,142
 183 717 183 717 205 717 c 0,143,144
 225 717 225 717 240 703 c 0,145,146
 253 690 253 690 256 671 c 1,147,148
 258 690 258 690 272.5 703.5 c 128,-1,149
 287 717 287 717 307 717 c 0,150,151
 329 717 329 717 343.5 702 c 128,-1,152
 358 687 358 687 358 666 c 1,153,154
 358 688 358 688 373 702.5 c 128,-1,155
 388 717 388 717 410 717 c 256,156,157
 432 717 432 717 446.5 702 c 128,-1,158
 461 687 461 687 461 666 c 0,159,160
 461 644 461 644 446 629 c 128,-1,161
 431 614 431 614 410 614 c 0,162,163
 390 614 390 614 375 628 c 0,164,165
 361 640 361 640 358 660 c 1,166,167
 355 640 355 640 342 628 c 0,168,169
 328 615 328 615 307 614 c 0,170,171
 287 614 287 614 272 628 c 0,172,173
 258 640 258 640 256 660 c 1,174,175
 253 640 253 640 240 628 c 0,176,177
 226 615 226 615 205 614 c 0,178,179
 183 614 183 614 168.5 629 c 128,-1,180
 154 644 154 644 154 666 c 256,140,141
154 51 m 256,181,182
 154 73 154 73 168.5 87.5 c 128,-1,183
 183 102 183 102 205 102 c 0,184,185
 225 102 225 102 239.5 89 c 128,-1,186
 254 76 254 76 256 55 c 1,187,188
 258 75 258 75 272.5 88.5 c 128,-1,189
 287 102 287 102 307 102 c 256,190,191
 327 102 327 102 342 89 c 0,192,193
 355 76 355 76 358 56 c 1,194,195
 360 75 360 75 374.5 88.5 c 128,-1,196
 389 102 389 102 410 102 c 0,197,198
 432 102 432 102 446.5 87.5 c 128,-1,199
 461 73 461 73 461 51 c 256,200,201
 461 29 461 29 446 14.5 c 128,-1,202
 431 0 431 0 410 0 c 0,203,204
 390 0 390 0 375 13 c 0,205,206
 361 25 361 25 358 46 c 1,207,208
 355 26 355 26 342 13 c 0,209,210
 328 0 328 0 307 0 c 0,211,212
 287 0 287 0 272 13 c 0,213,214
 258 25 258 25 256 46 c 1,215,216
 253 26 253 26 240 13 c 0,217,218
 226 0 226 0 205 0 c 0,219,220
 183 0 183 0 168.5 14.5 c 128,-1,221
 154 29 154 29 154 51 c 256,181,182
EndSplineSet
EndChar

StartChar: P
Encoding: 80 80 29
Width: 614
VWidth: 1024
Flags: W
LayerCount: 2
Fore
SplineSet
51 666 m 0,0,1
 51 688 51 688 66 702.5 c 128,-1,2
 81 717 81 717 102 717 c 0,3,4
 124 717 124 717 139 702 c 128,-1,5
 154 687 154 687 154 666 c 1,6,7
 154 688 154 688 168.5 702.5 c 128,-1,8
 183 717 183 717 205 717 c 256,9,10
 227 717 227 717 241 701 c 0,11,12
 254 688 254 688 256 670 c 1,13,14
 257 688 257 688 270 701 c 0,15,16
 285 716 285 716 307 717 c 0,17,18
 329 717 329 717 343 701 c 0,19,20
 356 688 356 688 358 670 c 1,21,22
 359 688 359 688 373 701 c 0,23,24
 388 716 388 716 410 717 c 0,25,26
 432 717 432 717 446.5 702 c 128,-1,27
 461 687 461 687 461 666 c 0,28,29
 461 644 461 644 446 629 c 128,-1,30
 431 614 431 614 410 614 c 0,31,32
 390 614 390 614 375 628 c 0,33,34
 361 640 361 640 358 660 c 1,35,36
 355 640 355 640 342 628 c 0,37,38
 328 615 328 615 307 614 c 0,39,40
 287 614 287 614 272 628 c 0,41,42
 258 640 258 640 256 660 c 1,43,44
 253 640 253 640 240 628 c 0,45,46
 226 615 226 615 205 614 c 0,47,48
 185 614 185 614 170 628 c 0,49,50
 156 640 156 640 154 660 c 1,51,52
 151 641 151 641 138 628.5 c 128,-1,53
 125 616 125 616 108 614 c 1,54,55
 127 611 127 611 140 598 c 0,56,57
 153 584 153 584 154 563 c 0,58,59
 154 543 154 543 140.5 528.5 c 128,-1,60
 127 514 127 514 108 512 c 1,61,62
 127 509 127 509 140 496 c 0,63,64
 153 482 153 482 154 461 c 0,65,66
 154 441 154 441 140.5 426.5 c 128,-1,67
 127 412 127 412 108 410 c 1,68,69
 127 407 127 407 140 393 c 128,-1,70
 153 379 153 379 154 358 c 0,71,72
 154 338 154 338 140.5 323.5 c 128,-1,73
 127 309 127 309 108 307 c 1,74,75
 125 304 125 304 138 292 c 0,76,77
 151 279 151 279 154 260 c 1,78,79
 156 280 156 280 170 293.5 c 128,-1,80
 184 307 184 307 205 307 c 0,81,82
 225 307 225 307 239.5 294 c 128,-1,83
 254 281 254 281 256 260 c 1,84,85
 258 280 258 280 272.5 293.5 c 128,-1,86
 287 307 287 307 307 307 c 0,87,88
 329 307 329 307 343 292 c 0,89,90
 356 279 356 279 358 260 c 1,91,92
 359 278 359 278 373 292 c 0,93,94
 388 307 388 307 410 307 c 256,95,96
 432 307 432 307 446.5 292.5 c 128,-1,97
 461 278 461 278 461 256 c 256,98,99
 461 234 461 234 446 219.5 c 128,-1,100
 431 205 431 205 410 205 c 0,101,102
 390 205 390 205 375 218 c 0,103,104
 361 230 361 230 358 251 c 1,105,106
 355 231 355 231 342 218 c 0,107,108
 328 205 328 205 307 205 c 0,109,110
 287 205 287 205 272 218 c 0,111,112
 258 230 258 230 256 251 c 1,113,114
 253 231 253 231 240 218 c 0,115,116
 226 205 226 205 205 205 c 0,117,118
 185 205 185 205 170 218 c 0,119,120
 156 230 156 230 154 251 c 1,121,122
 151 232 151 232 138 219.5 c 128,-1,123
 125 207 125 207 108 205 c 1,124,125
 127 202 127 202 140 188 c 128,-1,126
 153 174 153 174 154 154 c 0,127,128
 154 134 154 134 140.5 119 c 128,-1,129
 127 104 127 104 108 102 c 1,130,131
 127 99 127 99 140 86 c 0,132,133
 153 72 153 72 154 51 c 0,134,135
 154 29 154 29 139 14.5 c 128,-1,136
 124 0 124 0 102 0 c 256,137,138
 80 0 80 0 65.5 15 c 128,-1,139
 51 30 51 30 51 51 c 0,140,141
 51 71 51 71 65 86 c 0,142,143
 77 99 77 99 97 102 c 1,144,145
 77 104 77 104 65 119 c 0,146,147
 52 133 52 133 51 154 c 0,148,149
 51 174 51 174 65 188 c 0,150,151
 77 201 77 201 97 205 c 1,152,153
 77 207 77 207 65 221 c 0,154,155
 52 235 52 235 51 256 c 0,156,157
 51 276 51 276 65 291 c 0,158,159
 77 304 77 304 97 307 c 1,160,161
 77 309 77 309 65 324 c 0,162,163
 52 338 52 338 51 358 c 0,164,165
 51 378 51 378 65 393 c 0,166,167
 77 406 77 406 97 410 c 1,168,169
 77 412 77 412 65 426 c 0,170,171
 52 440 52 440 51 461 c 0,172,173
 51 481 51 481 65 496 c 0,174,175
 77 509 77 509 97 512 c 1,176,177
 77 514 77 514 65 528 c 0,178,179
 52 542 52 542 51 563 c 0,180,181
 51 583 51 583 65 598 c 0,182,183
 77 611 77 611 97 614 c 1,184,185
 77 616 77 616 65 631 c 0,186,187
 51 646 51 646 51 666 c 0,0,1
461 563 m 0,188,189
 461 585 461 585 475.5 599.5 c 128,-1,190
 490 614 490 614 512 614 c 256,191,192
 534 614 534 614 548.5 599.5 c 128,-1,193
 563 585 563 585 563 563 c 0,194,195
 563 543 563 543 550 528.5 c 128,-1,196
 537 514 537 514 517 512 c 1,197,198
 536 509 536 509 550 496 c 0,199,200
 563 482 563 482 563 461 c 0,201,202
 563 441 563 441 550 426.5 c 128,-1,203
 537 412 537 412 517 410 c 1,204,205
 536 407 536 407 550 393 c 0,206,207
 563 379 563 379 563 358 c 0,208,209
 563 336 563 336 548.5 321.5 c 128,-1,210
 534 307 534 307 512 307 c 256,211,212
 490 307 490 307 475.5 322 c 128,-1,213
 461 337 461 337 461 358 c 0,214,215
 461 378 461 378 474 393 c 0,216,217
 486 406 486 406 507 410 c 1,218,219
 487 412 487 412 474 426 c 128,-1,220
 461 440 461 440 461 461 c 0,221,222
 461 481 461 481 474 496 c 0,223,224
 486 509 486 509 507 512 c 1,225,226
 487 514 487 514 474 528 c 0,227,228
 461 543 461 543 461 563 c 0,188,189
EndSplineSet
EndChar

StartChar: Q
Encoding: 81 81 30
Width: 614
VWidth: 1024
Flags: W
LayerCount: 2
Fore
SplineSet
461 563 m 0,0,1
 461 585 461 585 475.5 599.5 c 128,-1,2
 490 614 490 614 512 614 c 256,3,4
 534 614 534 614 548.5 599.5 c 128,-1,5
 563 585 563 585 563 563 c 0,6,7
 563 543 563 543 550 528.5 c 128,-1,8
 537 514 537 514 517 512 c 1,9,10
 536 509 536 509 550 496 c 0,11,12
 563 482 563 482 563 461 c 0,13,14
 563 441 563 441 550 426.5 c 128,-1,15
 537 412 537 412 517 410 c 1,16,17
 536 407 536 407 550 393 c 0,18,19
 563 379 563 379 563 358 c 0,20,21
 563 338 563 338 550 323.5 c 128,-1,22
 537 309 537 309 517 307 c 1,23,24
 536 304 536 304 550 291 c 0,25,26
 563 277 563 277 563 256 c 0,27,28
 563 236 563 236 550 221.5 c 128,-1,29
 537 207 537 207 517 205 c 1,30,31
 536 202 536 202 550 188 c 0,32,33
 563 174 563 174 563 154 c 256,34,35
 563 134 563 134 550 119 c 128,-1,36
 537 104 537 104 517 102 c 1,37,38
 536 99 536 99 550 86 c 0,39,40
 563 72 563 72 563 51 c 0,41,42
 563 29 563 29 548.5 14.5 c 128,-1,43
 534 0 534 0 512 0 c 0,44,45
 492 0 492 0 477 13 c 0,46,47
 463 25 463 25 461 46 c 1,48,49
 458 26 458 26 444 13 c 128,-1,50
 430 0 430 0 410 0 c 256,51,52
 390 0 390 0 375 13 c 0,53,54
 361 25 361 25 358 46 c 1,55,56
 355 26 355 26 342 13 c 0,57,58
 328 0 328 0 307 0 c 0,59,60
 287 0 287 0 272 13 c 0,61,62
 258 25 258 25 256 46 c 1,63,64
 253 26 253 26 240 13 c 0,65,66
 226 0 226 0 205 0 c 0,67,68
 183 0 183 0 168.5 15 c 128,-1,69
 154 30 154 30 154 51 c 0,70,71
 154 73 154 73 168.5 87.5 c 128,-1,72
 183 102 183 102 205 102 c 0,73,74
 225 102 225 102 240 89 c 0,75,76
 253 76 253 76 256 56 c 1,77,78
 258 75 258 75 272.5 88.5 c 128,-1,79
 287 102 287 102 307 102 c 256,80,81
 327 102 327 102 341.5 89 c 128,-1,82
 356 76 356 76 358 55 c 1,83,84
 360 73 360 73 373 87 c 0,85,86
 385 99 385 99 404 102 c 1,87,88
 384 104 384 104 372 119 c 0,89,90
 359 133 359 133 358 154 c 0,91,92
 358 176 358 176 373 190.5 c 128,-1,93
 388 205 388 205 410 205 c 256,94,95
 432 205 432 205 446.5 190 c 128,-1,96
 461 175 461 175 461 154 c 1,97,98
 461 174 461 174 474 188 c 0,99,100
 486 201 486 201 507 205 c 1,101,102
 487 207 487 207 474 221 c 128,-1,103
 461 235 461 235 461 256 c 0,104,105
 461 276 461 276 474 291 c 0,106,107
 486 304 486 304 507 307 c 1,108,109
 487 309 487 309 474 324 c 0,110,111
 461 338 461 338 461 358 c 256,112,113
 461 378 461 378 474 393 c 0,114,115
 486 406 486 406 507 410 c 1,116,117
 487 412 487 412 474 426 c 128,-1,118
 461 440 461 440 461 461 c 0,119,120
 461 481 461 481 474 496 c 0,121,122
 486 509 486 509 507 512 c 1,123,124
 487 514 487 514 474 528 c 0,125,126
 461 543 461 543 461 563 c 0,0,1
51 256 m 256,127,128
 51 276 51 276 65 291 c 0,129,130
 77 304 77 304 97 307 c 1,131,132
 77 309 77 309 65 324 c 0,133,134
 52 338 52 338 51 358 c 0,135,136
 51 378 51 378 65 393 c 0,137,138
 77 406 77 406 97 410 c 1,139,140
 77 412 77 412 65 426 c 0,141,142
 52 440 52 440 51 461 c 0,143,144
 51 481 51 481 65 496 c 0,145,146
 77 509 77 509 97 512 c 1,147,148
 77 514 77 514 65 528 c 0,149,150
 52 542 52 542 51 563 c 0,151,152
 51 585 51 585 66 599.5 c 128,-1,153
 81 614 81 614 102 614 c 0,154,155
 124 614 124 614 139 599.5 c 128,-1,156
 154 585 154 585 154 563 c 0,157,158
 154 543 154 543 140.5 528.5 c 128,-1,159
 127 514 127 514 108 512 c 1,160,161
 127 509 127 509 140 496 c 0,162,163
 153 482 153 482 154 461 c 0,164,165
 154 441 154 441 140.5 426.5 c 128,-1,166
 127 412 127 412 108 410 c 1,167,168
 127 407 127 407 140 393 c 128,-1,169
 153 379 153 379 154 358 c 0,170,171
 154 338 154 338 140.5 323.5 c 128,-1,172
 127 309 127 309 108 307 c 1,173,174
 127 304 127 304 140 291 c 0,175,176
 153 277 153 277 154 256 c 0,177,178
 154 236 154 236 140.5 221.5 c 128,-1,179
 127 207 127 207 108 205 c 1,180,181
 127 202 127 202 140 188 c 128,-1,182
 153 174 153 174 154 154 c 0,183,184
 154 132 154 132 139 117 c 128,-1,185
 124 102 124 102 102 102 c 256,186,187
 80 102 80 102 65.5 117 c 128,-1,188
 51 132 51 132 51 154 c 0,189,190
 51 174 51 174 65 188 c 0,191,192
 77 201 77 201 97 205 c 1,193,194
 77 207 77 207 65 221 c 0,195,196
 51 236 51 236 51 256 c 256,127,128
154 666 m 256,197,198
 154 688 154 688 168.5 702.5 c 128,-1,199
 183 717 183 717 205 717 c 256,200,201
 227 717 227 717 241 701 c 0,202,203
 254 688 254 688 256 670 c 1,204,205
 257 688 257 688 270 701 c 0,206,207
 285 716 285 716 307 717 c 0,208,209
 327 717 327 717 341.5 703.5 c 128,-1,210
 356 690 356 690 358 670 c 1,211,212
 360 690 360 690 374.5 703.5 c 128,-1,213
 389 717 389 717 410 717 c 0,214,215
 432 717 432 717 446.5 702 c 128,-1,216
 461 687 461 687 461 666 c 0,217,218
 461 644 461 644 446 629 c 128,-1,219
 431 614 431 614 410 614 c 0,220,221
 390 614 390 614 375 628 c 0,222,223
 361 640 361 640 358 660 c 1,224,225
 355 640 355 640 342 628 c 0,226,227
 328 615 328 615 307 614 c 0,228,229
 287 614 287 614 272 628 c 0,230,231
 258 640 258 640 256 660 c 1,232,233
 253 640 253 640 240 628 c 0,234,235
 226 615 226 615 205 614 c 0,236,237
 183 614 183 614 168.5 629 c 128,-1,238
 154 644 154 644 154 666 c 256,197,198
256 256 m 256,239,240
 256 278 256 278 271 292.5 c 128,-1,241
 286 307 286 307 307 307 c 0,242,243
 329 307 329 307 343.5 292.5 c 128,-1,244
 358 278 358 278 358 256 c 256,245,246
 358 234 358 234 343.5 219.5 c 128,-1,247
 329 205 329 205 307 205 c 256,248,249
 285 205 285 205 270.5 219.5 c 128,-1,250
 256 234 256 234 256 256 c 256,239,240
461 51 m 1,251,252
 461 71 461 71 474 86 c 0,253,254
 486 99 486 99 507 102 c 1,255,256
 488 104 488 104 475.5 116.5 c 128,-1,257
 463 129 463 129 461 148 c 1,258,259
 458 129 458 129 445 116.5 c 128,-1,260
 432 104 432 104 415 102 c 1,261,262
 434 99 434 99 447 86 c 0,263,264
 461 71 461 71 461 51 c 1,251,252
EndSplineSet
EndChar

StartChar: R
Encoding: 82 82 31
Width: 614
VWidth: 1024
Flags: W
LayerCount: 2
Fore
SplineSet
51 666 m 0,0,1
 51 688 51 688 66 702.5 c 128,-1,2
 81 717 81 717 102 717 c 0,3,4
 124 717 124 717 139 702 c 128,-1,5
 154 687 154 687 154 666 c 1,6,7
 154 688 154 688 168.5 702.5 c 128,-1,8
 183 717 183 717 205 717 c 256,9,10
 227 717 227 717 241 701 c 0,11,12
 254 688 254 688 256 670 c 1,13,14
 257 688 257 688 270 701 c 0,15,16
 285 716 285 716 307 717 c 0,17,18
 327 717 327 717 342 703 c 0,19,20
 355 690 355 690 358 671 c 1,21,22
 360 690 360 690 374.5 703.5 c 128,-1,23
 389 717 389 717 410 717 c 0,24,25
 432 717 432 717 446.5 702 c 128,-1,26
 461 687 461 687 461 666 c 0,27,28
 461 644 461 644 446 629 c 128,-1,29
 431 614 431 614 410 614 c 0,30,31
 390 614 390 614 375 628 c 0,32,33
 361 640 361 640 358 660 c 1,34,35
 355 640 355 640 342 628 c 0,36,37
 328 615 328 615 307 614 c 0,38,39
 287 614 287 614 272 628 c 0,40,41
 258 640 258 640 256 660 c 1,42,43
 253 640 253 640 240 628 c 0,44,45
 226 615 226 615 205 614 c 0,46,47
 185 614 185 614 170 628 c 0,48,49
 156 640 156 640 154 660 c 1,50,51
 151 641 151 641 138 628.5 c 128,-1,52
 125 616 125 616 108 614 c 1,53,54
 127 611 127 611 140 598 c 0,55,56
 153 584 153 584 154 563 c 0,57,58
 154 543 154 543 140.5 528.5 c 128,-1,59
 127 514 127 514 108 512 c 1,60,61
 127 509 127 509 140 496 c 0,62,63
 153 482 153 482 154 461 c 0,64,65
 154 441 154 441 140.5 426.5 c 128,-1,66
 127 412 127 412 108 410 c 1,67,68
 125 407 125 407 138 394 c 128,-1,69
 151 381 151 381 154 364 c 1,70,71
 156 383 156 383 170 396.5 c 128,-1,72
 184 410 184 410 205 410 c 0,73,74
 227 410 227 410 241 394 c 0,75,76
 254 381 254 381 256 362 c 1,77,78
 257 380 257 380 270 394 c 0,79,80
 285 409 285 409 307 410 c 0,81,82
 329 410 329 410 343.5 395 c 128,-1,83
 358 380 358 380 358 358 c 1,84,85
 358 380 358 380 373 395 c 128,-1,86
 388 410 388 410 410 410 c 256,87,88
 432 410 432 410 446.5 395 c 128,-1,89
 461 380 461 380 461 358 c 256,90,91
 461 336 461 336 446 321.5 c 128,-1,92
 431 307 431 307 410 307 c 0,93,94
 390 307 390 307 375 321 c 0,95,96
 361 333 361 333 358 353 c 1,97,98
 355 334 355 334 342.5 321.5 c 128,-1,99
 330 309 330 309 312 307 c 1,100,101
 331 304 331 304 345 291 c 0,102,103
 358 277 358 277 358 256 c 0,104,105
 358 234 358 234 343.5 219.5 c 128,-1,106
 329 205 329 205 307 205 c 256,107,108
 285 205 285 205 270.5 219.5 c 128,-1,109
 256 234 256 234 256 256 c 0,110,111
 256 276 256 276 269 291 c 0,112,113
 281 304 281 304 302 307 c 1,114,115
 283 309 283 309 270.5 321.5 c 128,-1,116
 258 334 258 334 256 353 c 1,117,118
 253 333 253 333 240 321 c 0,119,120
 226 308 226 308 205 307 c 0,121,122
 185 307 185 307 170 321 c 0,123,124
 156 333 156 333 154 353 c 1,125,126
 151 334 151 334 138 321.5 c 128,-1,127
 125 309 125 309 108 307 c 1,128,129
 127 304 127 304 140 291 c 0,130,131
 153 277 153 277 154 256 c 0,132,133
 154 236 154 236 140.5 221.5 c 128,-1,134
 127 207 127 207 108 205 c 1,135,136
 127 202 127 202 140 188 c 128,-1,137
 153 174 153 174 154 154 c 0,138,139
 154 134 154 134 140.5 119 c 128,-1,140
 127 104 127 104 108 102 c 1,141,142
 127 99 127 99 140 86 c 0,143,144
 153 72 153 72 154 51 c 0,145,146
 154 29 154 29 139 14.5 c 128,-1,147
 124 0 124 0 102 0 c 256,148,149
 80 0 80 0 65.5 15 c 128,-1,150
 51 30 51 30 51 51 c 0,151,152
 51 71 51 71 65 86 c 0,153,154
 77 99 77 99 97 102 c 1,155,156
 77 104 77 104 65 119 c 0,157,158
 52 133 52 133 51 154 c 0,159,160
 51 174 51 174 65 188 c 0,161,162
 77 201 77 201 97 205 c 1,163,164
 77 207 77 207 65 221 c 0,165,166
 52 235 52 235 51 256 c 0,167,168
 51 276 51 276 65 291 c 0,169,170
 77 304 77 304 97 307 c 1,171,172
 77 309 77 309 65 324 c 0,173,174
 52 338 52 338 51 358 c 0,175,176
 51 378 51 378 65 393 c 0,177,178
 77 406 77 406 97 410 c 1,179,180
 77 412 77 412 65 426 c 0,181,182
 52 440 52 440 51 461 c 0,183,184
 51 481 51 481 65 496 c 0,185,186
 77 509 77 509 97 512 c 1,187,188
 77 514 77 514 65 528 c 0,189,190
 52 542 52 542 51 563 c 0,191,192
 51 583 51 583 65 598 c 0,193,194
 77 611 77 611 97 614 c 1,195,196
 77 616 77 616 65 631 c 0,197,198
 51 646 51 646 51 666 c 0,0,1
461 563 m 0,199,200
 461 585 461 585 475.5 599.5 c 128,-1,201
 490 614 490 614 512 614 c 256,202,203
 534 614 534 614 548.5 599.5 c 128,-1,204
 563 585 563 585 563 563 c 0,205,206
 563 543 563 543 550 528.5 c 128,-1,207
 537 514 537 514 517 512 c 1,208,209
 536 509 536 509 550 496 c 0,210,211
 563 482 563 482 563 461 c 0,212,213
 563 439 563 439 548.5 424.5 c 128,-1,214
 534 410 534 410 512 410 c 256,215,216
 490 410 490 410 475.5 424.5 c 128,-1,217
 461 439 461 439 461 461 c 0,218,219
 461 481 461 481 474 496 c 0,220,221
 486 509 486 509 507 512 c 1,222,223
 487 514 487 514 474 528 c 0,224,225
 461 543 461 543 461 563 c 0,199,200
461 51 m 256,226,227
 461 73 461 73 475.5 87.5 c 128,-1,228
 490 102 490 102 512 102 c 256,229,230
 534 102 534 102 548.5 87.5 c 128,-1,231
 563 73 563 73 563 51 c 256,232,233
 563 29 563 29 548.5 14.5 c 128,-1,234
 534 0 534 0 512 0 c 256,235,236
 490 0 490 0 475.5 14.5 c 128,-1,237
 461 29 461 29 461 51 c 256,226,227
358 154 m 256,238,239
 358 176 358 176 373 190.5 c 128,-1,240
 388 205 388 205 410 205 c 256,241,242
 432 205 432 205 446.5 190 c 128,-1,243
 461 175 461 175 461 154 c 0,244,245
 461 132 461 132 446 117 c 128,-1,246
 431 102 431 102 410 102 c 0,247,248
 388 102 388 102 373 117 c 128,-1,249
 358 132 358 132 358 154 c 256,238,239
EndSplineSet
EndChar

StartChar: S
Encoding: 83 83 32
Width: 614
VWidth: 1024
Flags: W
LayerCount: 2
Fore
SplineSet
154 666 m 256,0,1
 154 688 154 688 168.5 702.5 c 128,-1,2
 183 717 183 717 205 717 c 256,3,4
 227 717 227 717 241.5 702 c 128,-1,5
 256 687 256 687 256 666 c 1,6,7
 256 688 256 688 271 702.5 c 128,-1,8
 286 717 286 717 307 717 c 0,9,10
 329 717 329 717 343 701 c 0,11,12
 356 688 356 688 358 670 c 1,13,14
 359 688 359 688 373 701 c 0,15,16
 388 716 388 716 410 717 c 0,17,18
 432 717 432 717 446.5 702 c 128,-1,19
 461 687 461 687 461 666 c 0,20,21
 461 644 461 644 446 629 c 128,-1,22
 431 614 431 614 410 614 c 0,23,24
 390 614 390 614 375 628 c 0,25,26
 361 640 361 640 358 660 c 1,27,28
 355 640 355 640 342 628 c 0,29,30
 328 615 328 615 307 614 c 0,31,32
 287 614 287 614 272 628 c 0,33,34
 258 640 258 640 256 660 c 1,35,36
 253 640 253 640 240 628 c 0,37,38
 226 615 226 615 205 614 c 0,39,40
 183 614 183 614 168.5 629 c 128,-1,41
 154 644 154 644 154 666 c 256,0,1
154 358 m 256,42,43
 154 380 154 380 168.5 395 c 128,-1,44
 183 410 183 410 205 410 c 256,45,46
 227 410 227 410 241 394 c 0,47,48
 254 381 254 381 256 362 c 1,49,50
 257 380 257 380 270 394 c 0,51,52
 285 409 285 409 307 410 c 0,53,54
 329 410 329 410 343 394 c 0,55,56
 356 381 356 381 358 362 c 1,57,58
 359 380 359 380 373 394 c 0,59,60
 388 409 388 409 410 410 c 0,61,62
 432 410 432 410 446.5 395 c 128,-1,63
 461 380 461 380 461 358 c 256,64,65
 461 336 461 336 446 321.5 c 128,-1,66
 431 307 431 307 410 307 c 0,67,68
 390 307 390 307 375 321 c 0,69,70
 361 333 361 333 358 353 c 1,71,72
 355 333 355 333 342 321 c 0,73,74
 328 308 328 308 307 307 c 0,75,76
 287 307 287 307 272 321 c 0,77,78
 258 333 258 333 256 353 c 1,79,80
 253 333 253 333 240 321 c 0,81,82
 226 308 226 308 205 307 c 0,83,84
 183 307 183 307 168.5 321.5 c 128,-1,85
 154 336 154 336 154 358 c 256,42,43
154 51 m 256,86,87
 154 73 154 73 168.5 87.5 c 128,-1,88
 183 102 183 102 205 102 c 256,89,90
 227 102 227 102 241 87 c 0,91,92
 254 74 254 74 256 55 c 1,93,94
 257 73 257 73 270 87 c 0,95,96
 285 102 285 102 307 102 c 256,97,98
 329 102 329 102 343.5 87.5 c 128,-1,99
 358 73 358 73 358 51 c 1,100,101
 358 73 358 73 373 87.5 c 128,-1,102
 388 102 388 102 410 102 c 256,103,104
 432 102 432 102 446.5 87.5 c 128,-1,105
 461 73 461 73 461 51 c 256,106,107
 461 29 461 29 446 14.5 c 128,-1,108
 431 0 431 0 410 0 c 0,109,110
 390 0 390 0 375 13 c 0,111,112
 361 25 361 25 358 46 c 1,113,114
 355 26 355 26 342 13 c 0,115,116
 328 0 328 0 307 0 c 0,117,118
 287 0 287 0 272 13 c 0,119,120
 258 25 258 25 256 46 c 1,121,122
 253 26 253 26 240 13 c 0,123,124
 226 0 226 0 205 0 c 0,125,126
 183 0 183 0 168.5 14.5 c 128,-1,127
 154 29 154 29 154 51 c 256,86,87
461 154 m 0,128,129
 461 174 461 174 474 188 c 0,130,131
 486 201 486 201 507 205 c 1,132,133
 487 207 487 207 474 221 c 128,-1,134
 461 235 461 235 461 256 c 0,135,136
 461 278 461 278 475.5 292.5 c 128,-1,137
 490 307 490 307 512 307 c 256,138,139
 534 307 534 307 548.5 292.5 c 128,-1,140
 563 278 563 278 563 256 c 0,141,142
 563 236 563 236 550 221.5 c 128,-1,143
 537 207 537 207 517 205 c 1,144,145
 536 202 536 202 550 188 c 0,146,147
 563 174 563 174 563 154 c 0,148,149
 563 132 563 132 548.5 117 c 128,-1,150
 534 102 534 102 512 102 c 256,151,152
 490 102 490 102 475.5 117 c 128,-1,153
 461 132 461 132 461 154 c 0,128,129
51 563 m 0,154,155
 51 585 51 585 66 599.5 c 128,-1,156
 81 614 81 614 102 614 c 0,157,158
 124 614 124 614 139 599.5 c 128,-1,159
 154 585 154 585 154 563 c 0,160,161
 154 543 154 543 140.5 528.5 c 128,-1,162
 127 514 127 514 108 512 c 1,163,164
 127 509 127 509 140 496 c 0,165,166
 153 482 153 482 154 461 c 0,167,168
 154 439 154 439 139 424.5 c 128,-1,169
 124 410 124 410 102 410 c 256,170,171
 80 410 80 410 65.5 424.5 c 128,-1,172
 51 439 51 439 51 461 c 0,173,174
 51 481 51 481 65 496 c 0,175,176
 77 509 77 509 97 512 c 1,177,178
 77 514 77 514 65 528 c 0,179,180
 51 543 51 543 51 563 c 0,154,155
461 563 m 256,181,182
 461 585 461 585 475.5 599.5 c 128,-1,183
 490 614 490 614 512 614 c 256,184,185
 534 614 534 614 548.5 599.5 c 128,-1,186
 563 585 563 585 563 563 c 256,187,188
 563 541 563 541 548.5 526.5 c 128,-1,189
 534 512 534 512 512 512 c 256,190,191
 490 512 490 512 475.5 526.5 c 128,-1,192
 461 541 461 541 461 563 c 256,181,182
51 154 m 256,193,194
 51 176 51 176 66 190.5 c 128,-1,195
 81 205 81 205 102 205 c 0,196,197
 124 205 124 205 139 190 c 128,-1,198
 154 175 154 175 154 154 c 0,199,200
 154 132 154 132 139 117 c 128,-1,201
 124 102 124 102 102 102 c 256,202,203
 80 102 80 102 65.5 117 c 128,-1,204
 51 132 51 132 51 154 c 256,193,194
EndSplineSet
EndChar

StartChar: T
Encoding: 84 84 33
Width: 614
VWidth: 1024
Flags: W
LayerCount: 2
Fore
SplineSet
256 563 m 256,0,1
 256 583 256 583 269 598 c 0,2,3
 281 611 281 611 302 614 c 1,4,5
 283 616 283 616 270.5 628.5 c 128,-1,6
 258 641 258 641 256 660 c 1,7,8
 253 640 253 640 240 628 c 0,9,10
 226 615 226 615 205 614 c 0,11,12
 185 614 185 614 170 628 c 0,13,14
 156 640 156 640 154 660 c 1,15,16
 151 640 151 640 137 628 c 0,17,18
 123 615 123 615 102 614 c 0,19,20
 80 614 80 614 65.5 629 c 128,-1,21
 51 644 51 644 51 666 c 256,22,23
 51 688 51 688 66 702.5 c 128,-1,24
 81 717 81 717 102 717 c 0,25,26
 122 717 122 717 137 703.5 c 128,-1,27
 152 690 152 690 154 670 c 1,28,29
 156 690 156 690 170 703.5 c 128,-1,30
 184 717 184 717 205 717 c 0,31,32
 227 717 227 717 241.5 702 c 128,-1,33
 256 687 256 687 256 666 c 1,34,35
 256 688 256 688 271 702.5 c 128,-1,36
 286 717 286 717 307 717 c 0,37,38
 329 717 329 717 343 701 c 0,39,40
 356 688 356 688 358 670 c 1,41,42
 359 688 359 688 373 701 c 0,43,44
 388 716 388 716 410 717 c 0,45,46
 430 717 430 717 444.5 703.5 c 128,-1,47
 459 690 459 690 461 670 c 1,48,49
 463 690 463 690 477.5 703.5 c 128,-1,50
 492 717 492 717 512 717 c 0,51,52
 534 717 534 717 548.5 702 c 128,-1,53
 563 687 563 687 563 666 c 0,54,55
 563 644 563 644 548.5 629 c 128,-1,56
 534 614 534 614 512 614 c 0,57,58
 492 614 492 614 477 628 c 0,59,60
 463 640 463 640 461 660 c 1,61,62
 458 640 458 640 444 628 c 0,63,64
 430 615 430 615 410 614 c 0,65,66
 390 614 390 614 375 628 c 0,67,68
 361 640 361 640 358 660 c 1,69,70
 355 641 355 641 342.5 628.5 c 128,-1,71
 330 616 330 616 312 614 c 1,72,73
 331 611 331 611 345 598 c 0,74,75
 358 584 358 584 358 563 c 0,76,77
 358 543 358 543 345 528.5 c 128,-1,78
 332 514 332 514 312 512 c 1,79,80
 331 509 331 509 345 496 c 0,81,82
 358 482 358 482 358 461 c 0,83,84
 358 441 358 441 345 426.5 c 128,-1,85
 332 412 332 412 312 410 c 1,86,87
 331 407 331 407 345 393 c 0,88,89
 358 379 358 379 358 358 c 0,90,91
 358 338 358 338 345 323.5 c 128,-1,92
 332 309 332 309 312 307 c 1,93,94
 331 304 331 304 345 291 c 0,95,96
 358 277 358 277 358 256 c 0,97,98
 358 236 358 236 345 221.5 c 128,-1,99
 332 207 332 207 312 205 c 1,100,101
 331 202 331 202 345 188 c 0,102,103
 358 174 358 174 358 154 c 256,104,105
 358 134 358 134 345 119 c 128,-1,106
 332 104 332 104 312 102 c 1,107,108
 331 99 331 99 345 86 c 0,109,110
 358 72 358 72 358 51 c 0,111,112
 358 29 358 29 343.5 14.5 c 128,-1,113
 329 0 329 0 307 0 c 256,114,115
 285 0 285 0 270.5 15 c 128,-1,116
 256 30 256 30 256 51 c 0,117,118
 256 71 256 71 269 86 c 0,119,120
 281 99 281 99 302 102 c 1,121,122
 282 104 282 104 269 119 c 0,123,124
 256 133 256 133 256 154 c 0,125,126
 256 174 256 174 269 188 c 0,127,128
 281 201 281 201 302 205 c 1,129,130
 282 207 282 207 269 221 c 128,-1,131
 256 235 256 235 256 256 c 0,132,133
 256 276 256 276 269 291 c 0,134,135
 281 304 281 304 302 307 c 1,136,137
 282 309 282 309 269 324 c 0,138,139
 256 338 256 338 256 358 c 256,140,141
 256 378 256 378 269 393 c 0,142,143
 281 406 281 406 302 410 c 1,144,145
 282 412 282 412 269 426 c 128,-1,146
 256 440 256 440 256 461 c 0,147,148
 256 481 256 481 269 496 c 0,149,150
 281 509 281 509 302 512 c 1,151,152
 282 514 282 514 269 528 c 0,153,154
 256 543 256 543 256 563 c 256,0,1
EndSplineSet
EndChar

StartChar: U
Encoding: 85 85 34
Width: 614
VWidth: 1024
Flags: W
LayerCount: 2
Fore
SplineSet
51 563 m 256,0,1
 51 583 51 583 65 598 c 0,2,3
 77 611 77 611 97 614 c 1,4,5
 77 616 77 616 65 631 c 0,6,7
 52 645 52 645 51 666 c 0,8,9
 51 688 51 688 66 702.5 c 128,-1,10
 81 717 81 717 102 717 c 0,11,12
 124 717 124 717 139 702 c 128,-1,13
 154 687 154 687 154 666 c 0,14,15
 154 646 154 646 140.5 631 c 128,-1,16
 127 616 127 616 108 614 c 1,17,18
 127 611 127 611 140 598 c 0,19,20
 153 584 153 584 154 563 c 0,21,22
 154 543 154 543 140.5 528.5 c 128,-1,23
 127 514 127 514 108 512 c 1,24,25
 127 509 127 509 140 496 c 0,26,27
 153 482 153 482 154 461 c 0,28,29
 154 441 154 441 140.5 426.5 c 128,-1,30
 127 412 127 412 108 410 c 1,31,32
 127 407 127 407 140 393 c 128,-1,33
 153 379 153 379 154 358 c 0,34,35
 154 338 154 338 140.5 323.5 c 128,-1,36
 127 309 127 309 108 307 c 1,37,38
 127 304 127 304 140 291 c 0,39,40
 153 277 153 277 154 256 c 0,41,42
 154 236 154 236 140.5 221.5 c 128,-1,43
 127 207 127 207 108 205 c 1,44,45
 127 202 127 202 140 188 c 128,-1,46
 153 174 153 174 154 154 c 0,47,48
 154 132 154 132 139 117 c 128,-1,49
 124 102 124 102 102 102 c 256,50,51
 80 102 80 102 65.5 117 c 128,-1,52
 51 132 51 132 51 154 c 0,53,54
 51 174 51 174 65 188 c 0,55,56
 77 201 77 201 97 205 c 1,57,58
 77 207 77 207 65 221 c 0,59,60
 52 235 52 235 51 256 c 0,61,62
 51 276 51 276 65 291 c 0,63,64
 77 304 77 304 97 307 c 1,65,66
 77 309 77 309 65 324 c 0,67,68
 52 338 52 338 51 358 c 0,69,70
 51 378 51 378 65 393 c 0,71,72
 77 406 77 406 97 410 c 1,73,74
 77 412 77 412 65 426 c 0,75,76
 52 440 52 440 51 461 c 0,77,78
 51 481 51 481 65 496 c 0,79,80
 77 509 77 509 97 512 c 1,81,82
 77 514 77 514 65 528 c 0,83,84
 51 543 51 543 51 563 c 256,0,1
461 563 m 256,85,86
 461 583 461 583 474 598 c 0,87,88
 486 611 486 611 507 614 c 1,89,90
 487 616 487 616 474 631 c 0,91,92
 461 645 461 645 461 666 c 0,93,94
 461 688 461 688 475.5 702.5 c 128,-1,95
 490 717 490 717 512 717 c 256,96,97
 534 717 534 717 548.5 702 c 128,-1,98
 563 687 563 687 563 666 c 0,99,100
 563 646 563 646 550 631 c 128,-1,101
 537 616 537 616 517 614 c 1,102,103
 536 611 536 611 550 598 c 0,104,105
 563 584 563 584 563 563 c 0,106,107
 563 543 563 543 550 528.5 c 128,-1,108
 537 514 537 514 517 512 c 1,109,110
 536 509 536 509 550 496 c 0,111,112
 563 482 563 482 563 461 c 0,113,114
 563 441 563 441 550 426.5 c 128,-1,115
 537 412 537 412 517 410 c 1,116,117
 536 407 536 407 550 393 c 0,118,119
 563 379 563 379 563 358 c 0,120,121
 563 338 563 338 550 323.5 c 128,-1,122
 537 309 537 309 517 307 c 1,123,124
 536 304 536 304 550 291 c 0,125,126
 563 277 563 277 563 256 c 0,127,128
 563 236 563 236 550 221.5 c 128,-1,129
 537 207 537 207 517 205 c 1,130,131
 536 202 536 202 550 188 c 0,132,133
 563 174 563 174 563 154 c 0,134,135
 563 132 563 132 548.5 117 c 128,-1,136
 534 102 534 102 512 102 c 256,137,138
 490 102 490 102 475.5 117 c 128,-1,139
 461 132 461 132 461 154 c 0,140,141
 461 174 461 174 474 188 c 0,142,143
 486 201 486 201 507 205 c 1,144,145
 487 207 487 207 474 221 c 128,-1,146
 461 235 461 235 461 256 c 0,147,148
 461 276 461 276 474 291 c 0,149,150
 486 304 486 304 507 307 c 1,151,152
 487 309 487 309 474 324 c 0,153,154
 461 338 461 338 461 358 c 256,155,156
 461 378 461 378 474 393 c 0,157,158
 486 406 486 406 507 410 c 1,159,160
 487 412 487 412 474 426 c 128,-1,161
 461 440 461 440 461 461 c 0,162,163
 461 481 461 481 474 496 c 0,164,165
 486 509 486 509 507 512 c 1,166,167
 487 514 487 514 474 528 c 0,168,169
 461 543 461 543 461 563 c 256,85,86
154 51 m 256,170,171
 154 73 154 73 168.5 87.5 c 128,-1,172
 183 102 183 102 205 102 c 256,173,174
 227 102 227 102 241 87 c 0,175,176
 254 74 254 74 256 55 c 1,177,178
 257 73 257 73 270 87 c 0,179,180
 285 102 285 102 307 102 c 256,181,182
 329 102 329 102 343.5 87.5 c 128,-1,183
 358 73 358 73 358 51 c 1,184,185
 358 73 358 73 373 87.5 c 128,-1,186
 388 102 388 102 410 102 c 256,187,188
 432 102 432 102 446.5 87.5 c 128,-1,189
 461 73 461 73 461 51 c 256,190,191
 461 29 461 29 446 14.5 c 128,-1,192
 431 0 431 0 410 0 c 0,193,194
 390 0 390 0 375 13 c 0,195,196
 361 25 361 25 358 46 c 1,197,198
 355 26 355 26 342 13 c 0,199,200
 328 0 328 0 307 0 c 0,201,202
 287 0 287 0 272 13 c 0,203,204
 258 25 258 25 256 46 c 1,205,206
 253 26 253 26 240 13 c 0,207,208
 226 0 226 0 205 0 c 0,209,210
 183 0 183 0 168.5 14.5 c 128,-1,211
 154 29 154 29 154 51 c 256,170,171
EndSplineSet
EndChar

StartChar: V
Encoding: 86 86 35
Width: 614
VWidth: 1024
Flags: W
LayerCount: 2
Fore
SplineSet
51 563 m 256,0,1
 51 583 51 583 65 598 c 0,2,3
 77 611 77 611 97 614 c 1,4,5
 77 616 77 616 65 631 c 0,6,7
 52 645 52 645 51 666 c 0,8,9
 51 688 51 688 66 702.5 c 128,-1,10
 81 717 81 717 102 717 c 0,11,12
 124 717 124 717 139 702 c 128,-1,13
 154 687 154 687 154 666 c 0,14,15
 154 646 154 646 140.5 631 c 128,-1,16
 127 616 127 616 108 614 c 1,17,18
 127 611 127 611 140 598 c 0,19,20
 153 584 153 584 154 563 c 0,21,22
 154 543 154 543 140.5 528.5 c 128,-1,23
 127 514 127 514 108 512 c 1,24,25
 127 509 127 509 140 496 c 0,26,27
 153 482 153 482 154 461 c 0,28,29
 154 441 154 441 140.5 426.5 c 128,-1,30
 127 412 127 412 108 410 c 1,31,32
 127 407 127 407 140 393 c 128,-1,33
 153 379 153 379 154 358 c 0,34,35
 154 338 154 338 140.5 323.5 c 128,-1,36
 127 309 127 309 108 307 c 1,37,38
 127 304 127 304 140 291 c 0,39,40
 153 277 153 277 154 256 c 0,41,42
 154 234 154 234 139 219.5 c 128,-1,43
 124 205 124 205 102 205 c 256,44,45
 80 205 80 205 65.5 219.5 c 128,-1,46
 51 234 51 234 51 256 c 0,47,48
 51 276 51 276 65 291 c 0,49,50
 77 304 77 304 97 307 c 1,51,52
 77 309 77 309 65 324 c 0,53,54
 52 338 52 338 51 358 c 0,55,56
 51 378 51 378 65 393 c 0,57,58
 77 406 77 406 97 410 c 1,59,60
 77 412 77 412 65 426 c 0,61,62
 52 440 52 440 51 461 c 0,63,64
 51 481 51 481 65 496 c 0,65,66
 77 509 77 509 97 512 c 1,67,68
 77 514 77 514 65 528 c 0,69,70
 51 543 51 543 51 563 c 256,0,1
461 563 m 256,71,72
 461 583 461 583 474 598 c 0,73,74
 486 611 486 611 507 614 c 1,75,76
 487 616 487 616 474 631 c 0,77,78
 461 645 461 645 461 666 c 0,79,80
 461 688 461 688 475.5 702.5 c 128,-1,81
 490 717 490 717 512 717 c 256,82,83
 534 717 534 717 548.5 702 c 128,-1,84
 563 687 563 687 563 666 c 0,85,86
 563 646 563 646 550 631 c 128,-1,87
 537 616 537 616 517 614 c 1,88,89
 536 611 536 611 550 598 c 0,90,91
 563 584 563 584 563 563 c 0,92,93
 563 543 563 543 550 528.5 c 128,-1,94
 537 514 537 514 517 512 c 1,95,96
 536 509 536 509 550 496 c 0,97,98
 563 482 563 482 563 461 c 0,99,100
 563 441 563 441 550 426.5 c 128,-1,101
 537 412 537 412 517 410 c 1,102,103
 536 407 536 407 550 393 c 0,104,105
 563 379 563 379 563 358 c 0,106,107
 563 338 563 338 550 323.5 c 128,-1,108
 537 309 537 309 517 307 c 1,109,110
 536 304 536 304 550 291 c 0,111,112
 563 277 563 277 563 256 c 0,113,114
 563 234 563 234 548.5 219.5 c 128,-1,115
 534 205 534 205 512 205 c 256,116,117
 490 205 490 205 475.5 219.5 c 128,-1,118
 461 234 461 234 461 256 c 0,119,120
 461 276 461 276 474 291 c 0,121,122
 486 304 486 304 507 307 c 1,123,124
 487 309 487 309 474 324 c 0,125,126
 461 338 461 338 461 358 c 256,127,128
 461 378 461 378 474 393 c 0,129,130
 486 406 486 406 507 410 c 1,131,132
 487 412 487 412 474 426 c 128,-1,133
 461 440 461 440 461 461 c 0,134,135
 461 481 461 481 474 496 c 0,136,137
 486 509 486 509 507 512 c 1,138,139
 487 514 487 514 474 528 c 0,140,141
 461 543 461 543 461 563 c 256,71,72
358 154 m 256,142,143
 358 176 358 176 373 190.5 c 128,-1,144
 388 205 388 205 410 205 c 256,145,146
 432 205 432 205 446.5 190 c 128,-1,147
 461 175 461 175 461 154 c 0,148,149
 461 132 461 132 446 117 c 128,-1,150
 431 102 431 102 410 102 c 0,151,152
 388 102 388 102 373 117 c 128,-1,153
 358 132 358 132 358 154 c 256,142,143
256 51 m 256,154,155
 256 73 256 73 271 87.5 c 128,-1,156
 286 102 286 102 307 102 c 0,157,158
 329 102 329 102 343.5 87.5 c 128,-1,159
 358 73 358 73 358 51 c 256,160,161
 358 29 358 29 343.5 14.5 c 128,-1,162
 329 0 329 0 307 0 c 256,163,164
 285 0 285 0 270.5 14.5 c 128,-1,165
 256 29 256 29 256 51 c 256,154,155
154 154 m 256,166,167
 154 176 154 176 168.5 190.5 c 128,-1,168
 183 205 183 205 205 205 c 256,169,170
 227 205 227 205 241.5 190 c 128,-1,171
 256 175 256 175 256 154 c 0,172,173
 256 132 256 132 241 117 c 128,-1,174
 226 102 226 102 205 102 c 0,175,176
 183 102 183 102 168.5 117 c 128,-1,177
 154 132 154 132 154 154 c 256,166,167
EndSplineSet
EndChar

StartChar: W
Encoding: 87 87 36
Width: 614
VWidth: 1024
Flags: W
LayerCount: 2
Fore
SplineSet
51 563 m 256,0,1
 51 583 51 583 65 598 c 0,2,3
 77 611 77 611 97 614 c 1,4,5
 77 616 77 616 65 631 c 0,6,7
 52 645 52 645 51 666 c 0,8,9
 51 688 51 688 66 702.5 c 128,-1,10
 81 717 81 717 102 717 c 0,11,12
 124 717 124 717 139 702 c 128,-1,13
 154 687 154 687 154 666 c 0,14,15
 154 646 154 646 140.5 631 c 128,-1,16
 127 616 127 616 108 614 c 1,17,18
 127 611 127 611 140 598 c 0,19,20
 153 584 153 584 154 563 c 0,21,22
 154 543 154 543 140.5 528.5 c 128,-1,23
 127 514 127 514 108 512 c 1,24,25
 127 509 127 509 140 496 c 0,26,27
 153 482 153 482 154 461 c 0,28,29
 154 441 154 441 140.5 426.5 c 128,-1,30
 127 412 127 412 108 410 c 1,31,32
 127 407 127 407 140 393 c 128,-1,33
 153 379 153 379 154 358 c 0,34,35
 154 338 154 338 140.5 323.5 c 128,-1,36
 127 309 127 309 108 307 c 1,37,38
 127 304 127 304 140 291 c 0,39,40
 153 277 153 277 154 256 c 0,41,42
 154 236 154 236 140.5 221.5 c 128,-1,43
 127 207 127 207 108 205 c 1,44,45
 127 202 127 202 140 188 c 128,-1,46
 153 174 153 174 154 154 c 0,47,48
 154 132 154 132 139 117 c 128,-1,49
 124 102 124 102 102 102 c 256,50,51
 80 102 80 102 65.5 117 c 128,-1,52
 51 132 51 132 51 154 c 0,53,54
 51 174 51 174 65 188 c 0,55,56
 77 201 77 201 97 205 c 1,57,58
 77 207 77 207 65 221 c 0,59,60
 52 235 52 235 51 256 c 0,61,62
 51 276 51 276 65 291 c 0,63,64
 77 304 77 304 97 307 c 1,65,66
 77 309 77 309 65 324 c 0,67,68
 52 338 52 338 51 358 c 0,69,70
 51 378 51 378 65 393 c 0,71,72
 77 406 77 406 97 410 c 1,73,74
 77 412 77 412 65 426 c 0,75,76
 52 440 52 440 51 461 c 0,77,78
 51 481 51 481 65 496 c 0,79,80
 77 509 77 509 97 512 c 1,81,82
 77 514 77 514 65 528 c 0,83,84
 51 543 51 543 51 563 c 256,0,1
461 563 m 256,85,86
 461 583 461 583 474 598 c 0,87,88
 486 611 486 611 507 614 c 1,89,90
 487 616 487 616 474 631 c 0,91,92
 461 645 461 645 461 666 c 0,93,94
 461 688 461 688 475.5 702.5 c 128,-1,95
 490 717 490 717 512 717 c 256,96,97
 534 717 534 717 548.5 702 c 128,-1,98
 563 687 563 687 563 666 c 0,99,100
 563 646 563 646 550 631 c 128,-1,101
 537 616 537 616 517 614 c 1,102,103
 536 611 536 611 550 598 c 0,104,105
 563 584 563 584 563 563 c 0,106,107
 563 543 563 543 550 528.5 c 128,-1,108
 537 514 537 514 517 512 c 1,109,110
 536 509 536 509 550 496 c 0,111,112
 563 482 563 482 563 461 c 0,113,114
 563 441 563 441 550 426.5 c 128,-1,115
 537 412 537 412 517 410 c 1,116,117
 536 407 536 407 550 393 c 0,118,119
 563 379 563 379 563 358 c 0,120,121
 563 338 563 338 550 323.5 c 128,-1,122
 537 309 537 309 517 307 c 1,123,124
 536 304 536 304 550 291 c 0,125,126
 563 277 563 277 563 256 c 0,127,128
 563 236 563 236 550 221.5 c 128,-1,129
 537 207 537 207 517 205 c 1,130,131
 536 202 536 202 550 188 c 0,132,133
 563 174 563 174 563 154 c 0,134,135
 563 132 563 132 548.5 117 c 128,-1,136
 534 102 534 102 512 102 c 256,137,138
 490 102 490 102 475.5 117 c 128,-1,139
 461 132 461 132 461 154 c 0,140,141
 461 174 461 174 474 188 c 0,142,143
 486 201 486 201 507 205 c 1,144,145
 487 207 487 207 474 221 c 128,-1,146
 461 235 461 235 461 256 c 0,147,148
 461 276 461 276 474 291 c 0,149,150
 486 304 486 304 507 307 c 1,151,152
 487 309 487 309 474 324 c 0,153,154
 461 338 461 338 461 358 c 256,155,156
 461 378 461 378 474 393 c 0,157,158
 486 406 486 406 507 410 c 1,159,160
 487 412 487 412 474 426 c 128,-1,161
 461 440 461 440 461 461 c 0,162,163
 461 481 461 481 474 496 c 0,164,165
 486 509 486 509 507 512 c 1,166,167
 487 514 487 514 474 528 c 0,168,169
 461 543 461 543 461 563 c 256,85,86
256 154 m 0,170,171
 256 174 256 174 269 188 c 0,172,173
 281 201 281 201 302 205 c 1,174,175
 282 207 282 207 269 221 c 128,-1,176
 256 235 256 235 256 256 c 0,177,178
 256 278 256 278 271 292.5 c 128,-1,179
 286 307 286 307 307 307 c 0,180,181
 329 307 329 307 343.5 292.5 c 128,-1,182
 358 278 358 278 358 256 c 0,183,184
 358 236 358 236 345 221.5 c 128,-1,185
 332 207 332 207 312 205 c 1,186,187
 331 202 331 202 345 188 c 0,188,189
 358 174 358 174 358 154 c 0,190,191
 358 132 358 132 343.5 117 c 128,-1,192
 329 102 329 102 307 102 c 256,193,194
 285 102 285 102 270.5 117 c 128,-1,195
 256 132 256 132 256 154 c 0,170,171
358 51 m 256,196,197
 358 73 358 73 373 87.5 c 128,-1,198
 388 102 388 102 410 102 c 256,199,200
 432 102 432 102 446.5 87.5 c 128,-1,201
 461 73 461 73 461 51 c 256,202,203
 461 29 461 29 446 14.5 c 128,-1,204
 431 0 431 0 410 0 c 0,205,206
 388 0 388 0 373 14.5 c 128,-1,207
 358 29 358 29 358 51 c 256,196,197
154 51 m 256,208,209
 154 73 154 73 168.5 87.5 c 128,-1,210
 183 102 183 102 205 102 c 256,211,212
 227 102 227 102 241.5 87.5 c 128,-1,213
 256 73 256 73 256 51 c 256,214,215
 256 29 256 29 241 14.5 c 128,-1,216
 226 0 226 0 205 0 c 0,217,218
 183 0 183 0 168.5 14.5 c 128,-1,219
 154 29 154 29 154 51 c 256,208,209
EndSplineSet
EndChar

StartChar: X
Encoding: 88 88 37
Width: 614
VWidth: 1024
Flags: W
LayerCount: 2
Fore
SplineSet
51 563 m 0,0,1
 51 583 51 583 65 598 c 0,2,3
 77 611 77 611 97 614 c 1,4,5
 77 616 77 616 65 631 c 0,6,7
 52 645 52 645 51 666 c 0,8,9
 51 688 51 688 66 702.5 c 128,-1,10
 81 717 81 717 102 717 c 0,11,12
 124 717 124 717 139 702 c 128,-1,13
 154 687 154 687 154 666 c 0,14,15
 154 646 154 646 140.5 631 c 128,-1,16
 127 616 127 616 108 614 c 1,17,18
 127 611 127 611 140 598 c 0,19,20
 153 584 153 584 154 563 c 0,21,22
 154 541 154 541 139 526.5 c 128,-1,23
 124 512 124 512 102 512 c 256,24,25
 80 512 80 512 65.5 526.5 c 128,-1,26
 51 541 51 541 51 563 c 0,0,1
51 154 m 0,27,28
 51 176 51 176 66 190.5 c 128,-1,29
 81 205 81 205 102 205 c 0,30,31
 124 205 124 205 139 190 c 128,-1,32
 154 175 154 175 154 154 c 0,33,34
 154 134 154 134 140.5 119 c 128,-1,35
 127 104 127 104 108 102 c 1,36,37
 127 99 127 99 140 86 c 0,38,39
 153 72 153 72 154 51 c 0,40,41
 154 29 154 29 139 14.5 c 128,-1,42
 124 0 124 0 102 0 c 256,43,44
 80 0 80 0 65.5 15 c 128,-1,45
 51 30 51 30 51 51 c 0,46,47
 51 71 51 71 65 86 c 0,48,49
 77 99 77 99 97 102 c 1,50,51
 77 104 77 104 65 119 c 0,52,53
 51 134 51 134 51 154 c 0,27,28
461 51 m 0,54,55
 461 71 461 71 474 86 c 0,56,57
 486 99 486 99 507 102 c 1,58,59
 487 104 487 104 474 119 c 0,60,61
 461 133 461 133 461 154 c 0,62,63
 461 176 461 176 475.5 190.5 c 128,-1,64
 490 205 490 205 512 205 c 256,65,66
 534 205 534 205 548.5 190 c 128,-1,67
 563 175 563 175 563 154 c 0,68,69
 563 134 563 134 550 119 c 128,-1,70
 537 104 537 104 517 102 c 1,71,72
 536 99 536 99 550 86 c 0,73,74
 563 72 563 72 563 51 c 0,75,76
 563 29 563 29 548.5 14.5 c 128,-1,77
 534 0 534 0 512 0 c 256,78,79
 490 0 490 0 475.5 14.5 c 128,-1,80
 461 29 461 29 461 51 c 0,54,55
461 563 m 0,81,82
 461 583 461 583 474 598 c 0,83,84
 486 611 486 611 507 614 c 1,85,86
 487 616 487 616 474 631 c 0,87,88
 461 645 461 645 461 666 c 0,89,90
 461 688 461 688 475.5 702.5 c 128,-1,91
 490 717 490 717 512 717 c 256,92,93
 534 717 534 717 548.5 702 c 128,-1,94
 563 687 563 687 563 666 c 0,95,96
 563 646 563 646 550 631 c 128,-1,97
 537 616 537 616 517 614 c 1,98,99
 536 611 536 611 550 598 c 0,100,101
 563 584 563 584 563 563 c 0,102,103
 563 541 563 541 548.5 526.5 c 128,-1,104
 534 512 534 512 512 512 c 256,105,106
 490 512 490 512 475.5 526.5 c 128,-1,107
 461 541 461 541 461 563 c 0,81,82
358 256 m 256,108,109
 358 278 358 278 373 292.5 c 128,-1,110
 388 307 388 307 410 307 c 256,111,112
 432 307 432 307 446.5 292.5 c 128,-1,113
 461 278 461 278 461 256 c 256,114,115
 461 234 461 234 446 219.5 c 128,-1,116
 431 205 431 205 410 205 c 0,117,118
 388 205 388 205 373 219.5 c 128,-1,119
 358 234 358 234 358 256 c 256,108,109
154 256 m 256,120,121
 154 278 154 278 168.5 292.5 c 128,-1,122
 183 307 183 307 205 307 c 256,123,124
 227 307 227 307 241.5 292.5 c 128,-1,125
 256 278 256 278 256 256 c 256,126,127
 256 234 256 234 241 219.5 c 128,-1,128
 226 205 226 205 205 205 c 0,129,130
 183 205 183 205 168.5 219.5 c 128,-1,131
 154 234 154 234 154 256 c 256,120,121
256 358 m 256,132,133
 256 380 256 380 271 395 c 128,-1,134
 286 410 286 410 307 410 c 0,135,136
 329 410 329 410 343.5 395 c 128,-1,137
 358 380 358 380 358 358 c 256,138,139
 358 336 358 336 343.5 321.5 c 128,-1,140
 329 307 329 307 307 307 c 256,141,142
 285 307 285 307 270.5 321.5 c 128,-1,143
 256 336 256 336 256 358 c 256,132,133
358 461 m 256,144,145
 358 483 358 483 373 497.5 c 128,-1,146
 388 512 388 512 410 512 c 256,147,148
 432 512 432 512 446.5 497 c 128,-1,149
 461 482 461 482 461 461 c 0,150,151
 461 439 461 439 446 424.5 c 128,-1,152
 431 410 431 410 410 410 c 0,153,154
 388 410 388 410 373 424.5 c 128,-1,155
 358 439 358 439 358 461 c 256,144,145
154 461 m 256,156,157
 154 483 154 483 168.5 497.5 c 128,-1,158
 183 512 183 512 205 512 c 256,159,160
 227 512 227 512 241.5 497 c 128,-1,161
 256 482 256 482 256 461 c 0,162,163
 256 439 256 439 241 424.5 c 128,-1,164
 226 410 226 410 205 410 c 0,165,166
 183 410 183 410 168.5 424.5 c 128,-1,167
 154 439 154 439 154 461 c 256,156,157
EndSplineSet
EndChar

StartChar: Y
Encoding: 89 89 38
Width: 614
VWidth: 1024
Flags: W
LayerCount: 2
Fore
SplineSet
256 154 m 256,0,1
 256 174 256 174 269 188 c 0,2,3
 281 201 281 201 302 205 c 1,4,5
 282 207 282 207 269 221 c 128,-1,6
 256 235 256 235 256 256 c 0,7,8
 256 278 256 278 271 292.5 c 128,-1,9
 286 307 286 307 307 307 c 0,10,11
 329 307 329 307 343.5 292.5 c 128,-1,12
 358 278 358 278 358 256 c 0,13,14
 358 236 358 236 345 221.5 c 128,-1,15
 332 207 332 207 312 205 c 1,16,17
 331 202 331 202 345 188 c 0,18,19
 358 174 358 174 358 154 c 256,20,21
 358 134 358 134 345 119 c 128,-1,22
 332 104 332 104 312 102 c 1,23,24
 331 99 331 99 345 86 c 0,25,26
 358 72 358 72 358 51 c 0,27,28
 358 29 358 29 343.5 14.5 c 128,-1,29
 329 0 329 0 307 0 c 256,30,31
 285 0 285 0 270.5 15 c 128,-1,32
 256 30 256 30 256 51 c 0,33,34
 256 71 256 71 269 86 c 0,35,36
 281 99 281 99 302 102 c 1,37,38
 282 104 282 104 269 119 c 128,-1,39
 256 134 256 134 256 154 c 256,0,1
51 563 m 256,40,41
 51 583 51 583 65 598 c 0,42,43
 77 611 77 611 97 614 c 1,44,45
 77 616 77 616 65 631 c 0,46,47
 52 645 52 645 51 666 c 0,48,49
 51 688 51 688 66 702.5 c 128,-1,50
 81 717 81 717 102 717 c 0,51,52
 124 717 124 717 139 702 c 128,-1,53
 154 687 154 687 154 666 c 0,54,55
 154 646 154 646 140.5 631 c 128,-1,56
 127 616 127 616 108 614 c 1,57,58
 127 611 127 611 140 598 c 0,59,60
 153 584 153 584 154 563 c 0,61,62
 154 543 154 543 140.5 528.5 c 128,-1,63
 127 514 127 514 108 512 c 1,64,65
 127 509 127 509 140 496 c 0,66,67
 153 482 153 482 154 461 c 0,68,69
 154 439 154 439 139 424.5 c 128,-1,70
 124 410 124 410 102 410 c 256,71,72
 80 410 80 410 65.5 424.5 c 128,-1,73
 51 439 51 439 51 461 c 0,74,75
 51 481 51 481 65 496 c 0,76,77
 77 509 77 509 97 512 c 1,78,79
 77 514 77 514 65 528 c 0,80,81
 51 543 51 543 51 563 c 256,40,41
461 563 m 256,82,83
 461 583 461 583 474 598 c 0,84,85
 486 611 486 611 507 614 c 1,86,87
 487 616 487 616 474 631 c 0,88,89
 461 645 461 645 461 666 c 0,90,91
 461 688 461 688 475.5 702.5 c 128,-1,92
 490 717 490 717 512 717 c 256,93,94
 534 717 534 717 548.5 702 c 128,-1,95
 563 687 563 687 563 666 c 0,96,97
 563 646 563 646 550 631 c 128,-1,98
 537 616 537 616 517 614 c 1,99,100
 536 611 536 611 550 598 c 0,101,102
 563 584 563 584 563 563 c 0,103,104
 563 543 563 543 550 528.5 c 128,-1,105
 537 514 537 514 517 512 c 1,106,107
 536 509 536 509 550 496 c 0,108,109
 563 482 563 482 563 461 c 0,110,111
 563 439 563 439 548.5 424.5 c 128,-1,112
 534 410 534 410 512 410 c 256,113,114
 490 410 490 410 475.5 424.5 c 128,-1,115
 461 439 461 439 461 461 c 0,116,117
 461 481 461 481 474 496 c 0,118,119
 486 509 486 509 507 512 c 1,120,121
 487 514 487 514 474 528 c 0,122,123
 461 543 461 543 461 563 c 256,82,83
358 358 m 256,124,125
 358 380 358 380 373 395 c 128,-1,126
 388 410 388 410 410 410 c 256,127,128
 432 410 432 410 446.5 395 c 128,-1,129
 461 380 461 380 461 358 c 256,130,131
 461 336 461 336 446 321.5 c 128,-1,132
 431 307 431 307 410 307 c 0,133,134
 388 307 388 307 373 321.5 c 128,-1,135
 358 336 358 336 358 358 c 256,124,125
154 358 m 256,136,137
 154 380 154 380 168.5 395 c 128,-1,138
 183 410 183 410 205 410 c 256,139,140
 227 410 227 410 241.5 395 c 128,-1,141
 256 380 256 380 256 358 c 256,142,143
 256 336 256 336 241 321.5 c 128,-1,144
 226 307 226 307 205 307 c 0,145,146
 183 307 183 307 168.5 321.5 c 128,-1,147
 154 336 154 336 154 358 c 256,136,137
EndSplineSet
EndChar

StartChar: Z
Encoding: 90 90 39
Width: 614
VWidth: 1024
Flags: W
LayerCount: 2
Fore
SplineSet
51 154 m 0,0,1
 51 176 51 176 66 190.5 c 128,-1,2
 81 205 81 205 102 205 c 0,3,4
 124 205 124 205 139 190 c 128,-1,5
 154 175 154 175 154 154 c 0,6,7
 154 134 154 134 140.5 119 c 128,-1,8
 127 104 127 104 108 102 c 1,9,10
 127 99 127 99 140 86 c 0,11,12
 151 73 151 73 154 55 c 1,13,14
 155 73 155 73 168 87 c 0,15,16
 183 102 183 102 205 102 c 0,17,18
 225 102 225 102 239.5 89 c 128,-1,19
 254 76 254 76 256 55 c 1,20,21
 258 75 258 75 272.5 88.5 c 128,-1,22
 287 102 287 102 307 102 c 256,23,24
 327 102 327 102 342 89 c 0,25,26
 355 76 355 76 358 56 c 1,27,28
 360 75 360 75 374.5 88.5 c 128,-1,29
 389 102 389 102 410 102 c 0,30,31
 430 102 430 102 444 89 c 0,32,33
 457 76 457 76 461 56 c 1,34,35
 463 75 463 75 477.5 88.5 c 128,-1,36
 492 102 492 102 512 102 c 0,37,38
 534 102 534 102 548.5 87.5 c 128,-1,39
 563 73 563 73 563 51 c 256,40,41
 563 29 563 29 548.5 14.5 c 128,-1,42
 534 0 534 0 512 0 c 0,43,44
 492 0 492 0 477 13 c 0,45,46
 463 25 463 25 461 46 c 1,47,48
 458 26 458 26 444 13 c 128,-1,49
 430 0 430 0 410 0 c 256,50,51
 390 0 390 0 375 13 c 0,52,53
 361 25 361 25 358 46 c 1,54,55
 355 26 355 26 342 13 c 0,56,57
 328 0 328 0 307 0 c 0,58,59
 287 0 287 0 272 13 c 0,60,61
 258 25 258 25 256 46 c 1,62,63
 253 26 253 26 240 13 c 0,64,65
 226 0 226 0 205 0 c 0,66,67
 185 0 185 0 170 13 c 0,68,69
 156 25 156 25 154 46 c 1,70,71
 151 26 151 26 137 13 c 128,-1,72
 123 0 123 0 102 0 c 0,73,74
 80 0 80 0 65.5 15 c 128,-1,75
 51 30 51 30 51 51 c 0,76,77
 51 71 51 71 65 86 c 0,78,79
 77 99 77 99 97 102 c 1,80,81
 77 104 77 104 65 119 c 0,82,83
 51 134 51 134 51 154 c 0,0,1
461 563 m 0,84,85
 461 583 461 583 474 598 c 0,86,87
 486 611 486 611 507 614 c 1,88,89
 488 616 488 616 475.5 628.5 c 128,-1,90
 463 641 463 641 461 660 c 1,91,92
 458 640 458 640 444 628 c 0,93,94
 430 615 430 615 410 614 c 0,95,96
 390 614 390 614 375 628 c 0,97,98
 361 640 361 640 358 660 c 1,99,100
 355 640 355 640 342 628 c 0,101,102
 328 615 328 615 307 614 c 0,103,104
 287 614 287 614 272 628 c 0,105,106
 258 640 258 640 256 660 c 1,107,108
 253 640 253 640 240 628 c 0,109,110
 226 615 226 615 205 614 c 0,111,112
 185 614 185 614 170 628 c 0,113,114
 156 640 156 640 154 660 c 1,115,116
 151 640 151 640 137 628 c 0,117,118
 123 615 123 615 102 614 c 0,119,120
 80 614 80 614 65.5 629 c 128,-1,121
 51 644 51 644 51 666 c 256,122,123
 51 688 51 688 66 702.5 c 128,-1,124
 81 717 81 717 102 717 c 0,125,126
 122 717 122 717 137 703 c 0,127,128
 150 690 150 690 154 671 c 1,129,130
 156 690 156 690 170 703.5 c 128,-1,131
 184 717 184 717 205 717 c 0,132,133
 227 717 227 717 241.5 702 c 128,-1,134
 256 687 256 687 256 666 c 1,135,136
 256 688 256 688 271 702.5 c 128,-1,137
 286 717 286 717 307 717 c 0,138,139
 329 717 329 717 343 701 c 0,140,141
 356 688 356 688 358 670 c 1,142,143
 359 688 359 688 373 701 c 0,144,145
 388 716 388 716 410 717 c 0,146,147
 432 717 432 717 445 701 c 0,148,149
 458 688 458 688 461 670 c 1,150,151
 462 688 462 688 475 701 c 0,152,153
 490 716 490 716 512 717 c 0,154,155
 534 717 534 717 548.5 702 c 128,-1,156
 563 687 563 687 563 666 c 0,157,158
 563 646 563 646 550 631 c 128,-1,159
 537 616 537 616 517 614 c 1,160,161
 536 611 536 611 550 598 c 0,162,163
 563 584 563 584 563 563 c 0,164,165
 563 541 563 541 548.5 526.5 c 128,-1,166
 534 512 534 512 512 512 c 256,167,168
 490 512 490 512 475.5 526.5 c 128,-1,169
 461 541 461 541 461 563 c 0,84,85
154 256 m 256,170,171
 154 278 154 278 168.5 292.5 c 128,-1,172
 183 307 183 307 205 307 c 256,173,174
 227 307 227 307 241.5 292.5 c 128,-1,175
 256 278 256 278 256 256 c 256,176,177
 256 234 256 234 241 219.5 c 128,-1,178
 226 205 226 205 205 205 c 0,179,180
 183 205 183 205 168.5 219.5 c 128,-1,181
 154 234 154 234 154 256 c 256,170,171
358 461 m 256,182,183
 358 483 358 483 373 497.5 c 128,-1,184
 388 512 388 512 410 512 c 256,185,186
 432 512 432 512 446.5 497 c 128,-1,187
 461 482 461 482 461 461 c 0,188,189
 461 439 461 439 446 424.5 c 128,-1,190
 431 410 431 410 410 410 c 0,191,192
 388 410 388 410 373 424.5 c 128,-1,193
 358 439 358 439 358 461 c 256,182,183
256 358 m 256,194,195
 256 380 256 380 271 395 c 128,-1,196
 286 410 286 410 307 410 c 0,197,198
 329 410 329 410 343.5 395 c 128,-1,199
 358 380 358 380 358 358 c 256,200,201
 358 336 358 336 343.5 321.5 c 128,-1,202
 329 307 329 307 307 307 c 256,203,204
 285 307 285 307 270.5 321.5 c 128,-1,205
 256 336 256 336 256 358 c 256,194,195
EndSplineSet
EndChar

StartChar: bracketleft
Encoding: 91 91 40
Width: 614
VWidth: 1024
Flags: W
LayerCount: 2
Fore
SplineSet
154 666 m 0,0,1
 154 688 154 688 168.5 702.5 c 128,-1,2
 183 717 183 717 205 717 c 256,3,4
 227 717 227 717 241.5 702 c 128,-1,5
 256 687 256 687 256 666 c 1,6,7
 256 688 256 688 271 702.5 c 128,-1,8
 286 717 286 717 307 717 c 0,9,10
 329 717 329 717 343 701 c 0,11,12
 356 688 356 688 358 670 c 1,13,14
 359 688 359 688 373 701 c 0,15,16
 388 716 388 716 410 717 c 0,17,18
 432 717 432 717 446.5 702 c 128,-1,19
 461 687 461 687 461 666 c 0,20,21
 461 644 461 644 446 629 c 128,-1,22
 431 614 431 614 410 614 c 0,23,24
 390 614 390 614 375 628 c 0,25,26
 361 640 361 640 358 660 c 1,27,28
 355 640 355 640 342 628 c 0,29,30
 328 615 328 615 307 614 c 0,31,32
 287 614 287 614 272 628 c 0,33,34
 258 640 258 640 256 660 c 1,35,36
 253 641 253 641 240 628.5 c 128,-1,37
 227 616 227 616 210 614 c 1,38,39
 229 611 229 611 243 598 c 0,40,41
 256 584 256 584 256 563 c 0,42,43
 256 543 256 543 242.5 528.5 c 128,-1,44
 229 514 229 514 210 512 c 1,45,46
 229 509 229 509 243 496 c 0,47,48
 256 482 256 482 256 461 c 0,49,50
 256 441 256 441 242.5 426.5 c 128,-1,51
 229 412 229 412 210 410 c 1,52,53
 229 407 229 407 243 393 c 0,54,55
 256 379 256 379 256 358 c 0,56,57
 256 338 256 338 242.5 323.5 c 128,-1,58
 229 309 229 309 210 307 c 1,59,60
 229 304 229 304 243 291 c 0,61,62
 256 277 256 277 256 256 c 0,63,64
 256 236 256 236 242.5 221.5 c 128,-1,65
 229 207 229 207 210 205 c 1,66,67
 229 202 229 202 243 188 c 0,68,69
 256 174 256 174 256 154 c 256,70,71
 256 134 256 134 242.5 119 c 128,-1,72
 229 104 229 104 210 102 c 1,73,74
 229 99 229 99 243 86 c 0,75,76
 256 72 256 72 256 51 c 1,77,78
 256 73 256 73 271 87.5 c 128,-1,79
 286 102 286 102 307 102 c 0,80,81
 329 102 329 102 343 87 c 0,82,83
 356 74 356 74 358 55 c 1,84,85
 359 73 359 73 373 87 c 0,86,87
 388 102 388 102 410 102 c 256,88,89
 432 102 432 102 446.5 87.5 c 128,-1,90
 461 73 461 73 461 51 c 256,91,92
 461 29 461 29 446 14.5 c 128,-1,93
 431 0 431 0 410 0 c 0,94,95
 390 0 390 0 375 13 c 0,96,97
 361 25 361 25 358 46 c 1,98,99
 355 26 355 26 342 13 c 0,100,101
 328 0 328 0 307 0 c 0,102,103
 287 0 287 0 272 13 c 0,104,105
 258 25 258 25 256 46 c 1,106,107
 253 26 253 26 240 13 c 0,108,109
 226 0 226 0 205 0 c 0,110,111
 183 0 183 0 168.5 15 c 128,-1,112
 154 30 154 30 154 51 c 0,113,114
 154 71 154 71 167 86 c 0,115,116
 179 99 179 99 200 102 c 1,117,118
 180 104 180 104 167 119 c 0,119,120
 154 133 154 133 154 154 c 0,121,122
 154 174 154 174 167 188 c 0,123,124
 179 201 179 201 200 205 c 1,125,126
 180 207 180 207 167 221 c 128,-1,127
 154 235 154 235 154 256 c 0,128,129
 154 276 154 276 167 291 c 0,130,131
 179 304 179 304 200 307 c 1,132,133
 180 309 180 309 167 324 c 0,134,135
 154 338 154 338 154 358 c 256,136,137
 154 378 154 378 167 393 c 0,138,139
 179 406 179 406 200 410 c 1,140,141
 180 412 180 412 167 426 c 128,-1,142
 154 440 154 440 154 461 c 0,143,144
 154 481 154 481 167 496 c 0,145,146
 179 509 179 509 200 512 c 1,147,148
 180 514 180 514 167 528 c 128,-1,149
 154 542 154 542 154 563 c 0,150,151
 154 583 154 583 167 598 c 0,152,153
 179 611 179 611 200 614 c 1,154,155
 180 616 180 616 167 631 c 128,-1,156
 154 646 154 646 154 666 c 0,0,1
EndSplineSet
EndChar

StartChar: backslash
Encoding: 92 92 41
Width: 614
VWidth: 1024
Flags: W
LayerCount: 2
Fore
SplineSet
51 563 m 0,0,1
 51 583 51 583 65 598 c 0,2,3
 77 611 77 611 97 614 c 1,4,5
 77 616 77 616 65 631 c 0,6,7
 52 645 52 645 51 666 c 0,8,9
 51 688 51 688 66 702.5 c 128,-1,10
 81 717 81 717 102 717 c 0,11,12
 124 717 124 717 139 702 c 128,-1,13
 154 687 154 687 154 666 c 0,14,15
 154 646 154 646 140.5 631 c 128,-1,16
 127 616 127 616 108 614 c 1,17,18
 127 611 127 611 140 598 c 0,19,20
 153 584 153 584 154 563 c 0,21,22
 154 541 154 541 139 526.5 c 128,-1,23
 124 512 124 512 102 512 c 256,24,25
 80 512 80 512 65.5 526.5 c 128,-1,26
 51 541 51 541 51 563 c 0,0,1
461 51 m 0,27,28
 461 71 461 71 474 86 c 0,29,30
 486 99 486 99 507 102 c 1,31,32
 487 104 487 104 474 119 c 0,33,34
 461 133 461 133 461 154 c 0,35,36
 461 176 461 176 475.5 190.5 c 128,-1,37
 490 205 490 205 512 205 c 256,38,39
 534 205 534 205 548.5 190 c 128,-1,40
 563 175 563 175 563 154 c 0,41,42
 563 134 563 134 550 119 c 128,-1,43
 537 104 537 104 517 102 c 1,44,45
 536 99 536 99 550 86 c 0,46,47
 563 72 563 72 563 51 c 0,48,49
 563 29 563 29 548.5 14.5 c 128,-1,50
 534 0 534 0 512 0 c 256,51,52
 490 0 490 0 475.5 14.5 c 128,-1,53
 461 29 461 29 461 51 c 0,27,28
358 256 m 256,54,55
 358 278 358 278 373 292.5 c 128,-1,56
 388 307 388 307 410 307 c 256,57,58
 432 307 432 307 446.5 292.5 c 128,-1,59
 461 278 461 278 461 256 c 256,60,61
 461 234 461 234 446 219.5 c 128,-1,62
 431 205 431 205 410 205 c 0,63,64
 388 205 388 205 373 219.5 c 128,-1,65
 358 234 358 234 358 256 c 256,54,55
256 358 m 256,66,67
 256 380 256 380 271 395 c 128,-1,68
 286 410 286 410 307 410 c 0,69,70
 329 410 329 410 343.5 395 c 128,-1,71
 358 380 358 380 358 358 c 256,72,73
 358 336 358 336 343.5 321.5 c 128,-1,74
 329 307 329 307 307 307 c 256,75,76
 285 307 285 307 270.5 321.5 c 128,-1,77
 256 336 256 336 256 358 c 256,66,67
154 461 m 256,78,79
 154 483 154 483 168.5 497.5 c 128,-1,80
 183 512 183 512 205 512 c 256,81,82
 227 512 227 512 241.5 497 c 128,-1,83
 256 482 256 482 256 461 c 0,84,85
 256 439 256 439 241 424.5 c 128,-1,86
 226 410 226 410 205 410 c 0,87,88
 183 410 183 410 168.5 424.5 c 128,-1,89
 154 439 154 439 154 461 c 256,78,79
EndSplineSet
EndChar

StartChar: bracketright
Encoding: 93 93 42
Width: 614
VWidth: 1024
Flags: W
LayerCount: 2
Fore
SplineSet
358 563 m 256,0,1
 358 583 358 583 372 598 c 0,2,3
 384 611 384 611 404 614 c 1,4,5
 385 616 385 616 372.5 628.5 c 128,-1,6
 360 641 360 641 358 660 c 1,7,8
 355 640 355 640 342 628 c 0,9,10
 328 615 328 615 307 614 c 0,11,12
 287 614 287 614 272 628 c 0,13,14
 258 640 258 640 256 660 c 1,15,16
 253 640 253 640 240 628 c 0,17,18
 226 615 226 615 205 614 c 0,19,20
 183 614 183 614 168.5 629 c 128,-1,21
 154 644 154 644 154 666 c 256,22,23
 154 688 154 688 168.5 702.5 c 128,-1,24
 183 717 183 717 205 717 c 256,25,26
 227 717 227 717 241.5 702 c 128,-1,27
 256 687 256 687 256 666 c 1,28,29
 256 688 256 688 271 702.5 c 128,-1,30
 286 717 286 717 307 717 c 0,31,32
 329 717 329 717 343.5 702 c 128,-1,33
 358 687 358 687 358 666 c 1,34,35
 358 688 358 688 373 702.5 c 128,-1,36
 388 717 388 717 410 717 c 256,37,38
 432 717 432 717 446.5 702 c 128,-1,39
 461 687 461 687 461 666 c 0,40,41
 461 646 461 646 447.5 631 c 128,-1,42
 434 616 434 616 415 614 c 1,43,44
 434 611 434 611 447 598 c 0,45,46
 460 584 460 584 461 563 c 0,47,48
 461 543 461 543 447.5 528.5 c 128,-1,49
 434 514 434 514 415 512 c 1,50,51
 434 509 434 509 447 496 c 0,52,53
 460 482 460 482 461 461 c 0,54,55
 461 441 461 441 447.5 426.5 c 128,-1,56
 434 412 434 412 415 410 c 1,57,58
 434 407 434 407 447 393 c 128,-1,59
 460 379 460 379 461 358 c 0,60,61
 461 338 461 338 447.5 323.5 c 128,-1,62
 434 309 434 309 415 307 c 1,63,64
 434 304 434 304 447 291 c 0,65,66
 460 277 460 277 461 256 c 0,67,68
 461 236 461 236 447.5 221.5 c 128,-1,69
 434 207 434 207 415 205 c 1,70,71
 434 202 434 202 447 188 c 128,-1,72
 460 174 460 174 461 154 c 0,73,74
 461 134 461 134 447.5 119 c 128,-1,75
 434 104 434 104 415 102 c 1,76,77
 434 99 434 99 447 86 c 0,78,79
 460 72 460 72 461 51 c 0,80,81
 461 29 461 29 446 14.5 c 128,-1,82
 431 0 431 0 410 0 c 0,83,84
 390 0 390 0 375 13 c 0,85,86
 361 25 361 25 358 46 c 1,87,88
 355 26 355 26 342 13 c 0,89,90
 328 0 328 0 307 0 c 0,91,92
 287 0 287 0 272 13 c 0,93,94
 258 25 258 25 256 46 c 1,95,96
 253 26 253 26 240 13 c 0,97,98
 226 0 226 0 205 0 c 0,99,100
 183 0 183 0 168.5 15 c 128,-1,101
 154 30 154 30 154 51 c 0,102,103
 154 73 154 73 168.5 87.5 c 128,-1,104
 183 102 183 102 205 102 c 256,105,106
 227 102 227 102 241.5 87.5 c 128,-1,107
 256 73 256 73 256 51 c 1,108,109
 256 73 256 73 271 87.5 c 128,-1,110
 286 102 286 102 307 102 c 0,111,112
 327 102 327 102 342 89 c 0,113,114
 355 76 355 76 358 56 c 1,115,116
 360 73 360 73 372.5 86 c 128,-1,117
 385 99 385 99 404 102 c 1,118,119
 384 104 384 104 372 119 c 0,120,121
 359 133 359 133 358 154 c 0,122,123
 358 174 358 174 372 188 c 0,124,125
 384 201 384 201 404 205 c 1,126,127
 384 207 384 207 372 221 c 0,128,129
 359 235 359 235 358 256 c 0,130,131
 358 276 358 276 372 291 c 0,132,133
 384 304 384 304 404 307 c 1,134,135
 384 309 384 309 372 324 c 0,136,137
 359 338 359 338 358 358 c 0,138,139
 358 378 358 378 372 393 c 0,140,141
 384 406 384 406 404 410 c 1,142,143
 384 412 384 412 372 426 c 0,144,145
 359 440 359 440 358 461 c 0,146,147
 358 481 358 481 372 496 c 0,148,149
 384 509 384 509 404 512 c 1,150,151
 384 514 384 514 372 528 c 0,152,153
 358 543 358 543 358 563 c 256,0,1
EndSplineSet
EndChar

StartChar: asciicircum
Encoding: 94 94 43
Width: 614
VWidth: 1024
Flags: W
LayerCount: 2
Fore
SplineSet
256 666 m 256,0,1
 256 688 256 688 271 702.5 c 128,-1,2
 286 717 286 717 307 717 c 0,3,4
 329 717 329 717 343.5 702 c 128,-1,5
 358 687 358 687 358 666 c 0,6,7
 358 644 358 644 343.5 629 c 128,-1,8
 329 614 329 614 307 614 c 256,9,10
 285 614 285 614 270.5 629 c 128,-1,11
 256 644 256 644 256 666 c 256,0,1
51 461 m 256,12,13
 51 483 51 483 66 497.5 c 128,-1,14
 81 512 81 512 102 512 c 0,15,16
 124 512 124 512 139 497 c 128,-1,17
 154 482 154 482 154 461 c 0,18,19
 154 439 154 439 139 424.5 c 128,-1,20
 124 410 124 410 102 410 c 256,21,22
 80 410 80 410 65.5 424.5 c 128,-1,23
 51 439 51 439 51 461 c 256,12,13
358 563 m 256,24,25
 358 585 358 585 373 599.5 c 128,-1,26
 388 614 388 614 410 614 c 256,27,28
 432 614 432 614 446.5 599.5 c 128,-1,29
 461 585 461 585 461 563 c 256,30,31
 461 541 461 541 446 526.5 c 128,-1,32
 431 512 431 512 410 512 c 0,33,34
 388 512 388 512 373 526.5 c 128,-1,35
 358 541 358 541 358 563 c 256,24,25
461 461 m 256,36,37
 461 483 461 483 475.5 497.5 c 128,-1,38
 490 512 490 512 512 512 c 256,39,40
 534 512 534 512 548.5 497 c 128,-1,41
 563 482 563 482 563 461 c 0,42,43
 563 439 563 439 548.5 424.5 c 128,-1,44
 534 410 534 410 512 410 c 256,45,46
 490 410 490 410 475.5 424.5 c 128,-1,47
 461 439 461 439 461 461 c 256,36,37
154 563 m 256,48,49
 154 585 154 585 168.5 599.5 c 128,-1,50
 183 614 183 614 205 614 c 256,51,52
 227 614 227 614 241.5 599.5 c 128,-1,53
 256 585 256 585 256 563 c 256,54,55
 256 541 256 541 241 526.5 c 128,-1,56
 226 512 226 512 205 512 c 0,57,58
 183 512 183 512 168.5 526.5 c 128,-1,59
 154 541 154 541 154 563 c 256,48,49
EndSplineSet
EndChar

StartChar: underscore
Encoding: 95 95 44
Width: 614
VWidth: 1024
Flags: W
LayerCount: 2
Fore
SplineSet
51 51 m 256,0,1
 51 73 51 73 66 87.5 c 128,-1,2
 81 102 81 102 102 102 c 0,3,4
 124 102 124 102 139 87.5 c 128,-1,5
 154 73 154 73 154 51 c 1,6,7
 154 73 154 73 168.5 87.5 c 128,-1,8
 183 102 183 102 205 102 c 256,9,10
 227 102 227 102 241.5 87.5 c 128,-1,11
 256 73 256 73 256 51 c 1,12,13
 256 73 256 73 271 87.5 c 128,-1,14
 286 102 286 102 307 102 c 0,15,16
 327 102 327 102 341.5 89 c 128,-1,17
 356 76 356 76 358 55 c 1,18,19
 360 75 360 75 374.5 88.5 c 128,-1,20
 389 102 389 102 410 102 c 0,21,22
 430 102 430 102 444 89 c 0,23,24
 457 76 457 76 461 56 c 1,25,26
 463 75 463 75 477.5 88.5 c 128,-1,27
 492 102 492 102 512 102 c 0,28,29
 534 102 534 102 548.5 87.5 c 128,-1,30
 563 73 563 73 563 51 c 256,31,32
 563 29 563 29 548.5 14.5 c 128,-1,33
 534 0 534 0 512 0 c 0,34,35
 492 0 492 0 477 13 c 0,36,37
 463 25 463 25 461 46 c 1,38,39
 458 26 458 26 444 13 c 128,-1,40
 430 0 430 0 410 0 c 256,41,42
 390 0 390 0 375 13 c 0,43,44
 361 25 361 25 358 46 c 1,45,46
 355 26 355 26 342 13 c 0,47,48
 328 0 328 0 307 0 c 0,49,50
 287 0 287 0 272 13 c 0,51,52
 258 25 258 25 256 46 c 1,53,54
 253 26 253 26 240 13 c 0,55,56
 226 0 226 0 205 0 c 0,57,58
 185 0 185 0 170 13 c 0,59,60
 156 25 156 25 154 46 c 1,61,62
 151 26 151 26 137 13 c 128,-1,63
 123 0 123 0 102 0 c 0,64,65
 80 0 80 0 65.5 14.5 c 128,-1,66
 51 29 51 29 51 51 c 256,0,1
EndSplineSet
EndChar

StartChar: grave
Encoding: 96 96 45
Width: 614
VWidth: 1024
Flags: W
LayerCount: 2
Fore
SplineSet
307 563 m 256,0,1
 307 585 307 585 322 599.5 c 128,-1,2
 337 614 337 614 358 614 c 0,3,4
 380 614 380 614 395 599.5 c 128,-1,5
 410 585 410 585 410 563 c 256,6,7
 410 541 410 541 395 526.5 c 128,-1,8
 380 512 380 512 358 512 c 256,9,10
 336 512 336 512 321.5 526.5 c 128,-1,11
 307 541 307 541 307 563 c 256,0,1
205 666 m 256,12,13
 205 688 205 688 219.5 702.5 c 128,-1,14
 234 717 234 717 256 717 c 256,15,16
 278 717 278 717 292.5 702 c 128,-1,17
 307 687 307 687 307 666 c 0,18,19
 307 644 307 644 292.5 629 c 128,-1,20
 278 614 278 614 256 614 c 256,21,22
 234 614 234 614 219.5 629 c 128,-1,23
 205 644 205 644 205 666 c 256,12,13
EndSplineSet
EndChar

StartChar: a
Encoding: 97 97 46
Width: 614
VWidth: 1024
Flags: W
LayerCount: 2
Fore
SplineSet
461 154 m 256,0,1
 461 174 461 174 474 188 c 0,2,3
 486 201 486 201 507 205 c 1,4,5
 488 207 488 207 475.5 219 c 128,-1,6
 463 231 463 231 461 251 c 1,7,8
 458 231 458 231 444 218 c 128,-1,9
 430 205 430 205 410 205 c 256,10,11
 390 205 390 205 375 218 c 0,12,13
 361 230 361 230 358 251 c 1,14,15
 355 231 355 231 342 218 c 0,16,17
 328 205 328 205 307 205 c 0,18,19
 287 205 287 205 272 218 c 0,20,21
 258 230 258 230 256 251 c 1,22,23
 253 231 253 231 240 218 c 0,24,25
 226 205 226 205 205 205 c 0,26,27
 183 205 183 205 168.5 219.5 c 128,-1,28
 154 234 154 234 154 256 c 256,29,30
 154 278 154 278 168.5 292.5 c 128,-1,31
 183 307 183 307 205 307 c 256,32,33
 227 307 227 307 241.5 292.5 c 128,-1,34
 256 278 256 278 256 256 c 1,35,36
 256 278 256 278 271 292.5 c 128,-1,37
 286 307 286 307 307 307 c 0,38,39
 329 307 329 307 343.5 292.5 c 128,-1,40
 358 278 358 278 358 256 c 1,41,42
 358 278 358 278 373 292.5 c 128,-1,43
 388 307 388 307 410 307 c 0,44,45
 430 307 430 307 444.5 294 c 128,-1,46
 459 281 459 281 461 260 c 1,47,48
 463 278 463 278 475 292 c 0,49,50
 487 304 487 304 507 307 c 1,51,52
 487 309 487 309 474 324 c 0,53,54
 461 338 461 338 461 358 c 0,55,56
 461 380 461 380 475.5 395 c 128,-1,57
 490 410 490 410 512 410 c 256,58,59
 534 410 534 410 548.5 395 c 128,-1,60
 563 380 563 380 563 358 c 0,61,62
 563 338 563 338 550 323.5 c 128,-1,63
 537 309 537 309 517 307 c 1,64,65
 536 304 536 304 550 291 c 0,66,67
 563 277 563 277 563 256 c 0,68,69
 563 236 563 236 550 221.5 c 128,-1,70
 537 207 537 207 517 205 c 1,71,72
 536 202 536 202 550 188 c 0,73,74
 563 174 563 174 563 154 c 256,75,76
 563 134 563 134 550 119 c 128,-1,77
 537 104 537 104 517 102 c 1,78,79
 536 99 536 99 550 86 c 0,80,81
 563 72 563 72 563 51 c 0,82,83
 563 29 563 29 548.5 14.5 c 128,-1,84
 534 0 534 0 512 0 c 0,85,86
 492 0 492 0 477 13 c 0,87,88
 463 25 463 25 461 46 c 1,89,90
 458 26 458 26 444 13 c 128,-1,91
 430 0 430 0 410 0 c 256,92,93
 390 0 390 0 375 13 c 0,94,95
 361 25 361 25 358 46 c 1,96,97
 355 26 355 26 342 13 c 0,98,99
 328 0 328 0 307 0 c 0,100,101
 287 0 287 0 272 13 c 0,102,103
 258 25 258 25 256 46 c 1,104,105
 253 26 253 26 240 13 c 0,106,107
 226 0 226 0 205 0 c 0,108,109
 183 0 183 0 168.5 15 c 128,-1,110
 154 30 154 30 154 51 c 0,111,112
 154 73 154 73 168.5 87.5 c 128,-1,113
 183 102 183 102 205 102 c 0,114,115
 225 102 225 102 239.5 89 c 128,-1,116
 254 76 254 76 256 55 c 1,117,118
 258 75 258 75 272.5 88.5 c 128,-1,119
 287 102 287 102 307 102 c 0,120,121
 329 102 329 102 343 87 c 0,122,123
 356 74 356 74 358 55 c 1,124,125
 359 73 359 73 373 87 c 0,126,127
 388 102 388 102 410 102 c 256,128,129
 432 102 432 102 445 87 c 0,130,131
 458 74 458 74 461 55 c 1,132,133
 462 72 462 72 474 86 c 0,134,135
 486 99 486 99 507 102 c 1,136,137
 487 104 487 104 474 119 c 128,-1,138
 461 134 461 134 461 154 c 256,0,1
154 461 m 256,139,140
 154 483 154 483 168.5 497.5 c 128,-1,141
 183 512 183 512 205 512 c 256,142,143
 227 512 227 512 241.5 497 c 128,-1,144
 256 482 256 482 256 461 c 1,145,146
 256 483 256 483 271 497.5 c 128,-1,147
 286 512 286 512 307 512 c 0,148,149
 329 512 329 512 343 497 c 0,150,151
 356 484 356 484 358 465 c 1,152,153
 359 483 359 483 373 497 c 0,154,155
 388 512 388 512 410 512 c 256,156,157
 432 512 432 512 446.5 497 c 128,-1,158
 461 482 461 482 461 461 c 0,159,160
 461 439 461 439 446 424.5 c 128,-1,161
 431 410 431 410 410 410 c 0,162,163
 390 410 390 410 375 423 c 0,164,165
 361 435 361 435 358 456 c 1,166,167
 355 436 355 436 342 423 c 0,168,169
 328 410 328 410 307 410 c 0,170,171
 287 410 287 410 272 423 c 0,172,173
 258 435 258 435 256 456 c 1,174,175
 253 436 253 436 240 423 c 0,176,177
 226 410 226 410 205 410 c 0,178,179
 183 410 183 410 168.5 424.5 c 128,-1,180
 154 439 154 439 154 461 c 256,139,140
51 154 m 256,181,182
 51 176 51 176 66 190.5 c 128,-1,183
 81 205 81 205 102 205 c 0,184,185
 124 205 124 205 139 190 c 128,-1,186
 154 175 154 175 154 154 c 0,187,188
 154 132 154 132 139 117 c 128,-1,189
 124 102 124 102 102 102 c 256,190,191
 80 102 80 102 65.5 117 c 128,-1,192
 51 132 51 132 51 154 c 256,181,182
EndSplineSet
EndChar

StartChar: b
Encoding: 98 98 47
Width: 614
VWidth: 1024
Flags: W
LayerCount: 2
Fore
SplineSet
51 563 m 256,0,1
 51 583 51 583 65 598 c 0,2,3
 77 611 77 611 97 614 c 1,4,5
 77 616 77 616 65 631 c 0,6,7
 52 645 52 645 51 666 c 0,8,9
 51 688 51 688 66 702.5 c 128,-1,10
 81 717 81 717 102 717 c 0,11,12
 124 717 124 717 139 702 c 128,-1,13
 154 687 154 687 154 666 c 0,14,15
 154 646 154 646 140.5 631 c 128,-1,16
 127 616 127 616 108 614 c 1,17,18
 127 611 127 611 140 598 c 0,19,20
 153 584 153 584 154 563 c 0,21,22
 154 543 154 543 140.5 528.5 c 128,-1,23
 127 514 127 514 108 512 c 1,24,25
 127 509 127 509 140 496 c 0,26,27
 153 482 153 482 154 461 c 0,28,29
 154 441 154 441 140.5 426.5 c 128,-1,30
 127 412 127 412 108 410 c 1,31,32
 127 407 127 407 140 393 c 0,33,34
 151 380 151 380 154 362 c 1,35,36
 155 380 155 380 168 394 c 0,37,38
 183 409 183 409 205 410 c 0,39,40
 227 410 227 410 241.5 395 c 128,-1,41
 256 380 256 380 256 358 c 256,42,43
 256 336 256 336 241 321.5 c 128,-1,44
 226 307 226 307 205 307 c 0,45,46
 185 307 185 307 170 321 c 0,47,48
 156 333 156 333 154 353 c 1,49,50
 151 334 151 334 138 321.5 c 128,-1,51
 125 309 125 309 108 307 c 1,52,53
 127 304 127 304 140 291 c 0,54,55
 153 277 153 277 154 256 c 0,56,57
 154 236 154 236 140.5 221.5 c 128,-1,58
 127 207 127 207 108 205 c 1,59,60
 125 202 125 202 138 189 c 128,-1,61
 151 176 151 176 154 158 c 1,62,63
 156 178 156 178 170 191.5 c 128,-1,64
 184 205 184 205 205 205 c 0,65,66
 227 205 227 205 241.5 190 c 128,-1,67
 256 175 256 175 256 154 c 0,68,69
 256 132 256 132 241 117 c 128,-1,70
 226 102 226 102 205 102 c 0,71,72
 185 102 185 102 170 116 c 0,73,74
 156 128 156 128 154 148 c 1,75,76
 151 129 151 129 138 116.5 c 128,-1,77
 125 104 125 104 108 102 c 1,78,79
 127 99 127 99 140 86 c 0,80,81
 153 72 153 72 154 51 c 0,82,83
 154 29 154 29 139 14.5 c 128,-1,84
 124 0 124 0 102 0 c 256,85,86
 80 0 80 0 65.5 15 c 128,-1,87
 51 30 51 30 51 51 c 0,88,89
 51 71 51 71 65 86 c 0,90,91
 77 99 77 99 97 102 c 1,92,93
 77 104 77 104 65 119 c 0,94,95
 52 133 52 133 51 154 c 0,96,97
 51 174 51 174 65 188 c 0,98,99
 77 201 77 201 97 205 c 1,100,101
 77 207 77 207 65 221 c 0,102,103
 52 235 52 235 51 256 c 0,104,105
 51 276 51 276 65 291 c 0,106,107
 77 304 77 304 97 307 c 1,108,109
 77 309 77 309 65 324 c 0,110,111
 52 338 52 338 51 358 c 0,112,113
 51 378 51 378 65 393 c 0,114,115
 77 406 77 406 97 410 c 1,116,117
 77 412 77 412 65 426 c 0,118,119
 52 440 52 440 51 461 c 0,120,121
 51 481 51 481 65 496 c 0,122,123
 77 509 77 509 97 512 c 1,124,125
 77 514 77 514 65 528 c 0,126,127
 51 543 51 543 51 563 c 256,0,1
461 256 m 256,128,129
 461 276 461 276 474 291 c 0,130,131
 486 304 486 304 507 307 c 1,132,133
 487 309 487 309 474 324 c 0,134,135
 461 338 461 338 461 358 c 0,136,137
 461 380 461 380 475.5 395 c 128,-1,138
 490 410 490 410 512 410 c 256,139,140
 534 410 534 410 548.5 395 c 128,-1,141
 563 380 563 380 563 358 c 0,142,143
 563 338 563 338 550 323.5 c 128,-1,144
 537 309 537 309 517 307 c 1,145,146
 536 304 536 304 550 291 c 0,147,148
 563 277 563 277 563 256 c 0,149,150
 563 236 563 236 550 221.5 c 128,-1,151
 537 207 537 207 517 205 c 1,152,153
 536 202 536 202 550 188 c 0,154,155
 563 174 563 174 563 154 c 0,156,157
 563 132 563 132 548.5 117 c 128,-1,158
 534 102 534 102 512 102 c 256,159,160
 490 102 490 102 475.5 117 c 128,-1,161
 461 132 461 132 461 154 c 0,162,163
 461 174 461 174 474 188 c 0,164,165
 486 201 486 201 507 205 c 1,166,167
 487 207 487 207 474 221 c 0,168,169
 461 236 461 236 461 256 c 256,128,129
256 461 m 256,170,171
 256 483 256 483 271 497.5 c 128,-1,172
 286 512 286 512 307 512 c 0,173,174
 329 512 329 512 343 497 c 0,175,176
 356 484 356 484 358 465 c 1,177,178
 359 483 359 483 373 497 c 0,179,180
 388 512 388 512 410 512 c 256,181,182
 432 512 432 512 446.5 497 c 128,-1,183
 461 482 461 482 461 461 c 0,184,185
 461 439 461 439 446 424.5 c 128,-1,186
 431 410 431 410 410 410 c 0,187,188
 390 410 390 410 375 423 c 0,189,190
 361 435 361 435 358 456 c 1,191,192
 355 436 355 436 342 423 c 0,193,194
 328 410 328 410 307 410 c 0,195,196
 285 410 285 410 270.5 424.5 c 128,-1,197
 256 439 256 439 256 461 c 256,170,171
256 51 m 256,198,199
 256 73 256 73 271 87.5 c 128,-1,200
 286 102 286 102 307 102 c 0,201,202
 329 102 329 102 343 87 c 0,203,204
 356 74 356 74 358 55 c 1,205,206
 359 73 359 73 373 87 c 0,207,208
 388 102 388 102 410 102 c 256,209,210
 432 102 432 102 446.5 87.5 c 128,-1,211
 461 73 461 73 461 51 c 256,212,213
 461 29 461 29 446 14.5 c 128,-1,214
 431 0 431 0 410 0 c 0,215,216
 390 0 390 0 375 13 c 0,217,218
 361 25 361 25 358 46 c 1,219,220
 355 26 355 26 342 13 c 0,221,222
 328 0 328 0 307 0 c 0,223,224
 285 0 285 0 270.5 14.5 c 128,-1,225
 256 29 256 29 256 51 c 256,198,199
EndSplineSet
EndChar

StartChar: c
Encoding: 99 99 48
Width: 614
VWidth: 1024
Flags: W
LayerCount: 2
Fore
SplineSet
154 461 m 256,0,1
 154 483 154 483 168.5 497.5 c 128,-1,2
 183 512 183 512 205 512 c 256,3,4
 227 512 227 512 241 497 c 0,5,6
 254 484 254 484 256 465 c 1,7,8
 257 483 257 483 270 497 c 0,9,10
 285 512 285 512 307 512 c 256,11,12
 329 512 329 512 343 497 c 0,13,14
 356 484 356 484 358 465 c 1,15,16
 359 483 359 483 373 497 c 0,17,18
 388 512 388 512 410 512 c 256,19,20
 432 512 432 512 446.5 497 c 128,-1,21
 461 482 461 482 461 461 c 0,22,23
 461 439 461 439 446 424.5 c 128,-1,24
 431 410 431 410 410 410 c 0,25,26
 390 410 390 410 375 423 c 0,27,28
 361 435 361 435 358 456 c 1,29,30
 355 436 355 436 342 423 c 0,31,32
 328 410 328 410 307 410 c 0,33,34
 287 410 287 410 272 423 c 0,35,36
 258 435 258 435 256 456 c 1,37,38
 253 436 253 436 240 423 c 0,39,40
 226 410 226 410 205 410 c 0,41,42
 183 410 183 410 168.5 424.5 c 128,-1,43
 154 439 154 439 154 461 c 256,0,1
154 51 m 256,44,45
 154 73 154 73 168.5 87.5 c 128,-1,46
 183 102 183 102 205 102 c 256,47,48
 227 102 227 102 241 87 c 0,49,50
 254 74 254 74 256 55 c 1,51,52
 257 73 257 73 270 87 c 0,53,54
 285 102 285 102 307 102 c 256,55,56
 329 102 329 102 343 87 c 0,57,58
 356 74 356 74 358 55 c 1,59,60
 359 73 359 73 373 87 c 0,61,62
 388 102 388 102 410 102 c 256,63,64
 432 102 432 102 446.5 87.5 c 128,-1,65
 461 73 461 73 461 51 c 256,66,67
 461 29 461 29 446 14.5 c 128,-1,68
 431 0 431 0 410 0 c 0,69,70
 390 0 390 0 375 13 c 0,71,72
 361 25 361 25 358 46 c 1,73,74
 355 26 355 26 342 13 c 0,75,76
 328 0 328 0 307 0 c 0,77,78
 287 0 287 0 272 13 c 0,79,80
 258 25 258 25 256 46 c 1,81,82
 253 26 253 26 240 13 c 0,83,84
 226 0 226 0 205 0 c 0,85,86
 183 0 183 0 168.5 14.5 c 128,-1,87
 154 29 154 29 154 51 c 256,44,45
51 256 m 256,88,89
 51 276 51 276 65 291 c 0,90,91
 77 304 77 304 97 307 c 1,92,93
 77 309 77 309 65 324 c 0,94,95
 52 338 52 338 51 358 c 0,96,97
 51 380 51 380 66 395 c 128,-1,98
 81 410 81 410 102 410 c 0,99,100
 124 410 124 410 139 395 c 128,-1,101
 154 380 154 380 154 358 c 0,102,103
 154 338 154 338 140.5 323.5 c 128,-1,104
 127 309 127 309 108 307 c 1,105,106
 127 304 127 304 140 291 c 0,107,108
 153 277 153 277 154 256 c 0,109,110
 154 236 154 236 140.5 221.5 c 128,-1,111
 127 207 127 207 108 205 c 1,112,113
 127 202 127 202 140 188 c 128,-1,114
 153 174 153 174 154 154 c 0,115,116
 154 132 154 132 139 117 c 128,-1,117
 124 102 124 102 102 102 c 256,118,119
 80 102 80 102 65.5 117 c 128,-1,120
 51 132 51 132 51 154 c 0,121,122
 51 174 51 174 65 188 c 0,123,124
 77 201 77 201 97 205 c 1,125,126
 77 207 77 207 65 221 c 0,127,128
 51 236 51 236 51 256 c 256,88,89
461 358 m 256,129,130
 461 380 461 380 475.5 395 c 128,-1,131
 490 410 490 410 512 410 c 256,132,133
 534 410 534 410 548.5 395 c 128,-1,134
 563 380 563 380 563 358 c 256,135,136
 563 336 563 336 548.5 321.5 c 128,-1,137
 534 307 534 307 512 307 c 256,138,139
 490 307 490 307 475.5 321.5 c 128,-1,140
 461 336 461 336 461 358 c 256,129,130
461 154 m 256,141,142
 461 176 461 176 475.5 190.5 c 128,-1,143
 490 205 490 205 512 205 c 256,144,145
 534 205 534 205 548.5 190 c 128,-1,146
 563 175 563 175 563 154 c 0,147,148
 563 132 563 132 548.5 117 c 128,-1,149
 534 102 534 102 512 102 c 256,150,151
 490 102 490 102 475.5 117 c 128,-1,152
 461 132 461 132 461 154 c 256,141,142
EndSplineSet
EndChar

StartChar: d
Encoding: 100 100 49
Width: 614
VWidth: 1024
Flags: W
LayerCount: 2
Fore
SplineSet
461 256 m 256,0,1
 461 276 461 276 474 291 c 0,2,3
 486 304 486 304 507 307 c 1,4,5
 488 309 488 309 475.5 321.5 c 128,-1,6
 463 334 463 334 461 353 c 1,7,8
 458 333 458 333 444 321 c 0,9,10
 430 308 430 308 410 307 c 0,11,12
 388 307 388 307 373 322 c 128,-1,13
 358 337 358 337 358 358 c 0,14,15
 358 380 358 380 373 395 c 128,-1,16
 388 410 388 410 410 410 c 256,17,18
 432 410 432 410 445 394 c 0,19,20
 458 381 458 381 461 362 c 1,21,22
 462 379 462 379 474 393 c 0,23,24
 486 406 486 406 507 410 c 1,25,26
 487 412 487 412 474 426 c 128,-1,27
 461 440 461 440 461 461 c 0,28,29
 461 481 461 481 474 496 c 0,30,31
 486 509 486 509 507 512 c 1,32,33
 487 514 487 514 474 528 c 128,-1,34
 461 542 461 542 461 563 c 0,35,36
 461 583 461 583 474 598 c 0,37,38
 486 611 486 611 507 614 c 1,39,40
 487 616 487 616 474 631 c 0,41,42
 461 645 461 645 461 666 c 0,43,44
 461 688 461 688 475.5 702.5 c 128,-1,45
 490 717 490 717 512 717 c 256,46,47
 534 717 534 717 548.5 702 c 128,-1,48
 563 687 563 687 563 666 c 0,49,50
 563 646 563 646 550 631 c 128,-1,51
 537 616 537 616 517 614 c 1,52,53
 536 611 536 611 550 598 c 0,54,55
 563 584 563 584 563 563 c 0,56,57
 563 543 563 543 550 528.5 c 128,-1,58
 537 514 537 514 517 512 c 1,59,60
 536 509 536 509 550 496 c 0,61,62
 563 482 563 482 563 461 c 0,63,64
 563 441 563 441 550 426.5 c 128,-1,65
 537 412 537 412 517 410 c 1,66,67
 536 407 536 407 550 393 c 0,68,69
 563 379 563 379 563 358 c 0,70,71
 563 338 563 338 550 323.5 c 128,-1,72
 537 309 537 309 517 307 c 1,73,74
 536 304 536 304 550 291 c 0,75,76
 563 277 563 277 563 256 c 0,77,78
 563 236 563 236 550 221.5 c 128,-1,79
 537 207 537 207 517 205 c 1,80,81
 536 202 536 202 550 188 c 0,82,83
 563 174 563 174 563 154 c 256,84,85
 563 134 563 134 550 119 c 128,-1,86
 537 104 537 104 517 102 c 1,87,88
 536 99 536 99 550 86 c 0,89,90
 563 72 563 72 563 51 c 0,91,92
 563 29 563 29 548.5 14.5 c 128,-1,93
 534 0 534 0 512 0 c 256,94,95
 490 0 490 0 475.5 15 c 128,-1,96
 461 30 461 30 461 51 c 0,97,98
 461 71 461 71 474 86 c 0,99,100
 486 99 486 99 507 102 c 1,101,102
 488 104 488 104 475.5 116.5 c 128,-1,103
 463 129 463 129 461 148 c 1,104,105
 458 128 458 128 444 116 c 0,106,107
 430 103 430 103 410 102 c 0,108,109
 388 102 388 102 373 117 c 128,-1,110
 358 132 358 132 358 154 c 256,111,112
 358 176 358 176 373 190.5 c 128,-1,113
 388 205 388 205 410 205 c 0,114,115
 430 205 430 205 444 191 c 0,116,117
 457 178 457 178 461 159 c 1,118,119
 463 176 463 176 475 189 c 128,-1,120
 487 202 487 202 507 205 c 1,121,122
 487 207 487 207 474 221 c 0,123,124
 461 236 461 236 461 256 c 256,0,1
51 256 m 256,125,126
 51 276 51 276 65 291 c 0,127,128
 77 304 77 304 97 307 c 1,129,130
 77 309 77 309 65 324 c 0,131,132
 52 338 52 338 51 358 c 0,133,134
 51 380 51 380 66 395 c 128,-1,135
 81 410 81 410 102 410 c 0,136,137
 124 410 124 410 139 395 c 128,-1,138
 154 380 154 380 154 358 c 0,139,140
 154 338 154 338 140.5 323.5 c 128,-1,141
 127 309 127 309 108 307 c 1,142,143
 127 304 127 304 140 291 c 0,144,145
 153 277 153 277 154 256 c 0,146,147
 154 236 154 236 140.5 221.5 c 128,-1,148
 127 207 127 207 108 205 c 1,149,150
 127 202 127 202 140 188 c 128,-1,151
 153 174 153 174 154 154 c 0,152,153
 154 132 154 132 139 117 c 128,-1,154
 124 102 124 102 102 102 c 256,155,156
 80 102 80 102 65.5 117 c 128,-1,157
 51 132 51 132 51 154 c 0,158,159
 51 174 51 174 65 188 c 0,160,161
 77 201 77 201 97 205 c 1,162,163
 77 207 77 207 65 221 c 0,164,165
 51 236 51 236 51 256 c 256,125,126
154 461 m 256,166,167
 154 483 154 483 168.5 497.5 c 128,-1,168
 183 512 183 512 205 512 c 256,169,170
 227 512 227 512 241.5 497 c 128,-1,171
 256 482 256 482 256 461 c 1,172,173
 256 483 256 483 271 497.5 c 128,-1,174
 286 512 286 512 307 512 c 0,175,176
 329 512 329 512 343.5 497 c 128,-1,177
 358 482 358 482 358 461 c 0,178,179
 358 439 358 439 343.5 424.5 c 128,-1,180
 329 410 329 410 307 410 c 0,181,182
 287 410 287 410 272 423 c 0,183,184
 258 435 258 435 256 456 c 1,185,186
 253 436 253 436 240 423 c 0,187,188
 226 410 226 410 205 410 c 0,189,190
 183 410 183 410 168.5 424.5 c 128,-1,191
 154 439 154 439 154 461 c 256,166,167
154 51 m 256,192,193
 154 73 154 73 168.5 87.5 c 128,-1,194
 183 102 183 102 205 102 c 256,195,196
 227 102 227 102 241 87 c 0,197,198
 254 74 254 74 256 55 c 1,199,200
 257 73 257 73 270 87 c 0,201,202
 285 102 285 102 307 102 c 256,203,204
 329 102 329 102 343.5 87.5 c 128,-1,205
 358 73 358 73 358 51 c 256,206,207
 358 29 358 29 343.5 14.5 c 128,-1,208
 329 0 329 0 307 0 c 0,209,210
 287 0 287 0 272 13 c 0,211,212
 258 25 258 25 256 46 c 1,213,214
 253 26 253 26 240 13 c 0,215,216
 226 0 226 0 205 0 c 0,217,218
 183 0 183 0 168.5 14.5 c 128,-1,219
 154 29 154 29 154 51 c 256,192,193
EndSplineSet
EndChar

